Aykiz-Black.ufo
<glyph name="exclam" format="2">
  <advance width="314"/>
  <unicode hex="0021"/>
  <outline>
    <contour>
      <point x="61.584286759067545" y="319.99084711295154" type="line"/>
      <point x="64.66201523580176" y="290.4446537363031"/>
      <point x="89.56609523378312" y="268.0"/>
      <point x="119.27215447473266" y="268.0" type="curve"/>
      <point x="194.72784552526736" y="268.0" type="line"/>
      <point x="224.4339047662169" y="268.0"/>
      <point x="249.33798476419824" y="290.4446537363031"/>
      <point x="252.41571324093246" y="319.99084711295154" type="curve"/>
      <point x="285.33237990759915" y="635.9908471129515" type="line"/>
      <point x="288.8974172236929" y="670.2152053474516"/>
      <point x="262.05404848099977" y="700.0"/>
      <point x="227.644512191934" y="700.0" type="curve"/>
      <point x="86.35548780806599" y="700.0" type="line"/>
      <point x="51.945951519000204" y="700.0"/>
      <point x="25.102582776307123" y="670.2152053474516"/>
      <point x="28.66762009240088" y="635.9908471129515" type="curve"/>
    </contour>
    <contour>
      <point x="157" y="-10" type="curve" smooth="yes"/>
      <point x="235" y="-10"/>
      <point x="289" y="44"/>
      <point x="289" y="110" type="curve" smooth="yes"/>
      <point x="289" y="177"/>
      <point x="235" y="228"/>
      <point x="157" y="228" type="curve" smooth="yes"/>
      <point x="79" y="228"/>
      <point x="25" y="177"/>
      <point x="25" y="110" type="curve" smooth="yes"/>
      <point x="25" y="44"/>
      <point x="79" y="-10"/>
    </contour>
  </outline>
</glyph>
<glyph name="numbersign" format="2">
  <advance width="740"/>
  <unicode hex="0023"/>
  <outline>
    <contour>
      <point x="384.0976533950961" y="65.1535330639913" type="line"/>
      <point x="379.7968359676436" y="30.549254912074595"/>
      <point x="406.7842969555601" y="0.0"/>
      <point x="441.65481597893427" y="0.0" type="curve"/>
      <point x="484.7623268782086" y="0.0" type="line"/>
      <point x="514.0286212551966" y="0.0"/>
      <point x="538.7098790398694" y="21.803624458719515"/>
      <point x="542.3194894620468" y="50.84646693600868" type="curve"/>
      <point x="614.902346604904" y="634.8464669360087" type="line"/>
      <point x="619.2031640323564" y="669.4507450879254"/>
      <point x="592.2157030444399" y="700.0"/>
      <point x="557.3451840210657" y="700.0" type="curve"/>
      <point x="514.2376731217914" y="700.0" type="line"/>
      <point x="484.9713787448033" y="700.0"/>
      <point x="460.2901209601306" y="678.1963755412805"/>
      <point x="456.6805105379532" y="649.1535330639913" type="curve"/>
    </contour>
    <contour>
      <point x="13.0" y="195.0" type="line"/>
      <point x="13.0" y="162.96748450981397"/>
      <point x="38.96748450981397" y="137.0"/>
      <point x="71.0" y="137.0" type="curve"/>
      <point x="635.0" y="137.0" type="line"/>
      <point x="667.032515490186" y="137.0"/>
      <point x="693.0" y="162.96748450981397"/>
      <point x="693.0" y="195.0" type="curve"/>
      <point x="693.0" y="229.0" type="line"/>
      <point x="693.0" y="261.03251549018603"/>
      <point x="667.032515490186" y="287.0"/>
      <point x="635.0" y="287.0" type="curve"/>
      <point x="71.0" y="287.0" type="line"/>
      <point x="38.96748450981397" y="287.0"/>
      <point x="13.0" y="261.03251549018603"/>
      <point x="13.0" y="229.0" type="curve"/>
    </contour>
    <contour>
      <point x="125.09765339509606" y="65.1535330639913" type="line"/>
      <point x="120.79683596764356" y="30.549254912074595"/>
      <point x="147.78429695556008" y="0.0"/>
      <point x="182.65481597893424" y="0.0" type="curve"/>
      <point x="225.7623268782086" y="0.0" type="line"/>
      <point x="255.02862125519667" y="0.0"/>
      <point x="279.7098790398694" y="21.803624458719515"/>
      <point x="283.3194894620468" y="50.84646693600868" type="curve"/>
      <point x="355.9023466049039" y="634.8464669360087" type="line"/>
      <point x="360.2031640323564" y="669.4507450879254"/>
      <point x="333.2157030444399" y="700.0"/>
      <point x="298.34518402106573" y="700.0" type="curve"/>
      <point x="255.2376731217914" y="700.0" type="line"/>
      <point x="225.97137874480333" y="700.0"/>
      <point x="201.29012096013057" y="678.1963755412805"/>
      <point x="197.6805105379532" y="649.1535330639913" type="curve"/>
    </contour>
    <contour>
      <point x="47.0" y="471.0" type="line"/>
      <point x="47.0" y="438.96748450981397"/>
      <point x="72.96748450981397" y="413.0"/>
      <point x="105.0" y="413.0" type="curve"/>
      <point x="669.0" y="413.0" type="line"/>
      <point x="701.032515490186" y="413.0"/>
      <point x="727.0" y="438.96748450981397"/>
      <point x="727.0" y="471.0" type="curve"/>
      <point x="727.0" y="505.0" type="line"/>
      <point x="727.0" y="537.032515490186"/>
      <point x="701.032515490186" y="563.0"/>
      <point x="669.0" y="563.0" type="curve"/>
      <point x="105.0" y="563.0" type="line"/>
      <point x="72.96748450981397" y="563.0"/>
      <point x="47.0" y="537.032515490186"/>
      <point x="47.0" y="505.0" type="curve"/>
    </contour>
  </outline>
</glyph>
<glyph name="parenleft" format="2">
  <advance width="381"/>
  <unicode hex="0028"/>
  <outline>
    <contour>
      <point x="163.28115883755055" y="-169.34375833235663" type="curve"/>
      <point x="173.37670536803327" y="-185.0832023849851"/>
      <point x="191.09116270011742" y="-194.0"/>
      <point x="209.7900973979809" y="-194.0" type="curve"/>
      <point x="313.3909811219138" y="-194.0" type="line"/>
      <point x="350.3425603228347" y="-194.0"/>
      <point x="373.78878833428786" y="-154.06031480676148"/>
      <point x="357.9573841394163" y="-120.67190593990269" type="curve"/>
      <point x="295.16514347509343" y="11.75684006140072"/>
      <point x="268.0" y="137.87431465370946"/>
      <point x="268" y="274" type="curve" smooth="yes"/>
      <point x="268.0" y="410.12568534629054"/>
      <point x="295.16514347509343" y="536.2431599385993"/>
      <point x="357.95738413941626" y="668.6719059399027" type="curve"/>
      <point x="373.7887883342878" y="702.0603148067614"/>
      <point x="350.3425603228347" y="742.0"/>
      <point x="313.3909811219138" y="742.0" type="curve"/>
      <point x="209.7900973979809" y="742.0" type="line"/>
      <point x="191.09116270011742" y="742.0"/>
      <point x="173.3767053680333" y="733.083202384985"/>
      <point x="163.28115883755058" y="717.3437583323566" type="curve"/>
      <point x="87.92729982767001" y="599.8634570475725"/>
      <point x="47.0" y="444.7688710439784"/>
      <point x="47" y="274" type="curve" smooth="yes"/>
      <point x="47.0" y="103.23112895602162"/>
      <point x="87.92729982767001" y="-51.863457047572496"/>
    </contour>
  </outline>
</glyph>
<glyph name="parenright" format="2">
  <advance width="381"/>
  <unicode hex="0029"/>
  <outline>
    <contour>
      <point x="171.2099026020191" y="-194.0" type="line"/>
      <point x="189.90883729988258" y="-194.0"/>
      <point x="207.6232946319667" y="-185.0832023849851"/>
      <point x="217.71884116244942" y="-169.34375833235663" type="curve"/>
      <point x="293.07270017233" y="-51.863457047572496"/>
      <point x="334.0" y="103.23112895602162"/>
      <point x="334" y="274" type="curve" smooth="yes"/>
      <point x="334.0" y="444.7688710439784"/>
      <point x="293.07270017233" y="599.8634570475725"/>
      <point x="217.71884116244945" y="717.3437583323566" type="curve"/>
      <point x="207.62329463196673" y="733.083202384985"/>
      <point x="189.90883729988258" y="742.0"/>
      <point x="171.2099026020191" y="742.0" type="curve"/>
      <point x="67.60901887808619" y="742.0" type="line"/>
      <point x="30.657439677165286" y="742.0"/>
      <point x="7.2112116657121845" y="702.0603148067614"/>
      <point x="23.042615860583698" y="668.6719059399027" type="curve"/>
      <point x="85.83485652490654" y="536.2431599385993"/>
      <point x="113.0" y="410.12568534629054"/>
      <point x="113" y="274" type="curve" smooth="yes"/>
      <point x="113.0" y="137.87431465370946"/>
      <point x="85.83485652490654" y="11.756840061400723"/>
      <point x="23.0426158605837" y="-120.67190593990269" type="curve"/>
      <point x="7.211211665712193" y="-154.06031480676148"/>
      <point x="30.657439677165286" y="-194.0"/>
      <point x="67.60901887808619" y="-194.0" type="curve"/>
    </contour>
  </outline>
</glyph>
<glyph name="asterisk" format="2">
  <advance width="473"/>
  <unicode hex="002A"/>
  <outline>
    <contour>
      <point x="414.7223651611781" y="555.2275064918758" type="line"/>
      <point x="443.0388443670117" y="570.2706360699749"/>
      <point x="452.7684096708256" y="606.10055241837"/>
      <point x="435.95" y="633.4" type="curve"/>
      <point x="428.45134978918753" y="645.5717220813187" type="line"/>
      <point x="411.6382457421738" y="672.8625576358918"/>
      <point x="375.8756084258706" y="681.3405930281461"/>
      <point x="348.60086176527693" y="664.5014016116057" type="curve"/>
      <point x="283" y="624" type="line"/>
      <point x="300" y="614" type="line"/>
      <point x="301.65" y="684.4" type="line"/>
      <point x="302.3904120371448" y="715.9909135848469"/>
      <point x="276.98377095666325" y="742.0"/>
      <point x="245.3841818594928" y="742.0" type="curve"/>
      <point x="226.6158181405072" y="742.0" type="line"/>
      <point x="195.01622904333675" y="742.0"/>
      <point x="169.60958796285516" y="715.9909135848469"/>
      <point x="170.35" y="684.4" type="curve"/>
      <point x="172" y="614" type="line"/>
      <point x="189" y="624" type="line"/>
      <point x="123.72117925165136" y="664.3025762881109" type="line"/>
      <point x="96.32108773189272" y="681.2191545307445"/>
      <point x="60.3859199111744" y="672.5768092654638"/>
      <point x="43.67405331794568" y="645.05138193544" type="curve"/>
      <point x="36.6" y="633.4" type="line"/>
      <point x="19.991352364820138" y="606.0445803655861"/>
      <point x="29.808292478242038" y="570.351844620934"/>
      <point x="58.07028819215732" y="555.3376593979165" type="curve"/>
      <point x="134" y="515" type="line"/>
      <point x="134" y="549" type="line"/>
      <point x="58.07028819215732" y="508.6623406020836" type="line"/>
      <point x="29.808292478242038" y="493.6481553790661"/>
      <point x="19.991352364820138" y="457.95541963441394"/>
      <point x="36.6" y="430.6" type="curve"/>
      <point x="43.67405331794568" y="418.94861806456004" type="line"/>
      <point x="60.3859199111744" y="391.42319073453626"/>
      <point x="96.32108773189272" y="382.7808454692555"/>
      <point x="123.72117925165136" y="399.6974237118891" type="curve"/>
      <point x="189" y="440" type="line"/>
      <point x="172" y="450" type="line"/>
      <point x="170.35" y="379.6" type="line"/>
      <point x="169.60958796285516" y="348.0090864151531"/>
      <point x="195.01622904333675" y="322.0"/>
      <point x="226.6158181405072" y="322.0" type="curve"/>
      <point x="245.3841818594928" y="322.0" type="line"/>
      <point x="276.98377095666325" y="322.0"/>
      <point x="302.3904120371448" y="348.0090864151531"/>
      <point x="301.65" y="379.6" type="curve"/>
      <point x="300" y="450" type="line"/>
      <point x="283" y="440" type="line"/>
      <point x="348.60086176527693" y="399.49859838839427" type="line"/>
      <point x="375.8756084258706" y="382.6594069718538"/>
      <point x="411.6382457421738" y="391.13744236410827"/>
      <point x="428.45134978918753" y="418.42827791868126" type="curve"/>
      <point x="435.95" y="430.6" type="line"/>
      <point x="452.7684096708256" y="457.89944758163"/>
      <point x="443.0388443670117" y="493.72936393002504"/>
      <point x="414.7223651611781" y="508.7724935081241" type="curve"/>
      <point x="339" y="549" type="line"/>
      <point x="339" y="515" type="line"/>
    </contour>
  </outline>
</glyph>
<glyph name="plus" format="2">
  <advance width="620"/>
  <unicode hex="002B"/>
  <outline>
    <contour>
      <point x="220.0" y="163.0" type="line"/>
      <point x="220.0" y="130.96748450981397"/>
      <point x="245.96748450981397" y="105.0"/>
      <point x="278.0" y="105.0" type="curve"/>
      <point x="342.0" y="105.0" type="line"/>
      <point x="374.03251549018603" y="105.0"/>
      <point x="400.0" y="130.96748450981397"/>
      <point x="400.0" y="163.0" type="curve"/>
      <point x="400.0" y="537.0" type="line"/>
      <point x="400.0" y="569.032515490186"/>
      <point x="374.03251549018603" y="595.0"/>
      <point x="342.0" y="595.0" type="curve"/>
      <point x="278.0" y="595.0" type="line"/>
      <point x="245.96748450981397" y="595.0"/>
      <point x="220.0" y="569.032515490186"/>
      <point x="220.0" y="537.0" type="curve"/>
    </contour>
    <contour>
      <point x="55.0" y="323.0" type="line"/>
      <point x="55.0" y="290.96748450981397"/>
      <point x="80.96748450981397" y="265.0"/>
      <point x="113.0" y="265.0" type="curve"/>
      <point x="507.0" y="265.0" type="line"/>
      <point x="539.032515490186" y="265.0"/>
      <point x="565.0" y="290.96748450981397"/>
      <point x="565.0" y="323.0" type="curve"/>
      <point x="565.0" y="377.0" type="line"/>
      <point x="565.0" y="409.03251549018603"/>
      <point x="539.032515490186" y="435.0"/>
      <point x="507.0" y="435.0" type="curve"/>
      <point x="113.0" y="435.0" type="line"/>
      <point x="80.96748450981397" y="435.0"/>
      <point x="55.0" y="409.03251549018603"/>
      <point x="55.0" y="377.0" type="curve"/>
    </contour>
  </outline>
</glyph>
<glyph name="hyphen" format="2">
  <advance width="390"/>
  <unicode hex="002D"/>
  <outline>
    <contour>
      <point x="45.0" y="262.0" type="line"/>
      <point x="45.0" y="229.96748450981397"/>
      <point x="70.96748450981397" y="204.0"/>
      <point x="103.0" y="204.0" type="curve"/>
      <point x="287.0" y="204.0" type="line"/>
      <point x="319.03251549018603" y="204.0"/>
      <point x="345.0" y="229.96748450981397"/>
      <point x="345.0" y="262.0" type="curve"/>
      <point x="345.0" y="316.0" type="line"/>
      <point x="345.0" y="348.03251549018603"/>
      <point x="319.03251549018603" y="374.0"/>
      <point x="287.0" y="374.0" type="curve"/>
      <point x="103.0" y="374.0" type="line"/>
      <point x="70.96748450981397" y="374.0"/>
      <point x="45.0" y="348.03251549018603"/>
      <point x="45.0" y="316.0" type="curve"/>
    </contour>
  </outline>
</glyph>
<glyph name="one" format="2">
  <advance width="418"/>
  <unicode hex="0031"/>
  <outline>
    <contour>
      <point x="125.0" y="57.99999999999999" type="line"/>
      <point x="125.0" y="25.96748450981397"/>
      <point x="150.96748450981397" y="0.0"/>
      <point x="183.0" y="0.0" type="curve"/>
      <point x="303.0" y="0.0" type="line"/>
      <point x="335.03251549018603" y="0.0"/>
      <point x="361.0" y="25.96748450981397"/>
      <point x="361.0" y="57.99999999999999" type="curve"/>
      <point x="361.0" y="642.0" type="line"/>
      <point x="361.0" y="674.032515490186"/>
      <point x="335.03251549018603" y="700.0"/>
      <point x="303.0" y="700.0" type="curve"/>
      <point x="62.99999999999999" y="700.0" type="line"/>
      <point x="30.96748450981397" y="700.0"/>
      <point x="5.0" y="674.032515490186"/>
      <point x="5.0" y="642.0" type="curve"/>
      <point x="5.0" y="580.0" type="line"/>
      <point x="5.0" y="547.967484509814"/>
      <point x="30.96748450981397" y="522.0"/>
      <point x="62.99999999999999" y="522.0" type="curve"/>
      <point x="226" y="522" type="line"/>
      <point x="125" y="618" type="line"/>
    </contour>
  </outline>
</glyph>
<glyph name="two" format="2">
  <advance width="608"/>
  <unicode hex="0032"/>
  <outline>
    <contour>
      <point x="28.0" y="57.99999999999999" type="line"/>
      <point x="28.0" y="25.96748450981397"/>
      <point x="53.96748450981397" y="0.0"/>
      <point x="86.0" y="0.0" type="curve"/>
      <point x="531.0" y="0.0" type="line"/>
      <point x="563.032515490186" y="0.0"/>
      <point x="589.0" y="25.96748450981397"/>
      <point x="589.0" y="57.99999999999999" type="curve"/>
      <point x="589.0" y="125.0" type="line"/>
      <point x="589.0" y="157.03251549018603"/>
      <point x="563.032515490186" y="183.0"/>
      <point x="531.0" y="183.0" type="curve"/>
      <point x="266.4824962175012" y="183.0" type="line"/>
      <point x="247.4977770254879" y="183.0"/>
      <point x="234.84179635443604" y="163.4046675388174"/>
      <point x="242.65" y="146.1" type="curve"/>
      <point x="246.35" y="137.9" type="line"/>
      <point x="254.56621694091803" y="119.6910867795871"/>
      <point x="278.16218225161094" y="114.80556594488786"/>
      <point x="292.9332260174121" y="128.25499000532787" type="curve"/>
      <point x="453" y="274" type="line" smooth="yes"/>
      <point x="555" y="366"/>
      <point x="573" y="428"/>
      <point x="573" y="497" type="curve" smooth="yes"/>
      <point x="573" y="630"/>
      <point x="456" y="716"/>
      <point x="290" y="716" type="curve" smooth="yes"/>
      <point x="139" y="716"/>
      <point x="38" y="650"/>
      <point x="-13" y="554" type="curve"/>
      <point x="165" y="465" type="line"/>
      <point x="186" y="507"/>
      <point x="226" y="530"/>
      <point x="268" y="530" type="curve" smooth="yes"/>
      <point x="313" y="530"/>
      <point x="336" y="509"/>
      <point x="336" y="475" type="curve" smooth="yes"/>
      <point x="336" y="451"/>
      <point x="329" y="424"/>
      <point x="281" y="379" type="curve" smooth="yes"/>
      <point x="46.617832550272794" y="162.2196554022286" type="line"/>
      <point x="34.74845422004898" y="151.24165331024292"/>
      <point x="28.0" y="135.80761889359655"/>
      <point x="28.0" y="119.63979059547225" type="curve"/>
    </contour>
  </outline>
</glyph>
<glyph name="three" format="2">
  <advance width="614"/>
  <unicode hex="0033"/>
  <outline>
    <contour>
      <point x="270" y="-16" type="curve" smooth="yes"/>
      <point x="494" y="-16"/>
      <point x="590" y="104"/>
      <point x="590" y="224" type="curve" smooth="yes"/>
      <point x="590" y="348"/>
      <point x="496" y="435"/>
      <point x="320" y="435" type="curve" smooth="yes"/>
      <point x="285.9" y="435.0" type="line"/>
      <point x="278.3456566940974" y="435.0"/>
      <point x="275.7034122557111" y="424.9732886339335"/>
      <point x="282.27669007496996" y="421.25037022302587" type="curve"/>
      <point x="332.27696238315036" y="392.9316319245874" type="line"/>
      <point x="355.11790215212983" y="379.99517046251054"/>
      <point x="383.7999606932154" y="384.01211473785435"/>
      <point x="402.2083053615014" y="402.72557009125006" type="curve"/>
      <point x="535.3478832269352" y="538.07188129147" type="line"/>
      <point x="546.0194337508353" y="548.9203083433906"/>
      <point x="552.0" y="563.5281781935003"/>
      <point x="552.0" y="578.745614248401" type="curve"/>
      <point x="552.0" y="642.0" type="line"/>
      <point x="552.0" y="674.032515490186"/>
      <point x="526.032515490186" y="700.0"/>
      <point x="494.0" y="700.0" type="curve"/>
      <point x="88.0" y="700.0" type="line"/>
      <point x="55.96748450981397" y="700.0"/>
      <point x="30.0" y="674.032515490186"/>
      <point x="30.0" y="642.0" type="curve"/>
      <point x="30.0" y="580.0" type="line"/>
      <point x="30.0" y="547.967484509814"/>
      <point x="55.96748450981397" y="522.0"/>
      <point x="88.0" y="522.0" type="curve"/>
      <point x="342.21542442816553" y="522.0" type="line"/>
      <point x="360.7895639149756" y="522.0"/>
      <point x="374.3217179122423" y="539.5992516634693"/>
      <point x="369.55" y="557.55" type="curve"/>
      <point x="367.45" y="565.45" type="line"/>
      <point x="363.2748530625994" y="581.1565051454594"/>
      <point x="343.60106581463236" y="586.3624094469191"/>
      <point x="332.2040344182269" y="574.7764769776451" type="curve"/>
      <point x="193.65211677306473" y="433.9281187085299" type="line"/>
      <point x="182.9805662491647" y="423.07969165660944"/>
      <point x="177.0" y="408.4718218064997"/>
      <point x="177.0" y="393.254385751599" type="curve"/>
      <point x="177.0" y="313.85" type="line"/>
      <point x="177.0" y="290.7368832195813"/>
      <point x="195.7368832195813" y="272.0"/>
      <point x="218.85" y="272.0" type="curve"/>
      <point x="270" y="272" type="line" smooth="yes"/>
      <point x="330" y="272"/>
      <point x="353" y="254"/>
      <point x="353" y="224" type="curve" smooth="yes"/>
      <point x="353" y="188"/>
      <point x="315" y="170"/>
      <point x="262" y="170" type="curve" smooth="yes"/>
      <point x="203" y="170"/>
      <point x="134" y="186"/>
      <point x="74" y="221" type="curve"/>
      <point x="-6" y="47" type="line"/>
      <point x="69" y="5"/>
      <point x="174" y="-16"/>
    </contour>
  </outline>
</glyph>
<glyph name="four" format="2">
  <advance width="712"/>
  <unicode hex="0034"/>
  <guideline x="375" y="228" angle="90"/>
  <outline>
    <contour>
      <point x="23.0" y="178.0" type="line"/>
      <point x="23.0" y="145.96748450981397"/>
      <point x="48.96748450981397" y="120.0"/>
      <point x="81.0" y="120.0" type="curve"/>
      <point x="650.0" y="120.0" type="line"/>
      <point x="682.032515490186" y="120.0"/>
      <point x="708.0" y="145.96748450981397"/>
      <point x="708.0" y="178.0" type="curve"/>
      <point x="708.0" y="245.0" type="line"/>
      <point x="708.0" y="277.03251549018603"/>
      <point x="682.032515490186" y="303.0"/>
      <point x="650.0" y="303.0" type="curve"/>
      <point x="217.67951721910723" y="303.0" type="line"/>
      <point x="208.9422264116723" y="303.0"/>
      <point x="207.1311932030177" y="290.6606420390947"/>
      <point x="215.5" y="288.15" type="curve"/>
      <point x="234.8391773534995" y="282.3482467939501" type="line"/>
      <point x="259.2897708902083" y="275.01306873293754"/>
      <point x="285.66169749035964" y="284.52632839459665"/>
      <point x="299.7988009770495" y="305.78141405640304" type="curve"/>
      <point x="502.05921725072807" y="609.8792427196261" type="line"/>
      <point x="527.6982932346428" y="648.4275038143232"/>
      <point x="500.0618901657615" y="700.0"/>
      <point x="453.76577099002606" y="700.0" type="curve"/>
      <point x="350.4295403123816" y="700.0" type="line"/>
      <point x="331.3748001130903" y="700.0"/>
      <point x="313.5355405299795" y="690.6406815753912"/>
      <point x="302.7064626995627" y="674.9622187232726" type="curve"/>
      <point x="33.27692238718109" y="284.8790458804305" type="line"/>
      <point x="26.584505508688146" y="275.1896881102219"/>
      <point x="23.0" y="263.6927389127138"/>
      <point x="23.0" y="251.91682715715794" type="curve"/>
    </contour>
    <contour>
      <point x="386.0" y="54.0" type="line"/>
      <point x="386.0" y="24.176623509137148"/>
      <point x="410.17662350913713" y="0.0"/>
      <point x="440.0" y="0.0" type="curve"/>
      <point x="557.0" y="0.0" type="line"/>
      <point x="589.032515490186" y="0.0"/>
      <point x="615.0" y="25.96748450981397"/>
      <point x="615.0" y="57.99999999999999" type="curve"/>
      <point x="615.0" y="352.0" type="line"/>
      <point x="615.0" y="384.03251549018603"/>
      <point x="589.032515490186" y="410.0"/>
      <point x="557.0" y="410.0" type="curve"/>
      <point x="441.15" y="410.0" type="line"/>
      <point x="414.5574892956473" y="410.0"/>
      <point x="393.0" y="388.4425107043527"/>
      <point x="393.0" y="361.85" type="curve"/>
      <point x="393" y="303" type="line"/>
      <point x="386" y="120" type="line"/>
    </contour>
  </outline>
</glyph>
<glyph name="five" format="2">
  <advance width="619"/>
  <unicode hex="0035"/>
  <guideline x="287" y="483" angle="84.8651"/>
  <outline>
    <contour>
      <point x="281" y="-16" type="curve" smooth="yes"/>
      <point x="505" y="-16"/>
      <point x="601" y="105"/>
      <point x="601" y="230" type="curve" smooth="yes"/>
      <point x="601" y="354"/>
      <point x="522" y="453"/>
      <point x="315" y="453" type="curve" smooth="yes"/>
      <point x="152" y="453" type="line"/>
      <point x="271" y="352" type="line"/>
      <point x="292" y="623" type="line"/>
      <point x="173" y="522" type="line"/>
      <point x="497.0" y="522.0" type="line"/>
      <point x="529.032515490186" y="522.0"/>
      <point x="555.0" y="547.967484509814"/>
      <point x="555.0" y="580.0" type="curve"/>
      <point x="555.0" y="642.0" type="line"/>
      <point x="555.0" y="674.032515490186"/>
      <point x="529.032515490186" y="700.0"/>
      <point x="497.0" y="700.0" type="curve"/>
      <point x="143.4198752702486" y="700.0" type="line"/>
      <point x="113.23304296423024" y="700.0"/>
      <point x="88.09314580225185" y="676.8453418844869"/>
      <point x="85.6155586868631" y="646.7603554833377" type="curve"/>
      <point x="60.168499863333686" y="337.7603554833376" type="line"/>
      <point x="57.385343130504396" y="303.96488087041047"/>
      <point x="84.06293491179643" y="275.0"/>
      <point x="117.9728164467192" y="275.0" type="curve"/>
      <point x="258" y="275" type="line" smooth="yes"/>
      <point x="343" y="275"/>
      <point x="364" y="255"/>
      <point x="364" y="225" type="curve" smooth="yes"/>
      <point x="364" y="189"/>
      <point x="325" y="170"/>
      <point x="272" y="170" type="curve" smooth="yes"/>
      <point x="221.90600419774137" y="170.0"/>
      <point x="165.32402340871732" y="181.53419553202738"/>
      <point x="112.65924515791176" y="206.43879615931456" type="curve"/>
      <point x="97.51705688100792" y="213.59937224421836"/>
      <point x="78.93949227373514" y="207.8183956953739"/>
      <point x="71.94249569847437" y="192.59992814418175" type="curve"/>
      <point x="21.158623132488437" y="82.14500531316236" type="line"/>
      <point x="12.033984311438438" y="62.29891587737861"/>
      <point x="19.65736915989537" y="38.589109739244826"/>
      <point x="39.70704887982963" y="29.920970225150874" type="curve"/>
      <point x="110.51814922771092" y="-0.6930099249497097"/>
      <point x="199.03914391565195" y="-16.0"/>
    </contour>
  </outline>
</glyph>
<glyph name="six" format="2">
  <advance width="661"/>
  <unicode hex="0036"/>
  <outline>
    <contour>
      <point x="365" y="-16" type="curve" smooth="yes"/>
      <point x="523" y="-16"/>
      <point x="649" y="79"/>
      <point x="649" y="229" type="curve" smooth="yes"/>
      <point x="649" y="366"/>
      <point x="537" y="453"/>
      <point x="409" y="453" type="curve" smooth="yes"/>
      <point x="311" y="453"/>
      <point x="251" y="415"/>
      <point x="212" y="347" type="curve"/>
      <point x="266" y="308" type="line"/>
      <point x="266" y="328"/>
      <point x="266" y="347"/>
      <point x="266" y="367" type="curve" smooth="yes"/>
      <point x="266" y="475"/>
      <point x="327" y="533"/>
      <point x="422" y="533" type="curve" smooth="yes"/>
      <point x="459.1809750268385" y="533.0"/>
      <point x="494.9338251529059" y="527.2875003969158"/>
      <point x="529.8619489721884" y="508.0183194689282" type="curve"/>
      <point x="540.3127240849237" y="502.2528258075185"/>
      <point x="553.8832544595763" y="505.4792586568244"/>
      <point x="559.3492616635745" y="516.0897432292916" type="curve"/>
      <point x="620.9110510666452" y="635.5920403058406" type="line"/>
      <point x="628.357411742862" y="650.0467404420261"/>
      <point x="623.7573153939779" y="667.9537224459594"/>
      <point x="609.238203071878" y="675.2736965391924" type="curve"/>
      <point x="557.4500920358087" y="701.3832563188549"/>
      <point x="487.95588320196157" y="716.0"/>
      <point x="417" y="716" type="curve" smooth="yes"/>
      <point x="186" y="716"/>
      <point x="29" y="573"/>
      <point x="29" y="328" type="curve" smooth="yes"/>
      <point x="29" y="99"/>
      <point x="165" y="-16"/>
    </contour>
    <contour>
      <point x="349" y="147" type="curve" smooth="yes"/>
      <point x="307" y="147"/>
      <point x="277" y="174"/>
      <point x="277" y="218" type="curve" smooth="yes"/>
      <point x="277" y="262"/>
      <point x="307" y="290"/>
      <point x="349" y="290" type="curve" smooth="yes"/>
      <point x="391" y="290"/>
      <point x="421" y="262"/>
      <point x="421" y="218" type="curve" smooth="yes"/>
      <point x="421" y="174"/>
      <point x="391" y="147"/>
    </contour>
  </outline>
</glyph>
<glyph name="seven" format="2">
  <advance width="645"/>
  <unicode hex="0037"/>
  <outline>
    <contour>
      <point x="163.64885113611072" y="80.84731931759168" type="line"/>
      <point x="147.24640751773833" y="42.57495087472276"/>
      <point x="175.32016655074153" y="0.0"/>
      <point x="216.95926287715807" y="0.0" type="curve"/>
      <point x="348.44565012140623" y="0.0" type="line"/>
      <point x="371.80366962992537" y="0.0"/>
      <point x="392.8823666367479" y="14.011645851481074"/>
      <point x="401.9240517877891" y="35.54870704816719" type="curve"/>
      <point x="615.4784016663829" y="544.2296692053326" type="line"/>
      <point x="618.4628389251637" y="551.3385219032871"/>
      <point x="620.0" y="558.9710560336893"/>
      <point x="620.0" y="566.6809621571654" type="curve"/>
      <point x="620.0" y="642.0" type="line"/>
      <point x="620.0" y="674.032515490186"/>
      <point x="594.032515490186" y="700.0"/>
      <point x="562.0" y="700.0" type="curve"/>
      <point x="79.0" y="700.0" type="line"/>
      <point x="46.96748450981398" y="700.0"/>
      <point x="21.0" y="674.032515490186"/>
      <point x="21.0" y="642.0" type="curve"/>
      <point x="21.0" y="473.0" type="line"/>
      <point x="21.0" y="440.96748450981397"/>
      <point x="46.96748450981398" y="415.0"/>
      <point x="79.0" y="415.0" type="curve"/>
      <point x="158.0" y="415.0" type="line"/>
      <point x="190.03251549018603" y="415.0"/>
      <point x="216.0" y="440.96748450981397"/>
      <point x="216.0" y="473.0" type="curve"/>
      <point x="216" y="624" type="line"/>
      <point x="124" y="517" type="line"/>
      <point x="456" y="517" type="line"/>
      <point x="393" y="616" type="line"/>
    </contour>
  </outline>
</glyph>
<glyph name="nine" format="2">
  <advance width="661"/>
  <unicode hex="0039"/>
  <outline>
    <contour>
      <point x="296" y="716" type="curve" smooth="yes"/>
      <point x="138" y="716"/>
      <point x="12" y="621"/>
      <point x="12" y="471" type="curve" smooth="yes"/>
      <point x="12" y="334"/>
      <point x="124" y="247"/>
      <point x="252" y="247" type="curve" smooth="yes"/>
      <point x="350" y="247"/>
      <point x="410" y="285"/>
      <point x="449" y="353" type="curve"/>
      <point x="395" y="392" type="line"/>
      <point x="395" y="372"/>
      <point x="395" y="353"/>
      <point x="395" y="333" type="curve" smooth="yes"/>
      <point x="395" y="225"/>
      <point x="334" y="167"/>
      <point x="239" y="167" type="curve" smooth="yes"/>
      <point x="201.8190249731615" y="167.0"/>
      <point x="166.06617484709406" y="172.71249960308424"/>
      <point x="131.13805102781163" y="191.9816805310718" type="curve"/>
      <point x="120.68727591507628" y="197.7471741924815"/>
      <point x="107.11674554042376" y="194.52074134317556"/>
      <point x="101.65073833642553" y="183.9102567707084" type="curve"/>
      <point x="40.08894893335484" y="64.4079596941594" type="line"/>
      <point x="32.642588257138" y="49.95325955797377"/>
      <point x="37.242684606022095" y="32.0462775540406"/>
      <point x="51.76179692812193" y="24.72630346080762" type="curve"/>
      <point x="103.54990796419136" y="-1.3832563188549512"/>
      <point x="173.04411679803843" y="-16.0"/>
      <point x="244" y="-16" type="curve" smooth="yes"/>
      <point x="475" y="-16"/>
      <point x="632" y="127"/>
      <point x="632" y="372" type="curve" smooth="yes"/>
      <point x="632" y="601"/>
      <point x="496" y="716"/>
    </contour>
    <contour>
      <point x="312" y="553" type="curve" smooth="yes"/>
      <point x="354" y="553"/>
      <point x="384" y="526"/>
      <point x="384" y="482" type="curve" smooth="yes"/>
      <point x="384" y="438"/>
      <point x="354" y="410"/>
      <point x="312" y="410" type="curve" smooth="yes"/>
      <point x="270" y="410"/>
      <point x="240" y="438"/>
      <point x="240" y="482" type="curve" smooth="yes"/>
      <point x="240" y="526"/>
      <point x="270" y="553"/>
    </contour>
  </outline>
</glyph>
<glyph name="less" format="2">
  <advance width="620"/>
  <unicode hex="003C"/>
  <outline>
    <contour>
      <point x="493.08524008625824" y="102.0867266353769" type="line"/>
      <point x="528.0534471045848" y="89.40218095225845"/>
      <point x="565.0" y="115.30224198605964"/>
      <point x="565.0" y="152.5" type="curve"/>
      <point x="565.0" y="204.57895921946132" type="line"/>
      <point x="565.0" y="229.35792409906315"/>
      <point x="549.2584241398088" y="251.40013701033467"/>
      <point x="525.8202450501851" y="259.44058858143876" type="curve"/>
      <point x="119" y="399" type="line"/>
      <point x="119" y="301" type="line"/>
      <point x="525.8202450501851" y="440.55941141856124" type="line"/>
      <point x="549.2584241398088" y="448.5998629896653"/>
      <point x="565.0" y="470.6420759009368"/>
      <point x="565.0" y="495.42104078053865" type="curve"/>
      <point x="565.0" y="547.5" type="line"/>
      <point x="565.0" y="584.6977580139403"/>
      <point x="528.0534471045848" y="610.5978190477416"/>
      <point x="493.08524008625824" y="597.9132733646231" type="curve"/>
      <point x="55" y="439" type="line"/>
      <point x="55" y="261" type="line"/>
    </contour>
  </outline>
</glyph>
<glyph name="equal" format="2">
  <advance width="620"/>
  <unicode hex="003D"/>
  <outline>
    <contour>
      <point x="55.0" y="453.0" type="line"/>
      <point x="55.0" y="420.96748450981397"/>
      <point x="80.96748450981397" y="395.0"/>
      <point x="113.0" y="395.0" type="curve"/>
      <point x="507.0" y="395.0" type="line"/>
      <point x="539.032515490186" y="395.0"/>
      <point x="565.0" y="420.96748450981397"/>
      <point x="565.0" y="453.0" type="curve"/>
      <point x="565.0" y="507.0" type="line"/>
      <point x="565.0" y="539.032515490186"/>
      <point x="539.032515490186" y="565.0"/>
      <point x="507.0" y="565.0" type="curve"/>
      <point x="113.0" y="565.0" type="line"/>
      <point x="80.96748450981397" y="565.0"/>
      <point x="55.0" y="539.032515490186"/>
      <point x="55.0" y="507.0" type="curve"/>
    </contour>
    <contour>
      <point x="55.0" y="193.0" type="line"/>
      <point x="55.0" y="160.96748450981397"/>
      <point x="80.96748450981397" y="135.0"/>
      <point x="113.0" y="135.0" type="curve"/>
      <point x="507.0" y="135.0" type="line"/>
      <point x="539.032515490186" y="135.0"/>
      <point x="565.0" y="160.96748450981397"/>
      <point x="565.0" y="193.0" type="curve"/>
      <point x="565.0" y="247.0" type="line"/>
      <point x="565.0" y="279.03251549018603"/>
      <point x="539.032515490186" y="305.0"/>
      <point x="507.0" y="305.0" type="curve"/>
      <point x="113.0" y="305.0" type="line"/>
      <point x="80.96748450981397" y="305.0"/>
      <point x="55.0" y="279.03251549018603"/>
      <point x="55.0" y="247.0" type="curve"/>
    </contour>
  </outline>
</glyph>
<glyph name="greater" format="2">
  <advance width="620"/>
  <unicode hex="003E"/>
  <outline>
    <contour>
      <point x="55.0" y="152.5" type="line"/>
      <point x="55.0" y="115.30224198605964"/>
      <point x="91.94655289541517" y="89.40218095225845"/>
      <point x="126.91475991374175" y="102.0867266353769" type="curve"/>
      <point x="565" y="261" type="line"/>
      <point x="565" y="439" type="line"/>
      <point x="126.91475991374175" y="597.9132733646231" type="line"/>
      <point x="91.94655289541517" y="610.5978190477416"/>
      <point x="55.0" y="584.6977580139403"/>
      <point x="55.0" y="547.5" type="curve"/>
      <point x="55.0" y="495.42104078053865" type="line"/>
      <point x="55.0" y="470.6420759009368"/>
      <point x="70.74157586019126" y="448.5998629896653"/>
      <point x="94.1797549498149" y="440.55941141856124" type="curve"/>
      <point x="501" y="301" type="line"/>
      <point x="501" y="399" type="line"/>
      <point x="94.1797549498149" y="259.44058858143876" type="line"/>
      <point x="70.74157586019126" y="251.40013701033467"/>
      <point x="55.0" y="229.35792409906315"/>
      <point x="55.0" y="204.57895921946132" type="curve"/>
    </contour>
  </outline>
</glyph>
<glyph name="question" format="2">
  <advance width="606"/>
  <unicode hex="003F"/>
  <outline>
    <contour>
      <point x="216.44322629922175" y="321.6248820703325" type="curve"/>
      <point x="205.96045717805643" y="293.43922970028586"/>
      <point x="231.37809537171327" y="268.0"/>
      <point x="261.45" y="268.0" type="curve"/>
      <point x="378.35" y="268.0" type="line"/>
      <point x="397.486666581637" y="268.0"/>
      <point x="413.1263439012516" y="284.9249491704472"/>
      <point x="423.45452779154357" y="301.035213767438" type="curve"/>
      <point x="459.00080692131996" y="356.4815505389455"/>
      <point x="573.0" y="395.8535929947425"/>
      <point x="573" y="525" type="curve" smooth="yes"/>
      <point x="573" y="650"/>
      <point x="456" y="716"/>
      <point x="299" y="716" type="curve" smooth="yes"/>
      <point x="163.06525983511528" y="716.0"/>
      <point x="69.717119726402" y="668.360752479537"/>
      <point x="13.436407457941314" y="595.1589463022864" type="curve"/>
      <point x="-2.9102161677927327" y="573.8976237981286"/>
      <point x="6.765735530807248" y="544.1171322345964"/>
      <point x="30.753331301742037" y="532.123334349129" type="curve"/>
      <point x="146.1" y="474.45" type="line"/>
      <point x="156.538181771802" y="469.230909114099"/>
      <point x="169.10391202706887" y="473.6156767797826"/>
      <point x="175.9031696128493" y="483.10064618714927" type="curve"/>
      <point x="198.29712868596297" y="514.3402358097749"/>
      <point x="232.5720394858531" y="533.0"/>
      <point x="269" y="533" type="curve" smooth="yes"/>
      <point x="306" y="533"/>
      <point x="336" y="517"/>
      <point x="336" y="486" type="curve" smooth="yes"/>
      <point x="336.0" y="435.1027655195171"/>
      <point x="246.19129974974413" y="401.61031790923886"/>
    </contour>
    <contour>
      <point x="310" y="-10" type="curve" smooth="yes"/>
      <point x="388" y="-10"/>
      <point x="442" y="44"/>
      <point x="442" y="110" type="curve" smooth="yes"/>
      <point x="442" y="177"/>
      <point x="388" y="228"/>
      <point x="310" y="228" type="curve" smooth="yes"/>
      <point x="232" y="228"/>
      <point x="178" y="177"/>
      <point x="178" y="110" type="curve" smooth="yes"/>
      <point x="178" y="44"/>
      <point x="232" y="-10"/>
    </contour>
  </outline>
</glyph>
<glyph name="at" format="2">
  <advance width="1037"/>
  <unicode hex="0040"/>
  <outline>
    <contour>
      <point x="523" y="-210" type="curve" smooth="yes"/>
      <point x="599.3464174039204" y="-210.0"/>
      <point x="680.1080163130147" y="-196.01859190028287"/>
      <point x="739.4038699586856" y="-173.73695474761388" type="curve"/>
      <point x="755.4281237486464" y="-167.71551165103992"/>
      <point x="762.8410989756238" y="-149.8203612857555"/>
      <point x="757.3094416766625" y="-133.62050776736848" type="curve"/>
      <point x="735.8672586026327" y="-70.82554305056719" type="line"/>
      <point x="730.0469233735711" y="-53.78027559402963"/>
      <point x="710.8047900840954" y="-45.56593583173037"/>
      <point x="693.9525212523212" y="-51.92348882523067" type="curve"/>
      <point x="636.3433241054646" y="-73.65667664879491"/>
      <point x="578.9529448718704" y="-83.0"/>
      <point x="523" y="-83" type="curve" smooth="yes"/>
      <point x="319" y="-83"/>
      <point x="184" y="57"/>
      <point x="184" y="253" type="curve" smooth="yes"/>
      <point x="184" y="443"/>
      <point x="322" y="587"/>
      <point x="527" y="587" type="curve" smooth="yes"/>
      <point x="733" y="587"/>
      <point x="868" y="459"/>
      <point x="868" y="278" type="curve" smooth="yes"/>
      <point x="868" y="166"/>
      <point x="845" y="138"/>
      <point x="817" y="138" type="curve" smooth="yes"/>
      <point x="795" y="138"/>
      <point x="778" y="151"/>
      <point x="778" y="193" type="curve" smooth="yes"/>
      <point x="778" y="479" type="line"/>
      <point x="586" y="479" type="line"/>
      <point x="586" y="424" type="line"/>
      <point x="595" y="245" type="line"/>
      <point x="595" y="198" type="line"/>
      <point x="595" y="177" type="line" smooth="yes"/>
      <point x="595" y="54"/>
      <point x="663" y="-9"/>
      <point x="773" y="-9" type="curve" smooth="yes"/>
      <point x="901" y="-9"/>
      <point x="1008" y="90"/>
      <point x="1008" y="281" type="curve" smooth="yes"/>
      <point x="1008" y="521"/>
      <point x="815" y="714"/>
      <point x="527" y="714" type="curve" smooth="yes"/>
      <point x="222" y="714"/>
      <point x="29" y="511"/>
      <point x="29" y="253" type="curve" smooth="yes"/>
      <point x="29" y="-9"/>
      <point x="222" y="-210"/>
    </contour>
    <contour>
      <point x="463" y="-9" type="curve" smooth="yes"/>
      <point x="598" y="-9"/>
      <point x="645" y="91"/>
      <point x="645" y="240" type="curve" smooth="yes"/>
      <point x="645" y="389"/>
      <point x="590" y="488"/>
      <point x="463" y="488" type="curve" smooth="yes"/>
      <point x="352" y="488"/>
      <point x="251" y="394"/>
      <point x="251" y="240" type="curve" smooth="yes"/>
      <point x="251" y="86"/>
      <point x="355" y="-9"/>
    </contour>
    <contour>
      <point x="518" y="148" type="curve" smooth="yes"/>
      <point x="477" y="148"/>
      <point x="447" y="179"/>
      <point x="447" y="240" type="curve" smooth="yes"/>
      <point x="447" y="300"/>
      <point x="477" y="331"/>
      <point x="518" y="331" type="curve" smooth="yes"/>
      <point x="559" y="331"/>
      <point x="590" y="300"/>
      <point x="590" y="240" type="curve" smooth="yes"/>
      <point x="590" y="179"/>
      <point x="559" y="148"/>
    </contour>
  </outline>
</glyph>
<glyph name="A" format="2">
  <advance width="806"/>
  <unicode hex="0041"/>
  <guideline x="234" y="56" angle="245.556"/>
  <anchor x="403" y="0" name="bottom"/>
  <anchor x="825" y="0" name="ogonek"/>
  <anchor x="403" y="700" name="top"/>
  <anchor x="121" y="701" name="topleft"/>
  <outline>
    <contour>
      <point x="16.509796467453363" y="81.23156054646195" type="line"/>
      <point x="-0.24067849029440325" y="42.913480577757895"/>
      <point x="27.834591476835875" y="0.0"/>
      <point x="69.65388922079774" y="0.0" type="curve"/>
      <point x="181.15592300215368" y="0.0" type="line"/>
      <point x="205.1595157068825" y="0.0"/>
      <point x="226.68303221566816" y="14.785942224835724"/>
      <point x="235.2947127747039" y="37.19155359082252" type="curve"/>
      <point x="432.1470744596561" y="549.3561052313175" type="line"/>
      <point x="439.3066662745112" y="567.9837157938609"/>
      <point x="425.55614266899084" y="588.0"/>
      <point x="405.6" y="588.0" type="curve"/>
      <point x="396.4" y="588.0" type="line"/>
      <point x="376.44385733100916" y="588.0"/>
      <point x="362.6933337254888" y="567.9837157938609"/>
      <point x="369.8529255403439" y="549.3561052313175" type="curve"/>
      <point x="566.7052872252962" y="37.19155359082252" type="line"/>
      <point x="575.3169677843318" y="14.785942224835724"/>
      <point x="596.8404842931175" y="0.0"/>
      <point x="620.8440769978463" y="0.0" type="curve"/>
      <point x="736.3461107792023" y="0.0" type="line"/>
      <point x="778.1654085231642" y="0.0"/>
      <point x="806.2406784902944" y="42.913480577757895"/>
      <point x="789.4902035325466" y="81.23156054646195" type="curve"/>
      <point x="534.198774961118" y="665.231560546462" type="line"/>
      <point x="524.9663984080735" y="686.3513761906814"/>
      <point x="504.1042676631138" y="700.0"/>
      <point x="481.0546822077737" y="700.0" type="curve"/>
      <point x="324.9453177922263" y="700.0" type="line"/>
      <point x="301.8957323368862" y="700.0"/>
      <point x="281.03360159192647" y="686.3513761906814"/>
      <point x="271.80122503888197" y="665.231560546462" type="curve"/>
    </contour>
    <contour>
      <point x="190.0" y="198.5" type="line"/>
      <point x="176.81987104860647" y="161.15630130438504"/>
      <point x="204.52354473837582" y="122.0"/>
      <point x="244.12490369793977" y="122.0" type="curve"/>
      <point x="523.8750963020602" y="122.0" type="line"/>
      <point x="563.4764552616242" y="122.0"/>
      <point x="591.1801289513935" y="161.15630130438504"/>
      <point x="578.0" y="198.5" type="curve"/>
      <point x="558.6575646487161" y="253.303566828638" type="line"/>
      <point x="550.4731850639643" y="276.49264231876805"/>
      <point x="528.5551255098111" y="292.0"/>
      <point x="503.96412530090845" y="292.0" type="curve"/>
      <point x="264.03587469909155" y="292.0" type="line"/>
      <point x="239.4448744901889" y="292.0"/>
      <point x="217.52681493603578" y="276.49264231876805"/>
      <point x="209.342435351284" y="253.303566828638" type="curve"/>
    </contour>
  </outline>
</glyph>
<glyph name="B" format="2">
  <advance width="773"/>
  <unicode hex="0042"/>
  <anchor x="382" y="0" name="bottom"/>
  <anchor x="382" y="700" name="top"/>
  <outline>
    <contour>
      <point x="57.0" y="57.99999999999999" type="line"/>
      <point x="57.0" y="25.96748450981397"/>
      <point x="82.96748450981397" y="0.0"/>
      <point x="115.0" y="0.0" type="curve"/>
      <point x="451" y="0" type="line" smooth="yes"/>
      <point x="644" y="0"/>
      <point x="747" y="71"/>
      <point x="747" y="193" type="curve" smooth="yes"/>
      <point x="747" y="315"/>
      <point x="644" y="387"/>
      <point x="481" y="387" type="curve"/>
      <point x="461" y="333" type="line"/>
      <point x="624" y="333"/>
      <point x="714" y="411"/>
      <point x="714" y="517" type="curve" smooth="yes"/>
      <point x="714" y="623"/>
      <point x="624" y="700"/>
      <point x="431" y="700" type="curve" smooth="yes"/>
      <point x="115.0" y="700.0" type="line"/>
      <point x="82.96748450981397" y="700.0"/>
      <point x="57.0" y="674.032515490186"/>
      <point x="57.0" y="642.0" type="curve"/>
    </contour>
    <contour>
      <point x="347.0" y="165.0" type="line"/>
      <point x="314.96748450981397" y="165.0"/>
      <point x="289.0" y="190.96748450981397"/>
      <point x="289.0" y="223.0" type="curve"/>
      <point x="289.0" y="485.5" type="line"/>
      <point x="289.0" y="512.8380951166242"/>
      <point x="311.1619048833757" y="535.0"/>
      <point x="338.5" y="535.0" type="curve"/>
      <point x="399" y="535" type="line" smooth="yes"/>
      <point x="452" y="535"/>
      <point x="476" y="517"/>
      <point x="476" y="483" type="curve" smooth="yes"/>
      <point x="476" y="449"/>
      <point x="452" y="431"/>
      <point x="399" y="431" type="curve" smooth="yes"/>
      <point x="329.7" y="431.0" type="line"/>
      <point x="298.385454684594" y="431.0"/>
      <point x="273.0" y="405.614545315406"/>
      <point x="273.0" y="374.3" type="curve"/>
      <point x="273.0" y="333.0" type="line"/>
      <point x="273.0" y="300.96748450981397"/>
      <point x="298.96748450981397" y="275.0"/>
      <point x="331.0" y="275.0" type="curve"/>
      <point x="431" y="275" type="line" smooth="yes"/>
      <point x="483" y="275"/>
      <point x="509" y="256"/>
      <point x="509" y="220" type="curve" smooth="yes"/>
      <point x="509" y="184"/>
      <point x="483" y="165"/>
      <point x="431" y="165" type="curve" smooth="yes"/>
    </contour>
  </outline>
</glyph>
<glyph name="C" format="2">
  <advance width="744"/>
  <unicode hex="0043"/>
  <anchor x="392" y="0" name="bottom"/>
  <anchor x="418" y="701" name="top"/>
  <outline>
    <contour>
      <point x="419" y="-16" type="curve" smooth="yes"/>
      <point x="535.265464360547" y="-16.0"/>
      <point x="630.644781995843" y="20.010597802156788"/>
      <point x="699.0258523579047" y="85.91969285848694" type="curve"/>
      <point x="719.7475884264923" y="105.89233828572864"/>
      <point x="716.3988894047192" y="138.8184410011567"/>
      <point x="694.9281366366528" y="157.98360957936364" type="curve"/>
      <point x="606.2306193743304" y="237.15656122962446" type="line"/>
      <point x="594.1787609628223" y="247.9142603486217"/>
      <point x="575.6679913854109" y="246.13338184732848"/>
      <point x="564.4278575561782" y="234.53015932051065" type="curve"/>
      <point x="527.5454400666988" y="196.45633351387943"/>
      <point x="484.2791978532546" y="175.0"/>
      <point x="431" y="175" type="curve" smooth="yes"/>
      <point x="333" y="175"/>
      <point x="267" y="243"/>
      <point x="267" y="350" type="curve" smooth="yes"/>
      <point x="267" y="457"/>
      <point x="333" y="525"/>
      <point x="431" y="525" type="curve" smooth="yes"/>
      <point x="484.2791978532546" y="525.0"/>
      <point x="527.5454400666988" y="503.54366648612057"/>
      <point x="564.4278575561782" y="465.4698406794894" type="curve"/>
      <point x="575.6679913854109" y="453.86661815267155"/>
      <point x="594.1787609628223" y="452.08573965137833"/>
      <point x="606.2306193743304" y="462.84343877037554" type="curve"/>
      <point x="694.9281366366528" y="542.0163904206363" type="line"/>
      <point x="716.3988894047192" y="561.1815589988432"/>
      <point x="719.7475884264923" y="594.1076617142714"/>
      <point x="699.0258523579047" y="614.0803071415131" type="curve"/>
      <point x="630.644781995843" y="679.9894021978432"/>
      <point x="535.265464360547" y="716.0"/>
      <point x="419" y="716" type="curve" smooth="yes"/>
      <point x="194" y="716"/>
      <point x="29" y="565"/>
      <point x="29" y="350" type="curve" smooth="yes"/>
      <point x="29" y="135"/>
      <point x="194" y="-16"/>
    </contour>
  </outline>
</glyph>
<glyph name="D" format="2">
  <advance width="826"/>
  <unicode hex="0044"/>
  <anchor x="361" y="0" name="bottom"/>
  <anchor x="206" y="355" name="center"/>
  <anchor x="359" y="700" name="top"/>
  <outline>
    <contour>
      <point x="57.0" y="57.99999999999999" type="line"/>
      <point x="57.0" y="25.96748450981397"/>
      <point x="82.96748450981397" y="0.0"/>
      <point x="115.0" y="0.0" type="curve"/>
      <point x="402" y="0" type="line" smooth="yes"/>
      <point x="636" y="0"/>
      <point x="797" y="133"/>
      <point x="797" y="350" type="curve" smooth="yes"/>
      <point x="797" y="567"/>
      <point x="636" y="700"/>
      <point x="402" y="700" type="curve" smooth="yes"/>
      <point x="115.0" y="700.0" type="line"/>
      <point x="82.96748450981397" y="700.0"/>
      <point x="57.0" y="674.032515490186"/>
      <point x="57.0" y="642.0" type="curve"/>
    </contour>
    <contour>
      <point x="337.55" y="184.0" type="line"/>
      <point x="312.9457143950381" y="184.0"/>
      <point x="293.0" y="203.94571439503815"/>
      <point x="293.0" y="228.55" type="curve"/>
      <point x="293.0" y="471.45" type="line"/>
      <point x="293.0" y="496.0542856049619"/>
      <point x="312.9457143950381" y="516.0"/>
      <point x="337.55" y="516.0" type="curve"/>
      <point x="392" y="516" type="line" smooth="yes"/>
      <point x="491" y="516"/>
      <point x="559" y="457"/>
      <point x="559" y="350" type="curve" smooth="yes"/>
      <point x="559" y="243"/>
      <point x="491" y="184"/>
      <point x="392" y="184" type="curve" smooth="yes"/>
    </contour>
  </outline>
</glyph>
<glyph name="E" format="2">
  <advance width="673"/>
  <unicode hex="0045"/>
  <anchor x="342" y="0" name="bottom"/>
  <anchor x="639" y="0" name="ogonek"/>
  <anchor x="342" y="700" name="top"/>
  <anchor x="-9" y="700" name="topleft"/>
  <outline>
    <contour>
      <point x="331.0" y="440.0" type="line"/>
      <point x="298.96748450981397" y="440.0"/>
      <point x="273.0" y="414.03251549018603"/>
      <point x="273.0" y="382.0" type="curve"/>
      <point x="273.0" y="328.0" type="line"/>
      <point x="273.0" y="295.96748450981397"/>
      <point x="298.96748450981397" y="270.0"/>
      <point x="331.0" y="270.0" type="curve"/>
      <point x="527.0" y="270.0" type="line"/>
      <point x="559.032515490186" y="270.0"/>
      <point x="585.0" y="295.96748450981397"/>
      <point x="585.0" y="328.0" type="curve"/>
      <point x="585.0" y="382.0" type="line"/>
      <point x="585.0" y="414.03251549018603"/>
      <point x="559.032515490186" y="440.0"/>
      <point x="527.0" y="440.0" type="curve"/>
    </contour>
    <contour>
      <point x="347.0" y="178.0" type="line"/>
      <point x="314.96748450981397" y="178.0"/>
      <point x="289.0" y="203.96748450981397"/>
      <point x="289.0" y="236.0" type="curve"/>
      <point x="289.0" y="464.0" type="line"/>
      <point x="289.0" y="496.03251549018603"/>
      <point x="314.96748450981397" y="522.0"/>
      <point x="347.0" y="522.0" type="curve"/>
      <point x="568.0" y="522.0" type="line"/>
      <point x="600.032515490186" y="522.0"/>
      <point x="626.0" y="547.967484509814"/>
      <point x="626.0" y="580.0" type="curve"/>
      <point x="626.0" y="642.0" type="line"/>
      <point x="626.0" y="674.032515490186"/>
      <point x="600.032515490186" y="700.0"/>
      <point x="568.0" y="700.0" type="curve"/>
      <point x="115.0" y="700.0" type="line"/>
      <point x="82.96748450981397" y="700.0"/>
      <point x="57.0" y="674.032515490186"/>
      <point x="57.0" y="642.0" type="curve"/>
      <point x="57.0" y="57.99999999999999" type="line"/>
      <point x="57.0" y="25.96748450981397"/>
      <point x="82.96748450981397" y="0.0"/>
      <point x="115.0" y="0.0" type="curve"/>
      <point x="581.0" y="0.0" type="line"/>
      <point x="613.032515490186" y="0.0"/>
      <point x="639.0" y="25.96748450981397"/>
      <point x="639.0" y="57.99999999999999" type="curve"/>
      <point x="639.0" y="120.0" type="line"/>
      <point x="639.0" y="152.03251549018603"/>
      <point x="613.032515490186" y="178.0"/>
      <point x="581.0" y="178.0" type="curve"/>
    </contour>
  </outline>
</glyph>
<glyph name="F" format="2">
  <advance width="644"/>
  <unicode hex="0046"/>
  <outline>
    <contour>
      <point x="335.0" y="402.0" type="line"/>
      <point x="302.96748450981397" y="402.0"/>
      <point x="277.0" y="376.03251549018603"/>
      <point x="277.0" y="344.0" type="curve"/>
      <point x="277.0" y="282.0" type="line"/>
      <point x="277.0" y="249.96748450981397"/>
      <point x="302.96748450981397" y="224.0"/>
      <point x="335.0" y="224.0" type="curve"/>
      <point x="527.0" y="224.0" type="line"/>
      <point x="559.032515490186" y="224.0"/>
      <point x="585.0" y="249.96748450981397"/>
      <point x="585.0" y="282.0" type="curve"/>
      <point x="585.0" y="344.0" type="line"/>
      <point x="585.0" y="376.03251549018603"/>
      <point x="559.032515490186" y="402.0"/>
      <point x="527.0" y="402.0" type="curve"/>
    </contour>
    <contour>
      <point x="235.0" y="0.0" type="line"/>
      <point x="267.03251549018603" y="0.0"/>
      <point x="293.0" y="25.96748450981397"/>
      <point x="293.0" y="57.99999999999999" type="curve"/>
      <point x="293.0" y="464.0" type="line"/>
      <point x="293.0" y="496.03251549018603"/>
      <point x="318.96748450981397" y="522.0"/>
      <point x="351.0" y="522.0" type="curve"/>
      <point x="568.0" y="522.0" type="line"/>
      <point x="600.032515490186" y="522.0"/>
      <point x="626.0" y="547.967484509814"/>
      <point x="626.0" y="580.0" type="curve"/>
      <point x="626.0" y="642.0" type="line"/>
      <point x="626.0" y="674.032515490186"/>
      <point x="600.032515490186" y="700.0"/>
      <point x="568.0" y="700.0" type="curve"/>
      <point x="115.0" y="700.0" type="line"/>
      <point x="82.96748450981397" y="700.0"/>
      <point x="57.0" y="674.032515490186"/>
      <point x="57.0" y="642.0" type="curve"/>
      <point x="57.0" y="57.99999999999999" type="line"/>
      <point x="57.0" y="25.96748450981397"/>
      <point x="82.96748450981397" y="0.0"/>
      <point x="115.0" y="0.0" type="curve"/>
    </contour>
  </outline>
</glyph>
<glyph name="G" format="2">
  <advance width="769"/>
  <unicode hex="0047"/>
  <guideline x="425" y="328" angle="90"/>
  <anchor x="410" y="0" name="bottom"/>
  <anchor x="424" y="701" name="top"/>
  <outline>
    <contour>
      <point x="420" y="-16" type="curve" smooth="yes"/>
      <point x="523" y="-16"/>
      <point x="640" y="15"/>
      <point x="725" y="73" type="curve"/>
      <point x="593" y="235" type="line"/>
      <point x="536" y="191"/>
      <point x="487" y="175"/>
      <point x="434" y="175" type="curve" smooth="yes"/>
      <point x="333" y="175"/>
      <point x="267" y="245"/>
      <point x="267" y="350" type="curve" smooth="yes"/>
      <point x="267" y="458"/>
      <point x="333" y="525"/>
      <point x="437" y="525" type="curve" smooth="yes"/>
      <point x="489.3976297555173" y="525.0"/>
      <point x="533.9386966484021" y="506.42994232468703"/>
      <point x="573.0376597521278" y="469.8934417424294" type="curve"/>
      <point x="585.2318500631144" y="458.49843261608584"/>
      <point x="604.2215237644613" y="457.0030639779692"/>
      <point x="616.7457343317693" y="468.0343222922207" type="curve"/>
      <point x="707.0795819988352" y="547.599896727451" type="line"/>
      <point x="728.2493146693035" y="566.2460851060754"/>
      <point x="731.1117985847752" y="598.703009112163"/>
      <point x="710.2124386014307" y="617.6517471882678" type="curve"/>
      <point x="639.9242844568954" y="681.3796232475872"/>
      <point x="542.1991231900638" y="716.0"/>
      <point x="425" y="716" type="curve" smooth="yes"/>
      <point x="194" y="716"/>
      <point x="29" y="565"/>
      <point x="29" y="350" type="curve" smooth="yes"/>
      <point x="29" y="135"/>
      <point x="194" y="-16"/>
    </contour>
    <contour>
      <point x="520" y="103" type="line"/>
      <point x="725" y="73" type="line"/>
      <point x="725.0" y="311.0" type="line"/>
      <point x="725.0" y="343.03251549018603"/>
      <point x="699.032515490186" y="369.0"/>
      <point x="667.0" y="369.0" type="curve"/>
      <point x="578.0" y="369.0" type="line"/>
      <point x="545.967484509814" y="369.0"/>
      <point x="520.0" y="343.03251549018603"/>
      <point x="520.0" y="311.0" type="curve"/>
    </contour>
  </outline>
</glyph>
<glyph name="H" format="2">
  <advance width="804"/>
  <unicode hex="0048"/>
  <anchor x="402" y="0" name="bottom"/>
  <anchor x="402" y="576" name="center"/>
  <anchor x="402" y="700" name="top"/>
  <outline>
    <contour>
      <point x="569.0" y="700.0" type="line"/>
      <point x="536.967484509814" y="700.0"/>
      <point x="511.0" y="674.032515490186"/>
      <point x="511.0" y="642.0" type="curve"/>
      <point x="511.0" y="57.99999999999999" type="line"/>
      <point x="511.0" y="25.96748450981397"/>
      <point x="536.967484509814" y="0.0"/>
      <point x="569.0" y="0.0" type="curve"/>
      <point x="689.0" y="0.0" type="line"/>
      <point x="721.032515490186" y="0.0"/>
      <point x="747.0" y="25.96748450981397"/>
      <point x="747.0" y="57.99999999999999" type="curve"/>
      <point x="747.0" y="642.0" type="line"/>
      <point x="747.0" y="674.032515490186"/>
      <point x="721.032515490186" y="700.0"/>
      <point x="689.0" y="700.0" type="curve"/>
    </contour>
    <contour>
      <point x="235.0" y="0.0" type="line"/>
      <point x="267.03251549018603" y="0.0"/>
      <point x="293.0" y="25.96748450981397"/>
      <point x="293.0" y="57.99999999999999" type="curve"/>
      <point x="293.0" y="642.0" type="line"/>
      <point x="293.0" y="674.032515490186"/>
      <point x="267.03251549018603" y="700.0"/>
      <point x="235.0" y="700.0" type="curve"/>
      <point x="115.0" y="700.0" type="line"/>
      <point x="82.96748450981397" y="700.0"/>
      <point x="57.0" y="674.032515490186"/>
      <point x="57.0" y="642.0" type="curve"/>
      <point x="57.0" y="57.99999999999999" type="line"/>
      <point x="57.0" y="25.96748450981397"/>
      <point x="82.96748450981397" y="0.0"/>
      <point x="115.0" y="0.0" type="curve"/>
    </contour>
    <contour>
      <point x="527" y="258" type="line"/>
      <point x="527" y="452" type="line"/>
      <point x="277" y="452" type="line"/>
      <point x="277" y="258" type="line"/>
    </contour>
  </outline>
</glyph>
<glyph name="I" format="2">
  <advance width="350"/>
  <unicode hex="0049"/>
  <anchor x="175" y="0" name="bottom"/>
  <anchor x="293" y="0" name="ogonek"/>
  <anchor x="175" y="700" name="top"/>
  <anchor x="-9" y="700" name="topleft"/>
  <outline>
    <contour>
      <point x="57.0" y="57.99999999999999" type="line"/>
      <point x="57.0" y="25.96748450981397"/>
      <point x="82.96748450981397" y="0.0"/>
      <point x="115.0" y="0.0" type="curve"/>
      <point x="235.0" y="0.0" type="line"/>
      <point x="267.03251549018603" y="0.0"/>
      <point x="293.0" y="25.96748450981397"/>
      <point x="293.0" y="57.99999999999999" type="curve"/>
      <point x="293.0" y="642.0" type="line"/>
      <point x="293.0" y="674.032515490186"/>
      <point x="267.03251549018603" y="700.0"/>
      <point x="235.0" y="700.0" type="curve"/>
      <point x="115.0" y="700.0" type="line"/>
      <point x="82.96748450981397" y="700.0"/>
      <point x="57.0" y="674.032515490186"/>
      <point x="57.0" y="642.0" type="curve"/>
    </contour>
  </outline>
</glyph>
<glyph name="J" format="2">
  <advance width="574"/>
  <unicode hex="004A"/>
  <anchor x="288" y="700" name="top"/>
  <outline>
    <contour>
      <point x="234" y="-16" type="curve" smooth="yes"/>
      <point x="422" y="-16"/>
      <point x="523" y="78"/>
      <point x="523" y="270" type="curve" smooth="yes"/>
      <point x="523.0" y="642.0" type="line"/>
      <point x="523.0" y="674.032515490186"/>
      <point x="497.03251549018603" y="700.0"/>
      <point x="465.0" y="700.0" type="curve"/>
      <point x="110.0" y="700.0" type="line"/>
      <point x="77.96748450981397" y="700.0"/>
      <point x="52.0" y="674.032515490186"/>
      <point x="52.0" y="642.0" type="curve"/>
      <point x="52.0" y="580.0" type="line"/>
      <point x="52.0" y="547.967484509814"/>
      <point x="77.96748450981397" y="522.0"/>
      <point x="110.0" y="522.0" type="curve"/>
      <point x="232.0" y="522.0" type="line"/>
      <point x="264.03251549018603" y="522.0"/>
      <point x="290.0" y="496.03251549018603"/>
      <point x="290.0" y="464.0" type="curve"/>
      <point x="290" y="256" type="line" smooth="yes"/>
      <point x="290" y="199"/>
      <point x="263" y="169"/>
      <point x="214" y="169" type="curve" smooth="yes"/>
      <point x="181.15865584725861" y="169.0"/>
      <point x="151.15374531912946" y="185.30949334152032"/>
      <point x="120.40248792206262" y="217.92848002456097" type="curve"/>
      <point x="110.95219677726035" y="227.95275048032988"/>
      <point x="94.73633779693407" y="228.23976905149692"/>
      <point x="85.83432470576149" y="217.72558036113563" type="curve"/>
      <point x="1.988339409032445" y="118.69488906578636" type="line"/>
      <point x="-12.997157341134802" y="100.9954834553526"/>
      <point x="-13.19307845327954" y="74.6368060568204"/>
      <point x="4.370694000339828" y="59.49256725094413" type="curve"/>
      <point x="61.791728386862125" y="9.981685717590594"/>
      <point x="141.40044276403341" y="-16.0"/>
    </contour>
  </outline>
</glyph>
<glyph name="K" format="2">
  <advance width="765"/>
  <unicode hex="004B"/>
  <guideline x="625" y="544" angle="48.4917"/>
  <anchor x="384" y="0" name="bottom"/>
  <anchor x="384" y="700" name="top"/>
  <outline>
    <contour>
      <point x="268" y="150" type="line"/>
      <point x="349" y="240" type="line"/>
      <point x="480" y="374" type="line"/>
      <point x="698.2576967957132" y="614.3784093087921" type="line"/>
      <point x="728.1285294530073" y="647.2766912218931"/>
      <point x="704.7860618920482" y="700.0"/>
      <point x="660.35" y="700.0" type="curve"/>
      <point x="544.6930804246199" y="700.0" type="line"/>
      <point x="528.3311244619916" y="700.0"/>
      <point x="512.7303021669705" y="693.0890830704108"/>
      <point x="501.73650176693616" y="680.9709167203729" type="curve"/>
      <point x="255" y="409" type="line"/>
    </contour>
    <contour>
      <point x="57.0" y="57.99999999999999" type="line"/>
      <point x="57.0" y="25.96748450981397"/>
      <point x="82.96748450981397" y="0.0"/>
      <point x="115.0" y="0.0" type="curve"/>
      <point x="231.0" y="0.0" type="line"/>
      <point x="263.03251549018603" y="0.0"/>
      <point x="289.0" y="25.96748450981397"/>
      <point x="289.0" y="57.99999999999999" type="curve"/>
      <point x="289.0" y="642.0" type="line"/>
      <point x="289.0" y="674.032515490186"/>
      <point x="263.03251549018603" y="700.0"/>
      <point x="231.0" y="700.0" type="curve"/>
      <point x="115.0" y="700.0" type="line"/>
      <point x="82.96748450981397" y="700.0"/>
      <point x="57.0" y="674.032515490186"/>
      <point x="57.0" y="642.0" type="curve"/>
    </contour>
    <contour>
      <point x="499.5939088122256" y="22.982800014925402" type="line"/>
      <point x="510.5580585592846" y="8.505864426575702"/>
      <point x="527.6699737192222" y="0.0"/>
      <point x="545.8302117051396" y="0.0" type="curve"/>
      <point x="673.8930678611357" y="0.0" type="line"/>
      <point x="721.7073875901087" y="0.0"/>
      <point x="748.9841827550612" y="54.603879399703914"/>
      <point x="720.2674104646137" y="92.83418361459405" type="curve"/>
      <point x="464" y="434" type="line"/>
      <point x="311" y="272" type="line"/>
    </contour>
  </outline>
</glyph>
<glyph name="L" format="2">
  <advance width="617"/>
  <unicode hex="004C"/>
  <guideline x="581" y="193" angle="90"/>
  <anchor x="345" y="0" name="bottom"/>
  <anchor x="175" y="400" name="center"/>
  <anchor x="484" y="441" name="dot"/>
  <anchor x="175" y="700" name="top"/>
  <anchor x="423" y="700" name="topright"/>
  <outline>
    <contour>
      <point x="57.0" y="57.99999999999999" type="line"/>
      <point x="57.0" y="25.96748450981397"/>
      <point x="82.96748450981397" y="0.0"/>
      <point x="115.0" y="0.0" type="curve"/>
      <point x="551.0" y="0.0" type="line"/>
      <point x="583.032515490186" y="0.0"/>
      <point x="609.0" y="25.96748450981397"/>
      <point x="609.0" y="57.99999999999999" type="curve"/>
      <point x="609.0" y="125.0" type="line"/>
      <point x="609.0" y="157.03251549018603"/>
      <point x="583.032515490186" y="183.0"/>
      <point x="551.0" y="183.0" type="curve"/>
      <point x="351.0" y="183.0" type="line"/>
      <point x="318.96748450981397" y="183.0"/>
      <point x="293.0" y="208.96748450981397"/>
      <point x="293.0" y="241.0" type="curve"/>
      <point x="293.0" y="642.0" type="line"/>
      <point x="293.0" y="674.032515490186"/>
      <point x="267.03251549018603" y="700.0"/>
      <point x="235.0" y="700.0" type="curve"/>
      <point x="115.0" y="700.0" type="line"/>
      <point x="82.96748450981397" y="700.0"/>
      <point x="57.0" y="674.032515490186"/>
      <point x="57.0" y="642.0" type="curve"/>
    </contour>
  </outline>
</glyph>
<glyph name="M" format="2">
  <advance width="954"/>
  <unicode hex="004D"/>
  <anchor x="476" y="0" name="bottom"/>
  <anchor x="476" y="700" name="top"/>
  <outline>
    <contour>
      <point x="57.0" y="57.99999999999999" type="line"/>
      <point x="57.0" y="25.96748450981397"/>
      <point x="82.96748450981397" y="0.0"/>
      <point x="115.0" y="0.0" type="curve"/>
      <point x="214.0" y="0.0" type="line"/>
      <point x="246.03251549018603" y="0.0"/>
      <point x="272.0" y="25.96748450981397"/>
      <point x="272.0" y="57.99999999999999" type="curve"/>
      <point x="272.0" y="357.1" type="line"/>
      <point x="272.0" y="367.538181771802"/>
      <point x="263.538181771802" y="376.0"/>
      <point x="253.1" y="376.0" type="curve"/>
      <point x="248.9" y="376.0" type="line"/>
      <point x="240.6536661297486" y="376.0"/>
      <point x="235.61258538342582" y="366.9446431700398"/>
      <point x="239.95693524227715" y="359.93546015034667" type="curve"/>
      <point x="406.9897789519587" y="90.44432571153048" type="line"/>
      <point x="417.5657432149129" y="73.38104316356834"/>
      <point x="436.2133417843074" y="63.0"/>
      <point x="456.2883668503658" y="63.0" type="curve"/>
      <point x="494.9984136190675" y="63.0" type="line"/>
      <point x="515.4593308693796" y="63.0"/>
      <point x="534.4064761816159" y="73.78079056368696"/>
      <point x="544.8590587075416" y="91.37035148097064" type="curve"/>
      <point x="706.1839030630837" y="362.8471056921784" type="line"/>
      <point x="709.6323524202212" y="368.6501414383291"/>
      <point x="705.4503353131415" y="376.0"/>
      <point x="698.7" y="376.0" type="curve"/>
      <point x="695.3" y="376.0" type="line"/>
      <point x="686.8632397983704" y="376.0"/>
      <point x="680.0365060782362" y="369.1368572915765"/>
      <point x="680.0813818274495" y="360.7002164394995" type="curve"/>
      <point x="681.6931303525213" y="57.691493726008545" type="line"/>
      <point x="681.8628731745505" y="25.779843184499555"/>
      <point x="707.7802078809239" y="0.0"/>
      <point x="739.6923098629152" y="0.0" type="curve"/>
      <point x="838.834048980075" y="0.0" type="line"/>
      <point x="870.9312989119582" y="0.0"/>
      <point x="896.9255183008976" y="26.068594685831666"/>
      <point x="896.8338122468305" y="58.16571360933356" type="curve"/>
      <point x="895.165240818259" y="642.1657136093336" type="line"/>
      <point x="895.0739045643661" y="674.1334024718465"/>
      <point x="869.1332968941128" y="700.0"/>
      <point x="837.1654775515035" y="700.0" type="curve"/>
      <point x="733.9750253581706" y="700.0" type="line"/>
      <point x="713.5284233012605" y="700.0"/>
      <point x="694.5923278543454" y="689.2341684905731"/>
      <point x="684.1348968334632" y="671.6641465179878" type="curve"/>
      <point x="452.47559181337306" y="282.4424465393805" type="line"/>
      <point x="442.122414198897" y="265.04758562094094"/>
      <point x="454.6572365253964" y="243.0"/>
      <point x="474.9" y="243.0" type="curve"/>
      <point x="485.1" y="243.0" type="line"/>
      <point x="505.1890895394255" y="243.0"/>
      <point x="517.5155855333031" y="265.00849075457313"/>
      <point x="507.02042651820466" y="282.1380895756446" type="curve"/>
      <point x="267.9709494360609" y="672.3009860990006" type="line"/>
      <point x="257.4275111126299" y="689.5093836483148"/>
      <point x="238.69691377981826" y="700.0"/>
      <point x="218.51541141019192" y="700.0" type="curve"/>
      <point x="115.0" y="700.0" type="line"/>
      <point x="82.96748450981397" y="700.0"/>
      <point x="57.0" y="674.032515490186"/>
      <point x="57.0" y="642.0" type="curve"/>
    </contour>
  </outline>
</glyph>
<glyph name="P" format="2">
  <advance width="743"/>
  <unicode hex="0050"/>
  <outline>
    <contour>
      <point x="57.0" y="57.99999999999999" type="line"/>
      <point x="57.0" y="25.96748450981397"/>
      <point x="82.96748450981397" y="0.0"/>
      <point x="115.0" y="0.0" type="curve"/>
      <point x="235.0" y="0.0" type="line"/>
      <point x="267.03251549018603" y="0.0"/>
      <point x="293.0" y="25.96748450981397"/>
      <point x="293.0" y="57.99999999999999" type="curve"/>
      <point x="293.0" y="207.43884534268787" type="line"/>
      <point x="293.0" y="232.03915412994175"/>
      <point x="263.47947099960976" y="244.60406258057702"/>
      <point x="245.75" y="227.55" type="curve"/>
      <point x="235.25" y="217.45" type="line"/>
      <point x="218.11164314764446" y="200.9645329324961"/>
      <point x="229.78103901351346" y="172.0"/>
      <point x="253.56115465731213" y="172.0" type="curve"/>
      <point x="394" y="172" type="line" smooth="yes"/>
      <point x="589" y="172"/>
      <point x="713" y="274"/>
      <point x="713" y="436" type="curve" smooth="yes"/>
      <point x="713" y="598"/>
      <point x="589" y="700"/>
      <point x="394" y="700" type="curve" smooth="yes"/>
      <point x="115.0" y="700.0" type="line"/>
      <point x="82.96748450981397" y="700.0"/>
      <point x="57.0" y="674.032515490186"/>
      <point x="57.0" y="642.0" type="curve"/>
    </contour>
    <contour>
      <point x="245.75" y="295.15" type="line"/>
      <point x="263.0422281602846" y="277.5283960652338"/>
      <point x="293.0" y="289.7720827166065"/>
      <point x="293.0" y="314.460988726819" type="curve"/>
      <point x="293.0" y="557.539011273181" type="line"/>
      <point x="293.0" y="582.2279172833935"/>
      <point x="263.0422281602846" y="594.4716039347662"/>
      <point x="245.75" y="576.85" type="curve"/>
      <point x="235.25" y="566.15" type="line"/>
      <point x="217.67056352656732" y="548.2357171175496"/>
      <point x="230.36202225574868" y="518.0"/>
      <point x="255.460988726819" y="518.0" type="curve"/>
      <point x="379" y="518" type="line" smooth="yes"/>
      <point x="444" y="518"/>
      <point x="475" y="487"/>
      <point x="475" y="436" type="curve" smooth="yes"/>
      <point x="475" y="385"/>
      <point x="444" y="354"/>
      <point x="379" y="354" type="curve" smooth="yes"/>
      <point x="255.460988726819" y="354.0" type="line"/>
      <point x="230.36202225574868" y="354.0"/>
      <point x="217.67056352656732" y="323.76428288245046"/>
      <point x="235.25" y="305.85" type="curve"/>
    </contour>
  </outline>
</glyph>
<glyph name="Q" format="2">
  <advance width="848"/>
  <unicode hex="0051"/>
  <anchor x="425" y="700" name="top"/>
  <outline>
    <contour>
      <point x="424" y="-16" type="curve" smooth="yes"/>
      <point x="652" y="-16"/>
      <point x="819" y="138"/>
      <point x="819" y="350" type="curve" smooth="yes"/>
      <point x="819" y="562"/>
      <point x="652" y="716"/>
      <point x="424" y="716" type="curve" smooth="yes"/>
      <point x="196" y="716"/>
      <point x="29" y="562"/>
      <point x="29" y="350" type="curve" smooth="yes"/>
      <point x="29" y="138"/>
      <point x="196" y="-16"/>
    </contour>
    <contour>
      <point x="653" y="-177" type="curve" smooth="yes"/>
      <point x="724.2547003218988" y="-177.0"/>
      <point x="786.1550894003839" y="-154.69356549647512"/>
      <point x="833.2077168697915" y="-112.52222998527589" type="curve"/>
      <point x="847.888984905083" y="-99.36401304088393"/>
      <point x="847.6398658945619" y="-76.98807752301393"/>
      <point x="834.8715252660888" y="-61.96650031304563" type="curve"/>
      <point x="766.9526669904996" y="17.93803883470646" type="line"/>
      <point x="760.5137116959737" y="25.5132803576781"/>
      <point x="749.0220952194516" y="25.900438823237884"/>
      <point x="741.3348948058183" y="19.595569338713027" type="curve"/>
      <point x="715.5804401379482" y="-1.527657140208162"/>
      <point x="686.7902200689741" y="-13.0"/>
      <point x="658" y="-13" type="curve" smooth="yes"/>
      <point x="616" y="-13"/>
      <point x="593" y="6"/>
      <point x="546" y="80" type="curve"/>
      <point x="302" y="20" type="line"/>
      <point x="442" y="-133"/>
      <point x="521" y="-177"/>
    </contour>
    <contour>
      <point x="424" y="175" type="curve" smooth="yes"/>
      <point x="337" y="175"/>
      <point x="267" y="241"/>
      <point x="267" y="350" type="curve" smooth="yes"/>
      <point x="267" y="459"/>
      <point x="337" y="525"/>
      <point x="424" y="525" type="curve" smooth="yes"/>
      <point x="511" y="525"/>
      <point x="581" y="459"/>
      <point x="581" y="350" type="curve" smooth="yes"/>
      <point x="581" y="241"/>
      <point x="511" y="175"/>
    </contour>
  </outline>
</glyph>
<glyph name="R" format="2">
  <advance width="745"/>
  <unicode hex="0052"/>
  <anchor x="379" y="0" name="bottom"/>
  <anchor x="379" y="700" name="top"/>
  <outline>
    <contour>
      <point x="57.0" y="57.99999999999999" type="line"/>
      <point x="57.0" y="25.96748450981397"/>
      <point x="82.96748450981397" y="0.0"/>
      <point x="115.0" y="0.0" type="curve"/>
      <point x="235.0" y="0.0" type="line"/>
      <point x="267.03251549018603" y="0.0"/>
      <point x="293.0" y="25.96748450981397"/>
      <point x="293.0" y="57.99999999999999" type="curve"/>
      <point x="293.0" y="208.673605728286" type="line"/>
      <point x="293.0" y="233.21792393168946"/>
      <point x="263.77866534399817" y="246.00505274636024"/>
      <point x="245.75" y="229.35000000000002" type="curve"/>
      <point x="235.25" y="219.64999999999998" type="line"/>
      <point x="218.4266946541873" y="204.10847029958254"/>
      <point x="229.42305940127628" y="176.0"/>
      <point x="252.326394271714" y="176.0" type="curve"/>
      <point x="394" y="176" type="line" smooth="yes"/>
      <point x="589" y="176"/>
      <point x="713" y="274"/>
      <point x="713" y="436" type="curve" smooth="yes"/>
      <point x="713" y="598"/>
      <point x="589" y="700"/>
      <point x="394" y="700" type="curve" smooth="yes"/>
      <point x="115.0" y="700.0" type="line"/>
      <point x="82.96748450981397" y="700.0"/>
      <point x="57.0" y="674.032515490186"/>
      <point x="57.0" y="642.0" type="curve"/>
    </contour>
    <contour>
      <point x="458.75496361253647" y="25.56676906280928" type="line"/>
      <point x="469.53697038149346" y="9.58181716697188"/>
      <point x="487.5577667423672" y="0.0"/>
      <point x="506.8391141298832" y="0.0" type="curve"/>
      <point x="618.2074555808999" y="0.0" type="line"/>
      <point x="664.8154771484128" y="0.0"/>
      <point x="692.3867810625388" y="52.19178637386543"/>
      <point x="666.1167136249077" y="90.69102313591117" type="curve"/>
      <point x="571.2696548013782" y="229.69102313591117" type="line"/>
      <point x="560.4640940736391" y="245.526758685184"/>
      <point x="542.5314860072635" y="255.0"/>
      <point x="523.3603967573705" y="255.0" type="curve"/>
      <point x="413.0822513847852" y="255.0" type="line"/>
      <point x="366.6156735695456" y="255.0"/>
      <point x="339.0142862270486" y="203.08928495408486"/>
      <point x="364.99810086743844" y="164.56676906280927" type="curve"/>
    </contour>
    <contour>
      <point x="245.75" y="295.15" type="line"/>
      <point x="263.0422281602846" y="277.5283960652338"/>
      <point x="293.0" y="289.7720827166065"/>
      <point x="293.0" y="314.460988726819" type="curve"/>
      <point x="293.0" y="557.539011273181" type="line"/>
      <point x="293.0" y="582.2279172833935"/>
      <point x="263.0422281602846" y="594.4716039347662"/>
      <point x="245.75" y="576.85" type="curve"/>
      <point x="235.25" y="566.15" type="line"/>
      <point x="217.67056352656732" y="548.2357171175496"/>
      <point x="230.36202225574868" y="518.0"/>
      <point x="255.460988726819" y="518.0" type="curve"/>
      <point x="379" y="518" type="line" smooth="yes"/>
      <point x="444" y="518"/>
      <point x="475" y="487"/>
      <point x="475" y="436" type="curve" smooth="yes"/>
      <point x="475" y="385"/>
      <point x="444" y="354"/>
      <point x="379" y="354" type="curve" smooth="yes"/>
      <point x="255.460988726819" y="354.0" type="line"/>
      <point x="230.36202225574868" y="354.0"/>
      <point x="217.67056352656732" y="323.76428288245046"/>
      <point x="235.25" y="305.85" type="curve"/>
    </contour>
  </outline>
</glyph>
<glyph name="S" format="2">
  <advance width="657"/>
  <unicode hex="0053"/>
  <anchor x="329" y="0" name="bottom"/>
  <anchor x="329" y="700" name="top"/>
  <outline>
    <contour>
      <point x="318" y="-16" type="curve" smooth="yes"/>
      <point x="535" y="-16"/>
      <point x="644" y="92"/>
      <point x="644" y="220" type="curve" smooth="yes"/>
      <point x="644" y="478"/>
      <point x="257" y="408"/>
      <point x="257" y="492" type="curve" smooth="yes"/>
      <point x="257" y="516"/>
      <point x="279" y="536"/>
      <point x="348" y="536" type="curve" smooth="yes"/>
      <point x="399.63670173821583" y="536.0"/>
      <point x="454.1396748727246" y="523.8183465657552"/>
      <point x="511.50891940352614" y="498.8484626432035" type="curve"/>
      <point x="528.7340444940961" y="491.3512508953298"/>
      <point x="549.1470057633154" y="498.8047603595344"/>
      <point x="556.3507647519574" y="516.1546587687989" type="curve"/>
      <point x="599.5523638375284" y="620.2035805101036" type="line"/>
      <point x="607.793265764907" y="640.0513865605507"/>
      <point x="599.9391840628296" y="663.1324801283365"/>
      <point x="580.2556654731688" y="671.7584273530367" type="curve"/>
      <point x="512.4810184619943" y="701.4594447614874"/>
      <point x="430.14996758810867" y="716.0"/>
      <point x="350" y="716" type="curve" smooth="yes"/>
      <point x="133" y="716"/>
      <point x="24" y="610"/>
      <point x="24" y="480" type="curve" smooth="yes"/>
      <point x="24" y="219"/>
      <point x="411" y="290"/>
      <point x="411" y="202" type="curve" smooth="yes"/>
      <point x="411" y="178"/>
      <point x="387" y="164"/>
      <point x="320" y="164" type="curve" smooth="yes"/>
      <point x="254.31897468168927" y="164.0"/>
      <point x="180.63424419294333" y="182.19023902371637"/>
      <point x="119.4272979599823" y="211.74355392907574" type="curve"/>
      <point x="102.89391273290695" y="219.7265749771712"/>
      <point x="82.47762838521909" y="213.23884318760108"/>
      <point x="75.05726981136327" y="196.44540009940107" type="curve"/>
      <point x="27.94134493482894" y="89.81462274724444" type="line"/>
      <point x="19.383161453583057" y="70.4461022370564"/>
      <point x="26.423657124149674" y="47.54777422625824"/>
      <point x="45.598762623873554" y="38.5645999361365" type="curve"/>
      <point x="116.50652214972571" y="5.345655594373054"/>
      <point x="217.62128961959343" y="-16.0"/>
    </contour>
  </outline>
</glyph>
<glyph name="T" format="2">
  <advance width="654"/>
  <unicode hex="0054"/>
  <anchor x="327" y="0" name="bottom"/>
  <anchor x="327" y="315" name="center"/>
  <anchor x="327" y="700" name="top"/>
  <outline>
    <contour>
      <point x="209.0" y="57.99999999999999" type="line"/>
      <point x="209.0" y="25.96748450981397"/>
      <point x="234.96748450981397" y="0.0"/>
      <point x="267.0" y="0.0" type="curve"/>
      <point x="387.0" y="0.0" type="line"/>
      <point x="419.03251549018603" y="0.0"/>
      <point x="445.0" y="25.96748450981397"/>
      <point x="445.0" y="57.99999999999999" type="curve"/>
      <point x="445.0" y="459.0" type="line"/>
      <point x="445.0" y="491.03251549018603"/>
      <point x="470.96748450981397" y="517.0"/>
      <point x="503.0" y="517.0" type="curve"/>
      <point x="592.0" y="517.0" type="line"/>
      <point x="624.032515490186" y="517.0"/>
      <point x="650.0" y="542.967484509814"/>
      <point x="650.0" y="575.0" type="curve"/>
      <point x="650.0" y="642.0" type="line"/>
      <point x="650.0" y="674.032515490186"/>
      <point x="624.032515490186" y="700.0"/>
      <point x="592.0" y="700.0" type="curve"/>
      <point x="61.99999999999999" y="700.0" type="line"/>
      <point x="29.96748450981397" y="700.0"/>
      <point x="4.0" y="674.032515490186"/>
      <point x="4.0" y="642.0" type="curve"/>
      <point x="4.0" y="575.0" type="line"/>
      <point x="4.0" y="542.967484509814"/>
      <point x="29.96748450981397" y="517.0"/>
      <point x="61.99999999999999" y="517.0" type="curve"/>
      <point x="151.0" y="517.0" type="line"/>
      <point x="183.03251549018603" y="517.0"/>
      <point x="209.0" y="491.03251549018603"/>
      <point x="209.0" y="459.0" type="curve"/>
    </contour>
  </outline>
</glyph>
<glyph name="U" format="2">
  <advance width="784"/>
  <unicode hex="0055"/>
  <anchor x="394" y="0" name="bottom"/>
  <anchor x="620" y="0" name="ogonek"/>
  <anchor x="394" y="700" name="top"/>
  <anchor x="640" y="700" name="topright"/>
  <outline>
    <contour>
      <point x="392" y="-16" type="curve" smooth="yes"/>
      <point x="607" y="-16"/>
      <point x="733" y="105"/>
      <point x="733" y="315" type="curve" smooth="yes"/>
      <point x="733.0" y="642.0" type="line"/>
      <point x="733.0" y="674.032515490186"/>
      <point x="707.032515490186" y="700.0"/>
      <point x="675.0" y="700.0" type="curve"/>
      <point x="559.0" y="700.0" type="line"/>
      <point x="526.967484509814" y="700.0"/>
      <point x="501.0" y="674.032515490186"/>
      <point x="501.0" y="642.0" type="curve"/>
      <point x="501" y="322" type="line" smooth="yes"/>
      <point x="501" y="215"/>
      <point x="460" y="175"/>
      <point x="394" y="175" type="curve" smooth="yes"/>
      <point x="328" y="175"/>
      <point x="287" y="215"/>
      <point x="287" y="322" type="curve" smooth="yes"/>
      <point x="287.0" y="642.0" type="line"/>
      <point x="287.0" y="674.032515490186"/>
      <point x="261.03251549018603" y="700.0"/>
      <point x="229.0" y="700.0" type="curve"/>
      <point x="109.0" y="700.0" type="line"/>
      <point x="76.96748450981397" y="700.0"/>
      <point x="51.0" y="674.032515490186"/>
      <point x="51.0" y="642.0" type="curve"/>
      <point x="51" y="315" type="line" smooth="yes"/>
      <point x="51" y="105"/>
      <point x="177" y="-16"/>
    </contour>
  </outline>
</glyph>
<glyph name="V" format="2">
  <advance width="786"/>
  <unicode hex="0056"/>
  <guideline x="368" y="350" angle="113.6122"/>
  <outline>
    <contour>
      <point x="262.026273716951" y="35.41083918288621" type="line"/>
      <point x="271.10229162857706" y="13.947283310797527"/>
      <point x="292.1429744695685" y="0.0"/>
      <point x="315.44658646012545" y="0.0" type="curve"/>
      <point x="470.55341353987455" y="0.0" type="line"/>
      <point x="493.8570255304315" y="0.0"/>
      <point x="514.8977083714229" y="13.947283310797527"/>
      <point x="523.973726283049" y="35.41083918288621" type="curve"/>
      <point x="770.9222977116204" y="619.4108391828862" type="line"/>
      <point x="787.0924502056547" y="657.6510646755348"/>
      <point x="759.0205191117528" y="700.0"/>
      <point x="717.501984968446" y="700.0" type="curve"/>
      <point x="611.5611785660745" y="700.0" type="line"/>
      <point x="588.1997138200073" y="700.0"/>
      <point x="567.118612372836" y="685.9842738401051"/>
      <point x="558.0791112784738" y="664.4425595386209" type="curve"/>
      <point x="351.2926193215396" y="171.6570081412495" type="line"/>
      <point x="338.7999479857226" y="141.8861663692019"/>
      <point x="360.66424684290246" y="109.0"/>
      <point x="392.95" y="109.0" type="curve"/>
      <point x="408.05" y="109.0" type="line"/>
      <point x="440.4931131956736" y="109.0"/>
      <point x="462.59276007924643" y="141.87833524135004"/>
      <point x="450.3423872209433" y="171.91970602664944" type="curve"/>
      <point x="249.7207620955078" y="663.9005377657879" type="line"/>
      <point x="240.81895010048805" y="685.7302924921642"/>
      <point x="219.58946033939247" y="700.0"/>
      <point x="196.01446408894904" y="700.0" type="curve"/>
      <point x="68.49801503155402" y="700.0" type="line"/>
      <point x="26.979480888247203" y="700.0"/>
      <point x="-1.0924502056547247" y="657.6510646755348"/>
      <point x="15.077702288379534" y="619.4108391828862" type="curve"/>
    </contour>
  </outline>
</glyph>
<glyph name="W" format="2">
  <advance width="1206"/>
  <unicode hex="0057"/>
  <anchor x="603" y="0" name="bottom"/>
  <anchor x="603" y="700" name="top"/>
  <outline>
    <contour>
      <point x="221.09663749504622" y="40.32300782798054" type="line"/>
      <point x="228.78381551436277" y="16.300576517616364"/>
      <point x="251.11482910796565" y="0.0"/>
      <point x="276.33723803260705" y="0.0" type="curve"/>
      <point x="444.58936453857444" y="0.0" type="line"/>
      <point x="469.84707507595135" y="0.0"/>
      <point x="492.20082956996845" y="16.34546436275801"/>
      <point x="499.8590597793436" y="40.41418787793708" type="curve"/>
      <point x="631.7219680873254" y="454.8404711315942" type="line"/>
      <point x="636.3135930529252" y="469.27129245205043"/>
      <point x="625.5436991454417" y="484.0"/>
      <point x="610.4" y="484.0" type="curve"/>
      <point x="603.6" y="484.0" type="line"/>
      <point x="588.3587478881933" y="484.0"/>
      <point x="577.4355964943379" y="469.2956938132906"/>
      <point x="581.837260284159" y="454.70387686621274" type="curve"/>
      <point x="706.5569275702384" y="41.24963736989475" type="line"/>
      <point x="713.9446352357826" y="16.758880451241332"/>
      <point x="736.5047646907432" y="0.0"/>
      <point x="762.0855269741489" y="0.0" type="curve"/>
      <point x="929.662761967393" y="0.0" type="line"/>
      <point x="954.8851708920344" y="0.0"/>
      <point x="977.2161844856372" y="16.300576517616364"/>
      <point x="984.9033625049537" y="40.32300782798054" type="curve"/>
      <point x="1171.7833625049539" y="624.3230078279805" type="line"/>
      <point x="1183.7594759507454" y="661.748362346079"/>
      <point x="1155.837602011244" y="700.0"/>
      <point x="1116.542761967393" y="700.0" type="curve"/>
      <point x="1014.3454264783687" y="700.0" type="line"/>
      <point x="989.1190775577552" y="700.0"/>
      <point x="966.785524024505" y="683.6944163940869"/>
      <point x="959.1015708469926" y="659.6668167755163" type="curve"/>
      <point x="799.0372052281195" y="159.1480861895165" type="line"/>
      <point x="791.1055246807932" y="134.34584701771865"/>
      <point x="809.610364360462" y="109.0"/>
      <point x="835.65" y="109.0" type="curve"/>
      <point x="847.35" y="109.0" type="line"/>
      <point x="873.5615162094069" y="109.0"/>
      <point x="892.3362091288726" y="134.30335421696256"/>
      <point x="884.7382099306154" y="159.38948564807976" type="curve"/>
      <point x="733.4746922578677" y="658.8126082435765" type="line"/>
      <point x="726.0665013452164" y="683.2720542177493"/>
      <point x="703.5216246185465" y="700.0"/>
      <point x="677.9649074983496" y="700.0" type="curve"/>
      <point x="546.1413342587842" y="700.0" type="line"/>
      <point x="521.0133101388167" y="700.0"/>
      <point x="498.74328006207884" y="683.8191589410865"/>
      <point x="490.97930090022095" y="659.9206605834927" type="curve"/>
      <point x="328.9628321729956" y="161.21371778250216" type="line"/>
      <point x="320.59000826721086" y="135.44111919750844"/>
      <point x="339.80145727201364" y="109.0"/>
      <point x="366.9" y="109.0" type="curve"/>
      <point x="379.1" y="109.0" type="line"/>
      <point x="406.39587761212874" y="109.0"/>
      <point x="425.91654613190997" y="135.3940399781283"/>
      <point x="417.9233571304142" y="161.49334771229394" type="curve"/>
      <point x="265.56145162116286" y="658.9844314469212" type="line"/>
      <point x="258.09699215859047" y="683.3573349959837"/>
      <point x="235.59432197526786" y="700.0"/>
      <point x="210.10399866464104" y="700.0" type="curve"/>
      <point x="89.45723803260701" y="700.0" type="line"/>
      <point x="50.16239798875615" y="700.0"/>
      <point x="22.240524049254695" y="661.748362346079"/>
      <point x="34.21663749504622" y="624.3230078279805" type="curve"/>
    </contour>
  </outline>
</glyph>
<glyph name="X" format="2">
  <advance width="762"/>
  <unicode hex="0058"/>
  <outline>
    <contour>
      <point x="57.65792133765417" y="91.75273622826033" type="line"/>
      <point x="30.190980981080287" y="53.36944778125323"/>
      <point x="57.626587483832736" y="0.0"/>
      <point x="104.82520657971028" y="0.0" type="curve"/>
      <point x="228.99048804778445" y="0.0" type="line"/>
      <point x="248.91379164107536" y="0.0"/>
      <point x="267.4426723223501" y="10.225869441869659"/>
      <point x="278.06298539476967" y="27.082529144023958" type="curve"/>
      <point x="406.85231440327357" y="231.49815018659115" type="line"/>
      <point x="418.1461450152787" y="249.42382319285517"/>
      <point x="405.13590532495186" y="272.74436610389864"/>
      <point x="383.95" y="272.55" type="curve"/>
      <point x="373.05" y="272.45" type="line"/>
      <point x="351.7822464807909" y="272.25488299523664"/>
      <point x="339.09337606030897" y="248.6738733613407"/>
      <point x="350.64759656027206" y="230.81735077048862" type="curve"/>
      <point x="482.85848914496125" y="26.491425866878096" type="line"/>
      <point x="493.5465258598982" y="9.97355094379362"/>
      <point x="511.879353808411" y="0.0"/>
      <point x="531.553558259786" y="0.0" type="curve"/>
      <point x="657.3245259041043" y="0.0" type="line"/>
      <point x="704.4944817082257" y="0.0"/>
      <point x="731.9370499336095" y="53.312144572483895"/>
      <point x="704.5282495878288" y="91.70175767509153" type="curve"/>
      <point x="495.8825813176165" y="383.9373308989851" type="line"/>
      <point x="482.51687653949836" y="402.65775020966163"/>
      <point x="453.0" y="393.20209041333766"/>
      <point x="453.0" y="370.2" type="curve"/>
      <point x="453.0" y="353.8" type="line"/>
      <point x="453.0" y="330.70563983120417"/>
      <point x="482.6017175106703" y="321.1679515049058"/>
      <point x="496.08409793387654" y="339.91828189479514" type="curve"/>
      <point x="688.9481913985746" y="608.1398688324548" type="line"/>
      <point x="716.5378389253397" y="646.5095773133862"/>
      <point x="689.1170495975953" y="700.0"/>
      <point x="641.8579427549687" y="700.0" type="curve"/>
      <point x="532.2395533928953" y="700.0" type="line"/>
      <point x="512.7376323776075" y="700.0"/>
      <point x="494.5412190499486" y="690.1991754188174"/>
      <point x="483.81003989125855" y="673.9152349512702" type="curve"/>
      <point x="356.9819524838301" y="481.4609860365097" type="line"/>
      <point x="345.04790756312565" y="463.3517667091616"/>
      <point x="358.162943509982" y="439.258079146106"/>
      <point x="379.85" y="439.45" type="curve"/>
      <point x="391.15" y="439.55" type="line"/>
      <point x="412.9103423886174" y="439.7425694016692"/>
      <point x="425.69267649536" y="464.0903642682182"/>
      <point x="413.49408180430174" y="482.11101551637245" type="curve"/>
      <point x="283.25283872018935" y="674.5128518906293" type="line"/>
      <point x="272.46343292683827" y="690.4517468126253"/>
      <point x="254.46981768878098" y="700.0"/>
      <point x="235.22248933630502" y="700.0" type="curve"/>
      <point x="112.75991208392847" y="700.0" type="line"/>
      <point x="65.76633217879012" y="700.0"/>
      <point x="38.281770327382645" y="647.0401342038174"/>
      <point x="65.33292165780527" y="608.6131675788131" type="curve"/>
      <point x="260.25831320079607" y="331.71583985714733" type="line"/>
      <point x="273.57061648197737" y="312.8053163219593"/>
      <point x="303.3098432367755" y="322.12413406795815"/>
      <point x="303.45" y="345.25" type="curve"/>
      <point x="303.55" y="361.75" type="line"/>
      <point x="303.68941942576004" y="384.75420525040545"/>
      <point x="274.17728346212914" y="394.3246653509241"/>
      <point x="260.7898846382038" y="375.6166336610796" type="curve"/>
    </contour>
  </outline>
</glyph>
<glyph name="Y" format="2">
  <advance width="710"/>
  <unicode hex="0059"/>
  <anchor x="355" y="0" name="bottom"/>
  <anchor x="349" y="266" name="center"/>
  <anchor x="355" y="700" name="top"/>
  <outline>
    <contour>
      <point x="237.0" y="57.99999999999999" type="line"/>
      <point x="237.0" y="25.96748450981397"/>
      <point x="262.96748450981397" y="0.0"/>
      <point x="295.0" y="0.0" type="curve"/>
      <point x="415.0" y="0.0" type="line"/>
      <point x="447.03251549018603" y="0.0"/>
      <point x="473.0" y="25.96748450981397"/>
      <point x="473.0" y="57.99999999999999" type="curve"/>
      <point x="473.0" y="239.3726201897486" type="line"/>
      <point x="473.0" y="252.85060454611215"/>
      <point x="454.2635672537338" y="256.19544197647053"/>
      <point x="449.6" y="243.55" type="curve"/>
      <point x="444.4" y="229.45" type="line"/>
      <point x="441.81370972829137" y="222.43717445555927"/>
      <point x="451.6341720451423" y="217.76787301299356"/>
      <point x="455.4407429148468" y="224.20049593838036" type="curve"/>
      <point x="685.1986133838394" y="612.462213756235" type="line"/>
      <point x="708.0780259933331" y="651.1255249381007"/>
      <point x="680.2092006305728" y="700.0"/>
      <point x="635.2834935921607" y="700.0" type="curve"/>
      <point x="541.9938895370005" y="700.0" type="line"/>
      <point x="521.5371200934485" y="700.0"/>
      <point x="502.5931759669733" y="689.2235448292408"/>
      <point x="492.13918644369164" y="671.6396454006795" type="curve"/>
      <point x="325.34460107576444" y="391.0865409799724" type="line"/>
      <point x="310.63475142476676" y="366.34416714304086"/>
      <point x="328.46519949971105" y="335.0"/>
      <point x="357.25" y="335.0" type="curve"/>
      <point x="371.75" y="335.0" type="line"/>
      <point x="400.6033839734855" y="335.0"/>
      <point x="418.5274123630077" y="366.3604394767543"/>
      <point x="403.88328545610744" y="391.22139910939904" type="curve"/>
      <point x="238.82473393744436" y="671.4370795945712" type="line"/>
      <point x="228.39957116090432" y="689.1356117500927"/>
      <point x="209.39089840281224" y="700.0"/>
      <point x="188.8501569513119" y="700.0" type="curve"/>
      <point x="75.04462215097132" y="700.0" type="line"/>
      <point x="30.04727529268235" y="700.0"/>
      <point x="2.1884420560708726" y="650.9854463586735"/>
      <point x="25.21149521175007" y="612.3240929463065" type="curve"/>
      <point x="256.2361896504621" y="224.37696454922403" type="line"/>
      <point x="259.8900872748969" y="218.24117419875796"/>
      <point x="269.2540845891465" y="222.7810013505619"/>
      <point x="266.7" y="229.45" type="curve"/>
      <point x="261.3" y="243.55" type="line"/>
      <point x="256.31450611287727" y="256.5676784830427"/>
      <point x="237.0" y="252.99565573054213"/>
      <point x="237.0" y="239.05596052632725" type="curve"/>
    </contour>
  </outline>
</glyph>
<glyph name="Z" format="2">
  <advance width="687"/>
  <unicode hex="005A"/>
  <anchor x="354" y="0" name="bottom"/>
  <anchor x="354" y="700" name="top"/>
  <outline>
    <contour>
      <point x="32.0" y="57.99999999999999" type="line"/>
      <point x="32.0" y="25.96748450981397"/>
      <point x="57.96748450981398" y="0.0"/>
      <point x="90.0" y="0.0" type="curve"/>
      <point x="617.0" y="0.0" type="line"/>
      <point x="649.032515490186" y="0.0"/>
      <point x="675.0" y="25.96748450981397"/>
      <point x="675.0" y="57.99999999999999" type="curve"/>
      <point x="675.0" y="125.0" type="line"/>
      <point x="675.0" y="157.03251549018603"/>
      <point x="649.032515490186" y="183.0"/>
      <point x="617.0" y="183.0" type="curve"/>
      <point x="240" y="183" type="line"/>
      <point x="269" y="101" type="line"/>
      <point x="644.9958139059205" y="538.6976910597126" type="line"/>
      <point x="654.0317487430227" y="549.2164459726471"/>
      <point x="659.0" y="562.624501146945"/>
      <point x="659.0" y="576.4914519040055" type="curve"/>
      <point x="659.0" y="642.0" type="line"/>
      <point x="659.0" y="674.032515490186"/>
      <point x="633.032515490186" y="700.0"/>
      <point x="601.0" y="700.0" type="curve"/>
      <point x="100.0" y="700.0" type="line"/>
      <point x="67.96748450981397" y="700.0"/>
      <point x="42.0" y="674.032515490186"/>
      <point x="42.0" y="642.0" type="curve"/>
      <point x="42.0" y="575.0" type="line"/>
      <point x="42.0" y="542.967484509814"/>
      <point x="67.96748450981397" y="517.0"/>
      <point x="100.0" y="517.0" type="curve"/>
      <point x="451" y="517" type="line"/>
      <point x="422" y="599" type="line"/>
      <point x="46.004186094079486" y="161.3023089402874" type="line"/>
      <point x="36.968251256977226" y="150.78355402735298"/>
      <point x="32.0" y="137.37549885305495"/>
      <point x="32.0" y="123.50854809599446" type="curve"/>
    </contour>
  </outline>
</glyph>
<glyph name="bracketleft" format="2">
  <advance width="410"/>
  <unicode hex="005B"/>
  <outline>
    <contour>
      <point x="57.0" y="-136.0" type="line"/>
      <point x="57.0" y="-168.03251549018603"/>
      <point x="82.96748450981397" y="-194.0"/>
      <point x="115.0" y="-194.0" type="curve"/>
      <point x="342.0" y="-194.0" type="line"/>
      <point x="374.03251549018603" y="-194.0"/>
      <point x="400.0" y="-168.03251549018603"/>
      <point x="400.0" y="-136.0" type="curve"/>
      <point x="400.0" y="-76.65" type="line"/>
      <point x="400.0" y="-47.57220792140872"/>
      <point x="376.42779207859127" y="-24.0"/>
      <point x="347.35" y="-24.0" type="curve"/>
      <point x="335.65" y="-24.0" type="line"/>
      <point x="306.57220792140873" y="-24.0"/>
      <point x="283.0" y="-0.4277920785912812"/>
      <point x="283.0" y="28.65" type="curve"/>
      <point x="283.0" y="519.35" type="line"/>
      <point x="283.0" y="548.4277920785913"/>
      <point x="306.57220792140873" y="572.0"/>
      <point x="335.65" y="572.0" type="curve"/>
      <point x="347.35" y="572.0" type="line"/>
      <point x="376.42779207859127" y="572.0"/>
      <point x="400.0" y="595.5722079214087"/>
      <point x="400.0" y="624.65" type="curve"/>
      <point x="400.0" y="684.0" type="line"/>
      <point x="400.0" y="716.032515490186"/>
      <point x="374.03251549018603" y="742.0"/>
      <point x="342.0" y="742.0" type="curve"/>
      <point x="115.0" y="742.0" type="line"/>
      <point x="82.96748450981397" y="742.0"/>
      <point x="57.0" y="716.032515490186"/>
      <point x="57.0" y="684.0" type="curve"/>
    </contour>
  </outline>
</glyph>
<glyph name="backslash" format="2">
  <advance width="440"/>
  <unicode hex="005C"/>
  <outline>
    <contour>
      <point x="398.2255258840421" y="-100.0" type="line"/>
      <point x="438.1856708797163" y="-100.0"/>
      <point x="466.17542291524506" y="-60.53711632169956"/>
      <point x="452.9638727975438" y="-22.82414598571596" type="curve"/>
      <point x="163.60081547270303" y="803.175854014284" type="line"/>
      <point x="155.45415277305366" y="826.4308729932832"/>
      <point x="133.5031670244532" y="842.0"/>
      <point x="108.86246855920129" y="842.0" type="curve"/>
      <point x="31.774474115957915" y="842.0" type="line"/>
      <point x="-8.18567087971634" y="842.0"/>
      <point x="-36.17542291524507" y="802.5371163216996"/>
      <point x="-22.96387279754381" y="764.824145985716" type="curve"/>
      <point x="266.39918452729694" y="-61.17585401428405" type="line"/>
      <point x="274.5458472269463" y="-84.43087299328317"/>
      <point x="296.4968329755468" y="-100.0"/>
      <point x="321.1375314407987" y="-100.0" type="curve"/>
    </contour>
  </outline>
</glyph>
<glyph name="bracketright" format="2">
  <advance width="410"/>
  <unicode hex="005D"/>
  <outline>
    <contour>
      <point x="295.0" y="-194.0" type="line"/>
      <point x="327.03251549018603" y="-194.0"/>
      <point x="353.0" y="-168.03251549018603"/>
      <point x="353.0" y="-136.0" type="curve"/>
      <point x="353.0" y="684.0" type="line"/>
      <point x="353.0" y="716.032515490186"/>
      <point x="327.03251549018603" y="742.0"/>
      <point x="295.0" y="742.0" type="curve"/>
      <point x="68.0" y="742.0" type="line"/>
      <point x="35.96748450981398" y="742.0"/>
      <point x="10.0" y="716.032515490186"/>
      <point x="10.0" y="684.0" type="curve"/>
      <point x="10.0" y="624.65" type="line"/>
      <point x="10.0" y="595.5722079214087"/>
      <point x="33.57220792140872" y="572.0"/>
      <point x="62.65" y="572.0" type="curve"/>
      <point x="74.35" y="572.0" type="line"/>
      <point x="103.42779207859127" y="572.0"/>
      <point x="127.0" y="548.4277920785913"/>
      <point x="127.0" y="519.35" type="curve"/>
      <point x="127.0" y="28.65" type="line"/>
      <point x="127.0" y="-0.4277920785912812"/>
      <point x="103.42779207859127" y="-24.0"/>
      <point x="74.35" y="-24.0" type="curve"/>
      <point x="62.65" y="-24.0" type="line"/>
      <point x="33.57220792140872" y="-24.0"/>
      <point x="10.0" y="-47.572207921408726"/>
      <point x="10.0" y="-76.65" type="curve"/>
      <point x="10.0" y="-136.0" type="line"/>
      <point x="10.0" y="-168.03251549018603"/>
      <point x="35.96748450981398" y="-194.0"/>
      <point x="68.0" y="-194.0" type="curve"/>
    </contour>
  </outline>
</glyph>
<glyph name="asciicircum" format="2">
  <advance width="620"/>
  <unicode hex="005E"/>
  <outline>
    <contour>
      <point x="66.71488977875578" y="209.06315398181047" type="line"/>
      <point x="52.23372436040225" y="176.03044151399865"/>
      <point x="76.43250431683884" y="139.0"/>
      <point x="112.5" y="139.0" type="curve"/>
      <point x="167.2606936961959" y="139.0" type="line"/>
      <point x="190.71192607996056" y="139.0"/>
      <point x="211.8555619795298" y="153.12223771533658"/>
      <point x="220.83773628335055" y="174.7851286833749" type="curve"/>
      <point x="342.1090374989109" y="467.262972791491" type="line"/>
      <point x="350.15110053486876" y="486.65853658409526"/>
      <point x="335.89673004796936" y="508.0"/>
      <point x="314.9" y="508.0" type="curve"/>
      <point x="305.1" y="508.0" type="line"/>
      <point x="284.10326995203064" y="508.0"/>
      <point x="269.84889946513124" y="486.65853658409526"/>
      <point x="277.8909625010891" y="467.262972791491" type="curve"/>
      <point x="399.1622637166494" y="174.7851286833749" type="line"/>
      <point x="408.1444380204702" y="153.12223771533658"/>
      <point x="429.28807392003944" y="139.0"/>
      <point x="452.73930630380414" y="139.0" type="curve"/>
      <point x="507.5" y="139.0" type="line"/>
      <point x="543.5674956831612" y="139.0"/>
      <point x="567.7662756395978" y="176.03044151399865"/>
      <point x="553.2851102212442" y="209.06315398181047" type="curve"/>
      <point x="414.2177379014946" y="526.2871059760502" type="line"/>
      <point x="404.972122415407" y="547.3771045443149"/>
      <point x="384.12554112778776" y="561.0"/>
      <point x="361.0979610263965" y="561.0" type="curve"/>
      <point x="258.9020389736035" y="561.0" type="line"/>
      <point x="235.87445887221227" y="561.0"/>
      <point x="215.027877584593" y="547.3771045443149"/>
      <point x="205.78226209850538" y="526.2871059760502" type="curve"/>
    </contour>
  </outline>
</glyph>
<glyph name="underscore" format="2">
  <advance width="500"/>
  <unicode hex="005F"/>
  <outline>
    <contour>
      <point x="0.0" y="-66.0" type="line"/>
      <point x="0.0" y="-95.82337649086286"/>
      <point x="24.176623509137148" y="-120.0"/>
      <point x="54.0" y="-120.0" type="curve"/>
      <point x="446.0" y="-120.0" type="line"/>
      <point x="475.82337649086287" y="-120.0"/>
      <point x="500.0" y="-95.82337649086286"/>
      <point x="500.0" y="-66.0" type="curve"/>
      <point x="500.0" y="-54.0" type="line"/>
      <point x="500.0" y="-24.176623509137148"/>
      <point x="475.82337649086287" y="0.0"/>
      <point x="446.0" y="0.0" type="curve"/>
      <point x="54.0" y="0.0" type="line"/>
      <point x="24.176623509137148" y="0.0"/>
      <point x="0.0" y="-24.176623509137148"/>
      <point x="0.0" y="-54.0" type="curve"/>
    </contour>
  </outline>
</glyph>
<glyph name="a" format="2">
  <advance width="639"/>
  <unicode hex="0061"/>
  <anchor x="298" y="0" name="bottom"/>
  <anchor x="591" y="0" name="ogonek"/>
  <anchor x="321" y="547" name="top"/>
  <outline>
    <contour>
      <point x="381.0" y="43.65" type="line"/>
      <point x="381.0" y="19.54277066988586"/>
      <point x="400.54277066988584" y="0.0"/>
      <point x="424.65" y="0.0" type="curve"/>
      <point x="533.0" y="0.0" type="line"/>
      <point x="565.032515490186" y="0.0"/>
      <point x="591.0" y="25.96748450981397"/>
      <point x="591.0" y="57.99999999999999" type="curve"/>
      <point x="591" y="294" type="line" smooth="yes"/>
      <point x="591" y="476"/>
      <point x="483" y="557"/>
      <point x="295" y="557" type="curve" smooth="yes"/>
      <point x="222.33639198940864" y="557.0"/>
      <point x="140.90323392353665" y="540.9224915653189"/>
      <point x="78.81348819853866" y="511.2664046867259" type="curve"/>
      <point x="61.37645386091773" y="502.93790858510147"/>
      <point x="55.36898157912073" y="481.8197464543196"/>
      <point x="63.77656974160324" y="464.4207098402933" type="curve"/>
      <point x="112.18948791257563" y="364.232865292031" type="line"/>
      <point x="116.75431121893418" y="354.7862170608168"/>
      <point x="128.838108431029" y="351.873267638681"/>
      <point x="137.9247265738738" y="357.11827911137584" type="curve"/>
      <point x="172.9492735925098" y="377.3352782248845"/>
      <point x="219.16177212908906" y="389.0"/>
      <point x="261" y="389" type="curve" smooth="yes"/>
      <point x="334" y="389"/>
      <point x="365" y="360"/>
      <point x="365" y="307" type="curve" smooth="yes"/>
      <point x="365" y="123" type="line"/>
      <point x="381" y="97" type="line"/>
    </contour>
    <contour>
      <point x="226" y="-10" type="curve" smooth="yes"/>
      <point x="320" y="-10"/>
      <point x="376" y="30"/>
      <point x="394" y="111" type="curve"/>
      <point x="365" y="178" type="line"/>
      <point x="353" y="142"/>
      <point x="325" y="126"/>
      <point x="294" y="126" type="curve" smooth="yes"/>
      <point x="260" y="126"/>
      <point x="240" y="145"/>
      <point x="240" y="170" type="curve" smooth="yes"/>
      <point x="240" y="200"/>
      <point x="261" y="216"/>
      <point x="309" y="216" type="curve" smooth="yes"/>
      <point x="387" y="216" type="line"/>
      <point x="387" y="325" type="line"/>
      <point x="273" y="325" type="line" smooth="yes"/>
      <point x="103" y="325"/>
      <point x="23" y="266"/>
      <point x="23" y="160" type="curve" smooth="yes"/>
      <point x="23" y="66"/>
      <point x="92" y="-10"/>
    </contour>
  </outline>
</glyph>
<glyph name="b" format="2">
  <advance width="700"/>
  <unicode hex="0062"/>
  <outline>
    <contour>
      <point x="415" y="-10" type="curve" smooth="yes"/>
      <point x="558" y="-10"/>
      <point x="679" y="98"/>
      <point x="679" y="274" type="curve" smooth="yes"/>
      <point x="679" y="450"/>
      <point x="558" y="557"/>
      <point x="415" y="557" type="curve" smooth="yes"/>
      <point x="272" y="557"/>
      <point x="207" y="468"/>
      <point x="207" y="274" type="curve" smooth="yes"/>
      <point x="207" y="77"/>
      <point x="264" y="-10"/>
    </contour>
    <contour>
      <point x="50.0" y="57.99999999999999" type="line"/>
      <point x="50.0" y="25.96748450981397"/>
      <point x="75.96748450981397" y="0.0"/>
      <point x="108.0" y="0.0" type="curve"/>
      <point x="231.7" y="0.0" type="line"/>
      <point x="250.09108216936542" y="0.0"/>
      <point x="265.0" y="14.908917830634577"/>
      <point x="265.0" y="33.300000000000004" type="curve"/>
      <point x="265" y="74" type="line"/>
      <point x="266" y="274" type="line"/>
      <point x="276" y="474" type="line"/>
      <point x="276.0" y="684.0" type="line"/>
      <point x="276.0" y="716.032515490186"/>
      <point x="250.03251549018603" y="742.0"/>
      <point x="218.0" y="742.0" type="curve"/>
      <point x="108.0" y="742.0" type="line"/>
      <point x="75.96748450981397" y="742.0"/>
      <point x="50.0" y="716.032515490186"/>
      <point x="50.0" y="684.0" type="curve"/>
    </contour>
    <contour>
      <point x="361" y="166" type="curve" smooth="yes"/>
      <point x="311" y="166"/>
      <point x="272" y="203"/>
      <point x="272" y="274" type="curve" smooth="yes"/>
      <point x="272" y="345"/>
      <point x="311" y="381"/>
      <point x="361" y="381" type="curve" smooth="yes"/>
      <point x="411" y="381"/>
      <point x="450" y="345"/>
      <point x="450" y="274" type="curve" smooth="yes"/>
      <point x="450" y="203"/>
      <point x="411" y="166"/>
    </contour>
  </outline>
</glyph>
<glyph name="c" format="2">
  <advance width="615"/>
  <unicode hex="0063"/>
  <anchor x="316" y="0" name="bottom"/>
  <anchor x="324" y="547" name="top"/>
  <outline>
    <contour>
      <point x="344" y="-10" type="curve" smooth="yes"/>
      <point x="456.6466917864477" y="-10.0"/>
      <point x="545.6206973484497" y="33.758601808824004"/>
      <point x="592.0871696923045" y="108.51671552751301" type="curve"/>
      <point x="606.6018407352731" y="131.86880949302582"/>
      <point x="594.372335970265" y="161.15416632318403"/>
      <point x="569.6956962314861" y="173.2809721376697" type="curve"/>
      <point x="460.59492809803794" y="226.89620676324995" type="line"/>
      <point x="448.23891043074593" y="232.96830687403346"/>
      <point x="433.5084458492413" y="227.42754307397112"/>
      <point x="426.19386930372684" y="215.76398691345048" type="curve"/>
      <point x="404.2738089472429" y="180.81106059994644"/>
      <point x="375.7527702736138" y="166.0"/>
      <point x="343" y="166" type="curve" smooth="yes"/>
      <point x="292" y="166"/>
      <point x="250" y="202"/>
      <point x="250" y="274" type="curve" smooth="yes"/>
      <point x="250" y="345"/>
      <point x="292" y="381"/>
      <point x="343" y="381" type="curve" smooth="yes"/>
      <point x="375.7527702736138" y="381.0"/>
      <point x="404.2738089472429" y="366.1889394000536"/>
      <point x="426.19386930372684" y="331.2360130865495" type="curve"/>
      <point x="433.5084458492413" y="319.57245692602885"/>
      <point x="448.23891043074593" y="314.03169312596657"/>
      <point x="460.59492809803794" y="320.10379323675005" type="curve"/>
      <point x="569.6956962314861" y="373.71902786233034" type="line"/>
      <point x="594.372335970265" y="385.84583367681597"/>
      <point x="606.6018407352731" y="415.1311905069741"/>
      <point x="592.0871696923045" y="438.48328447248696" type="curve"/>
      <point x="545.6206973484497" y="513.241398191176"/>
      <point x="456.6466917864477" y="557.0"/>
      <point x="344" y="557" type="curve" smooth="yes"/>
      <point x="155" y="557"/>
      <point x="21" y="440"/>
      <point x="21" y="274" type="curve" smooth="yes"/>
      <point x="21" y="107"/>
      <point x="155" y="-10"/>
    </contour>
  </outline>
</glyph>
<glyph name="e" format="2">
  <advance width="653"/>
  <unicode hex="0065"/>
  <guideline x="477" y="80" angle="90"/>
  <anchor x="327" y="0" name="bottom"/>
  <anchor x="553" y="0" name="ogonek"/>
  <anchor x="327" y="547" name="top"/>
  <outline>
    <contour>
      <point x="352" y="-10" type="curve" smooth="yes"/>
      <point x="444.5564906666209" y="-10.0"/>
      <point x="514.0396266606849" y="11.631270005522133"/>
      <point x="565.3475472858574" y="53.66927519065003" type="curve"/>
      <point x="580.6646728073838" y="66.21902178434209"/>
      <point x="580.0481516495996" y="89.04466062455633"/>
      <point x="566.105383209086" y="103.10558811965059" type="curve"/>
      <point x="487.25836804421584" y="182.62079832829082" type="line"/>
      <point x="479.08552234001576" y="190.86290543676378"/>
      <point x="466.1638969229662" y="191.68803895164172"/>
      <point x="456.4802471344959" y="185.2884558975309" type="curve"/>
      <point x="427.641682520029" y="166.23006433618386"/>
      <point x="401.1308956983239" y="157.0"/>
      <point x="359" y="157" type="curve" smooth="yes"/>
      <point x="285" y="157"/>
      <point x="242" y="196"/>
      <point x="242" y="267" type="curve" smooth="yes"/>
      <point x="242" y="301" type="line" smooth="yes"/>
      <point x="242" y="364"/>
      <point x="277" y="403"/>
      <point x="333" y="403" type="curve" smooth="yes"/>
      <point x="388" y="403"/>
      <point x="424" y="364"/>
      <point x="424" y="301" type="curve"/>
      <point x="509" y="330" type="line"/>
      <point x="208" y="330" type="line"/>
      <point x="208" y="221" type="line"/>
      <point x="629" y="221" type="line"/>
      <point x="630" y="237"/>
      <point x="632" y="258"/>
      <point x="632" y="274" type="curve" smooth="yes"/>
      <point x="632" y="459"/>
      <point x="493" y="557"/>
      <point x="331" y="557" type="curve" smooth="yes"/>
      <point x="154" y="557"/>
      <point x="21" y="440"/>
      <point x="21" y="274" type="curve" smooth="yes"/>
      <point x="21" y="111"/>
      <point x="151" y="-10"/>
    </contour>
  </outline>
</glyph>
<glyph name="f" format="2">
  <advance width="426"/>
  <unicode hex="0066"/>
  <outline>
    <contour>
      <point x="75.0" y="57.99999999999999" type="line"/>
      <point x="75.0" y="25.96748450981397"/>
      <point x="100.96748450981397" y="0.0"/>
      <point x="133.0" y="0.0" type="curve"/>
      <point x="243.0" y="0.0" type="line"/>
      <point x="275.03251549018603" y="0.0"/>
      <point x="301.0" y="25.96748450981397"/>
      <point x="301.0" y="57.99999999999999" type="curve"/>
      <point x="301" y="399" type="line"/>
      <point x="294" y="492" type="line"/>
      <point x="294" y="518" type="line" smooth="yes"/>
      <point x="294" y="562"/>
      <point x="316" y="581"/>
      <point x="348" y="581" type="curve" smooth="yes"/>
      <point x="363.34910928983754" y="581.0"/>
      <point x="378.6982185796751" y="576.6371267409004"/>
      <point x="392.1871551341896" y="571.0116681149063" type="curve"/>
      <point x="395.8611242702513" y="569.4794671675176"/>
      <point x="400.12801276603005" y="571.2795926716058"/>
      <point x="401.4227162740917" y="575.0438232413406" type="curve"/>
      <point x="447.4982816199553" y="709.0042632283887" type="line"/>
      <point x="450.6753043322418" y="718.241162595592"/>
      <point x="446.73867748005165" y="728.5168630329667"/>
      <point x="437.68082640210275" y="732.1732433583602" type="curve"/>
      <point x="404.9366380634378" y="745.3910811194534"/>
      <point x="360.13250823156704" y="752.0"/>
      <point x="319" y="752" type="curve" smooth="yes"/>
      <point x="163" y="752"/>
      <point x="75" y="661"/>
      <point x="75" y="520" type="curve" smooth="yes"/>
    </contour>
    <contour>
      <point x="0.0" y="410.0" type="line"/>
      <point x="0.0" y="377.96748450981397"/>
      <point x="25.96748450981397" y="352.0"/>
      <point x="57.99999999999999" y="352.0" type="curve"/>
      <point x="355.0" y="352.0" type="line"/>
      <point x="387.03251549018603" y="352.0"/>
      <point x="413.0" y="377.96748450981397"/>
      <point x="413.0" y="410.0" type="curve"/>
      <point x="413.0" y="459.0" type="line"/>
      <point x="413.0" y="491.03251549018603"/>
      <point x="387.03251549018603" y="517.0"/>
      <point x="355.0" y="517.0" type="curve"/>
      <point x="57.99999999999999" y="517.0" type="line"/>
      <point x="25.96748450981397" y="517.0"/>
      <point x="0.0" y="491.03251549018603"/>
      <point x="0.0" y="459.0" type="curve"/>
    </contour>
  </outline>
</glyph>
<glyph name="g" format="2">
  <advance width="711"/>
  <unicode hex="0067"/>
  <anchor x="355" y="547" name="top"/>
  <outline>
    <contour>
      <point x="328" y="-204" type="curve" smooth="yes"/>
      <point x="537" y="-204"/>
      <point x="661" y="-103"/>
      <point x="661" y="109" type="curve" smooth="yes"/>
      <point x="661.0" y="489.0" type="line"/>
      <point x="661.0" y="521.032515490186"/>
      <point x="635.032515490186" y="547.0"/>
      <point x="603.0" y="547.0" type="curve"/>
      <point x="483.35" y="547.0" type="line"/>
      <point x="462.7221645938199" y="547.0"/>
      <point x="446.0" y="530.2778354061801"/>
      <point x="446.0" y="509.65" type="curve"/>
      <point x="446" y="464" type="line"/>
      <point x="445" y="294" type="line"/>
      <point x="435" y="124" type="line"/>
      <point x="435" y="78" type="line" smooth="yes"/>
      <point x="435" y="5"/>
      <point x="398" y="-36"/>
      <point x="305" y="-36" type="curve" smooth="yes"/>
      <point x="254.5003618705964" y="-36.0"/>
      <point x="193.74419161915606" y="-20.61520181694485"/>
      <point x="150.32210797149037" y="4.510858900704015" type="curve"/>
      <point x="139.39510439320867" y="10.833737314315833"/>
      <point x="124.79253047388518" y="7.448022276030494"/>
      <point x="119.20556565490354" y="-3.872932751905992" type="curve"/>
      <point x="70.23873370259099" y="-103.0951974973814" type="line"/>
      <point x="60.9575078069186" y="-121.90189207545441"/>
      <point x="67.04368455356749" y="-144.9170193598496"/>
      <point x="85.7675127375959" y="-154.36430326658194" type="curve"/>
      <point x="150.9397328865635" y="-187.24756092777736"/>
      <point x="235.8280318623638" y="-204.0"/>
    </contour>
    <contour>
      <point x="284" y="30" type="curve" smooth="yes"/>
      <point x="426" y="30"/>
      <point x="490" y="114"/>
      <point x="490" y="294" type="curve" smooth="yes"/>
      <point x="490" y="474"/>
      <point x="426" y="557"/>
      <point x="284" y="557" type="curve" smooth="yes"/>
      <point x="145" y="557"/>
      <point x="21" y="456"/>
      <point x="21" y="294" type="curve" smooth="yes"/>
      <point x="21" y="132"/>
      <point x="145" y="30"/>
    </contour>
    <contour>
      <point x="344" y="206" type="curve" smooth="yes"/>
      <point x="291" y="206"/>
      <point x="250" y="241"/>
      <point x="250" y="294" type="curve" smooth="yes"/>
      <point x="250" y="347"/>
      <point x="291" y="381"/>
      <point x="344" y="381" type="curve" smooth="yes"/>
      <point x="397" y="381"/>
      <point x="437" y="347"/>
      <point x="437" y="294" type="curve" smooth="yes"/>
      <point x="437" y="241"/>
      <point x="397" y="206"/>
    </contour>
  </outline>
</glyph>
<glyph name="h" format="2">
  <advance width="702"/>
  <unicode hex="0068"/>
  <anchor x="355" y="0" name="bottom"/>
  <anchor x="214" y="640" name="center"/>
  <anchor x="163" y="742" name="top"/>
  <anchor x="310" y="547" name="topright"/>
  <outline>
    <contour>
      <point x="430" y="557" type="curve" smooth="yes"/>
      <point x="341" y="557"/>
      <point x="264" y="516"/>
      <point x="222" y="433" type="curve"/>
      <point x="251.7" y="407.7" type="line"/>
      <point x="261.2709683315836" y="399.546952902725"/>
      <point x="276.0" y="406.348653726614"/>
      <point x="276.0" y="418.92146613174276" type="curve"/>
      <point x="276.0" y="684.0" type="line"/>
      <point x="276.0" y="716.032515490186"/>
      <point x="250.03251549018603" y="742.0"/>
      <point x="218.0" y="742.0" type="curve"/>
      <point x="108.0" y="742.0" type="line"/>
      <point x="75.96748450981397" y="742.0"/>
      <point x="50.0" y="716.032515490186"/>
      <point x="50.0" y="684.0" type="curve"/>
      <point x="50.0" y="57.99999999999999" type="line"/>
      <point x="50.0" y="25.96748450981397"/>
      <point x="75.96748450981397" y="0.0"/>
      <point x="108.0" y="0.0" type="curve"/>
      <point x="218.0" y="0.0" type="line"/>
      <point x="250.03251549018603" y="0.0"/>
      <point x="276.0" y="25.96748450981397"/>
      <point x="276.0" y="57.99999999999999" type="curve"/>
      <point x="276" y="257" type="line" smooth="yes"/>
      <point x="276" y="338"/>
      <point x="315" y="367"/>
      <point x="361" y="367" type="curve" smooth="yes"/>
      <point x="402" y="367"/>
      <point x="428" y="341"/>
      <point x="428" y="273" type="curve" smooth="yes"/>
      <point x="428.0" y="57.99999999999999" type="line"/>
      <point x="428.0" y="25.96748450981397"/>
      <point x="453.96748450981397" y="0.0"/>
      <point x="486.0" y="0.0" type="curve"/>
      <point x="596.0" y="0.0" type="line"/>
      <point x="628.032515490186" y="0.0"/>
      <point x="654.0" y="25.96748450981397"/>
      <point x="654.0" y="57.99999999999999" type="curve"/>
      <point x="654" y="312" type="line" smooth="yes"/>
      <point x="654" y="484"/>
      <point x="556" y="557"/>
    </contour>
  </outline>
</glyph>
<glyph name="k" format="2">
  <advance width="713"/>
  <unicode hex="006B"/>
  <anchor x="323" y="0" name="bottom"/>
  <anchor x="163" y="742" name="top"/>
  <anchor x="305" y="547" name="topright"/>
  <outline>
    <contour>
      <point x="239" y="90" type="line"/>
      <point x="337" y="194" type="line"/>
      <point x="450" y="285" type="line"/>
      <point x="617.0551223481526" y="460.073768220864" type="line"/>
      <point x="648.2836520073408" y="492.8012673036932"/>
      <point x="625.0861609875483" y="547.0"/>
      <point x="579.85" y="547.0" type="curve"/>
      <point x="457.2033995262078" y="547.0" type="line"/>
      <point x="441.7150359256339" y="547.0"/>
      <point x="426.87005790562705" y="540.8051907935173"/>
      <point x="415.9759235821123" y="529.7957746253093" type="curve"/>
      <point x="244" y="356" type="line"/>
    </contour>
    <contour>
      <point x="50.0" y="57.99999999999999" type="line"/>
      <point x="50.0" y="25.96748450981397"/>
      <point x="75.96748450981397" y="0.0"/>
      <point x="108.0" y="0.0" type="curve"/>
      <point x="218.0" y="0.0" type="line"/>
      <point x="250.03251549018603" y="0.0"/>
      <point x="276.0" y="25.96748450981397"/>
      <point x="276.0" y="57.99999999999999" type="curve"/>
      <point x="276.0" y="684.0" type="line"/>
      <point x="276.0" y="716.032515490186"/>
      <point x="250.03251549018603" y="742.0"/>
      <point x="218.0" y="742.0" type="curve"/>
      <point x="108.0" y="742.0" type="line"/>
      <point x="75.96748450981397" y="742.0"/>
      <point x="50.0" y="716.032515490186"/>
      <point x="50.0" y="684.0" type="curve"/>
    </contour>
    <contour>
      <point x="427.5837121612499" y="22.060631262416802" type="line"/>
      <point x="438.58283723568377" y="8.128406168133855"/>
      <point x="455.3562041684143" y="0.0"/>
      <point x="473.1069125621886" y="0.0" type="curve"/>
      <point x="598.5742521858582" y="0.0" type="line"/>
      <point x="646.9877333023308" y="0.0"/>
      <point x="674.0929600837912" y="55.81141341461752"/>
      <point x="644.1587987520089" y="93.86152693846758" type="curve"/>
      <point x="434" y="361" type="line"/>
      <point x="295" y="190" type="line"/>
    </contour>
  </outline>
</glyph>
<glyph name="l" format="2">
  <advance width="326"/>
  <unicode hex="006C"/>
  <anchor x="163" y="0" name="bottom"/>
  <anchor x="163" y="370" name="center"/>
  <anchor x="416" y="370" name="dot"/>
  <anchor x="163" y="742" name="top"/>
  <anchor x="346" y="742" name="topright"/>
  <outline>
    <contour>
      <point x="50.0" y="57.99999999999999" type="line"/>
      <point x="50.0" y="25.96748450981397"/>
      <point x="75.96748450981397" y="0.0"/>
      <point x="108.0" y="0.0" type="curve"/>
      <point x="218.0" y="0.0" type="line"/>
      <point x="250.03251549018603" y="0.0"/>
      <point x="276.0" y="25.96748450981397"/>
      <point x="276.0" y="57.99999999999999" type="curve"/>
      <point x="276.0" y="684.0" type="line"/>
      <point x="276.0" y="716.032515490186"/>
      <point x="250.03251549018603" y="742.0"/>
      <point x="218.0" y="742.0" type="curve"/>
      <point x="108.0" y="742.0" type="line"/>
      <point x="75.96748450981397" y="742.0"/>
      <point x="50.0" y="716.032515490186"/>
      <point x="50.0" y="684.0" type="curve"/>
    </contour>
  </outline>
</glyph>
<glyph name="n" format="2">
  <advance width="702"/>
  <unicode hex="006E"/>
  <anchor x="355" y="0" name="bottom"/>
  <anchor x="355" y="547" name="top"/>
  <outline>
    <contour>
      <point x="430" y="557" type="curve" smooth="yes"/>
      <point x="341" y="557"/>
      <point x="264" y="516"/>
      <point x="222" y="433" type="curve"/>
      <point x="265" y="387" type="line"/>
      <point x="265.0" y="489.0" type="line"/>
      <point x="265.0" y="521.032515490186"/>
      <point x="239.03251549018603" y="547.0"/>
      <point x="207.0" y="547.0" type="curve"/>
      <point x="108.0" y="547.0" type="line"/>
      <point x="75.96748450981397" y="547.0"/>
      <point x="50.0" y="521.032515490186"/>
      <point x="50.0" y="489.0" type="curve"/>
      <point x="50.0" y="57.99999999999999" type="line"/>
      <point x="50.0" y="25.96748450981397"/>
      <point x="75.96748450981397" y="0.0"/>
      <point x="108.0" y="0.0" type="curve"/>
      <point x="218.0" y="0.0" type="line"/>
      <point x="250.03251549018603" y="0.0"/>
      <point x="276.0" y="25.96748450981397"/>
      <point x="276.0" y="57.99999999999999" type="curve"/>
      <point x="276" y="257" type="line" smooth="yes"/>
      <point x="276" y="338"/>
      <point x="315" y="367"/>
      <point x="361" y="367" type="curve" smooth="yes"/>
      <point x="402" y="367"/>
      <point x="428" y="341"/>
      <point x="428" y="273" type="curve" smooth="yes"/>
      <point x="428.0" y="57.99999999999999" type="line"/>
      <point x="428.0" y="25.96748450981397"/>
      <point x="453.96748450981397" y="0.0"/>
      <point x="486.0" y="0.0" type="curve"/>
      <point x="596.0" y="0.0" type="line"/>
      <point x="628.032515490186" y="0.0"/>
      <point x="654.0" y="25.96748450981397"/>
      <point x="654.0" y="57.99999999999999" type="curve"/>
      <point x="654" y="312" type="line" smooth="yes"/>
      <point x="654" y="484"/>
      <point x="556" y="557"/>
    </contour>
  </outline>
</glyph>
<glyph name="q" format="2">
  <advance width="700"/>
  <unicode hex="0071"/>
  <anchor x="288" y="0" name="bottom"/>
  <anchor x="339" y="547" name="top"/>
  <outline>
    <contour>
      <point x="285" y="-10" type="curve" smooth="yes"/>
      <point x="428" y="-10"/>
      <point x="493" y="79"/>
      <point x="493" y="273" type="curve" smooth="yes"/>
      <point x="493" y="470"/>
      <point x="436" y="557"/>
      <point x="285" y="557" type="curve" smooth="yes"/>
      <point x="142" y="557"/>
      <point x="21" y="449"/>
      <point x="21" y="273" type="curve" smooth="yes"/>
      <point x="21" y="97"/>
      <point x="142" y="-10"/>
    </contour>
    <contour>
      <point x="339" y="166" type="curve" smooth="yes"/>
      <point x="289" y="166"/>
      <point x="250" y="202"/>
      <point x="250" y="273" type="curve" smooth="yes"/>
      <point x="250" y="344"/>
      <point x="289" y="381"/>
      <point x="339" y="381" type="curve" smooth="yes"/>
      <point x="389" y="381"/>
      <point x="428" y="344"/>
      <point x="428" y="273" type="curve" smooth="yes"/>
      <point x="428" y="202"/>
      <point x="389" y="166"/>
    </contour>
    <contour>
      <point x="424.0" y="-136.0" type="line"/>
      <point x="424.0" y="-168.03251549018603"/>
      <point x="449.96748450981397" y="-194.0"/>
      <point x="482.0" y="-194.0" type="curve"/>
      <point x="592.0" y="-194.0" type="line"/>
      <point x="624.032515490186" y="-194.0"/>
      <point x="650.0" y="-168.03251549018603"/>
      <point x="650.0" y="-136.0" type="curve"/>
      <point x="650.0" y="489.0" type="line"/>
      <point x="650.0" y="521.032515490186"/>
      <point x="624.032515490186" y="547.0"/>
      <point x="592.0" y="547.0" type="curve"/>
      <point x="468.3" y="547.0" type="line"/>
      <point x="449.9089178306346" y="547.0"/>
      <point x="435.0" y="532.0910821693654"/>
      <point x="435.0" y="513.7" type="curve"/>
      <point x="435" y="473" type="line"/>
      <point x="434" y="273" type="line"/>
      <point x="424" y="73" type="line"/>
    </contour>
  </outline>
</glyph>
<glyph name="r" format="2">
  <advance width="456"/>
  <unicode hex="0072"/>
  <anchor x="163" y="0" name="bottom"/>
  <anchor x="245" y="547" name="top"/>
  <outline>
    <contour>
      <point x="50.0" y="57.99999999999999" type="line"/>
      <point x="50.0" y="25.96748450981397"/>
      <point x="75.96748450981397" y="0.0"/>
      <point x="108.0" y="0.0" type="curve"/>
      <point x="218.0" y="0.0" type="line"/>
      <point x="250.03251549018603" y="0.0"/>
      <point x="276.0" y="25.96748450981397"/>
      <point x="276.0" y="57.99999999999999" type="curve"/>
      <point x="276" y="243" type="line" smooth="yes"/>
      <point x="276" y="330"/>
      <point x="324" y="361"/>
      <point x="392" y="361" type="curve" smooth="yes"/>
      <point x="408" y="361"/>
      <point x="422" y="360"/>
      <point x="442" y="357" type="curve"/>
      <point x="442" y="557" type="line"/>
      <point x="339" y="557"/>
      <point x="263" y="514"/>
      <point x="230" y="429" type="curve"/>
      <point x="249.25" y="403.15" type="line"/>
      <point x="254.275661167827" y="396.40125500320374"/>
      <point x="265.0" y="399.95571187824515"/>
      <point x="265.0" y="408.3701535831705" type="curve"/>
      <point x="265.0" y="489.0" type="line"/>
      <point x="265.0" y="521.032515490186"/>
      <point x="239.03251549018603" y="547.0"/>
      <point x="207.0" y="547.0" type="curve"/>
      <point x="108.0" y="547.0" type="line"/>
      <point x="75.96748450981397" y="547.0"/>
      <point x="50.0" y="521.032515490186"/>
      <point x="50.0" y="489.0" type="curve"/>
    </contour>
  </outline>
</glyph>
<glyph name="s" format="2">
  <advance width="565"/>
  <unicode hex="0073"/>
  <anchor x="276" y="0" name="bottom"/>
  <anchor x="276" y="547" name="top"/>
  <outline>
    <contour>
      <point x="264" y="-10" type="curve" smooth="yes"/>
      <point x="454" y="-10"/>
      <point x="547" y="76"/>
      <point x="547" y="175" type="curve" smooth="yes"/>
      <point x="547" y="394"/>
      <point x="233" y="320"/>
      <point x="233" y="377" type="curve" smooth="yes"/>
      <point x="233" y="390"/>
      <point x="249" y="403"/>
      <point x="307" y="403" type="curve" smooth="yes"/>
      <point x="345.923770010736" y="403.0"/>
      <point x="392.0075583194336" y="396.55598353183456"/>
      <point x="439.19278002386415" y="375.79179022260644" type="curve"/>
      <point x="453.2537899213224" y="369.60414254209593"/>
      <point x="470.1637997710258" y="375.4097768690782"/>
      <point x="476.0656009454928" y="389.5931377561037" type="curve"/>
      <point x="515.711126138279" y="484.870287009735" type="line"/>
      <point x="522.0917733823837" y="500.2044231286317"/>
      <point x="515.6683092634943" y="517.9976858957867"/>
      <point x="500.2149895396544" y="524.0840065642477" type="curve"/>
      <point x="444.49863825522334" y="546.0280021880826"/>
      <point x="372.42065282562544" y="557.0"/>
      <point x="304" y="557" type="curve" smooth="yes"/>
      <point x="120" y="557"/>
      <point x="24" y="473"/>
      <point x="24" y="370" type="curve" smooth="yes"/>
      <point x="24" y="151"/>
      <point x="339" y="226"/>
      <point x="339" y="170" type="curve" smooth="yes"/>
      <point x="339" y="154"/>
      <point x="324" y="144"/>
      <point x="269" y="144" type="curve" smooth="yes"/>
      <point x="213.48954770671435" y="144.0"/>
      <point x="151.41514444911004" y="157.1279019286373"/>
      <point x="102.0851739753385" y="180.26945034266166" type="curve"/>
      <point x="89.07414674802496" y="186.37314985039106"/>
      <point x="73.05524388541569" y="181.11663449882158"/>
      <point x="67.53404141442394" y="167.8479382378898" type="curve"/>
      <point x="27.150354826065776" y="70.79682046909356" type="line"/>
      <point x="20.779520320383494" y="55.48626657640549"/>
      <point x="26.788926013544383" y="37.702689623536926"/>
      <point x="42.008730425711036" y="31.117999315322717" type="curve"/>
      <point x="99.50277070825325" y="6.243799911952098"/>
      <point x="183.22809443703136" y="-10.0"/>
    </contour>
  </outline>
</glyph>
<glyph name="t" format="2">
  <advance width="460"/>
  <unicode hex="0074"/>
  <anchor x="274" y="0" name="bottom"/>
  <anchor x="207" y="261" name="center"/>
  <anchor x="188" y="670" name="top"/>
  <anchor x="349" y="742" name="topright"/>
  <outline>
    <contour>
      <point x="314" y="-10" type="curve" smooth="yes"/>
      <point x="367" y="-10"/>
      <point x="418" y="-1"/>
      <point x="453" y="19" type="curve"/>
      <point x="399" y="176" type="line"/>
      <point x="384" y="166"/>
      <point x="366" y="161"/>
      <point x="348" y="161" type="curve" smooth="yes"/>
      <point x="321" y="161"/>
      <point x="301" y="180"/>
      <point x="301" y="214" type="curve" smooth="yes"/>
      <point x="301.0" y="612.0" type="line"/>
      <point x="301.0" y="644.032515490186"/>
      <point x="275.03251549018603" y="670.0"/>
      <point x="243.0" y="670.0" type="curve"/>
      <point x="133.0" y="670.0" type="line"/>
      <point x="100.96748450981397" y="670.0"/>
      <point x="75.0" y="644.032515490186"/>
      <point x="75.0" y="612.0" type="curve"/>
      <point x="75" y="212" type="line" smooth="yes"/>
      <point x="75" y="61"/>
      <point x="163" y="-10"/>
    </contour>
    <contour>
      <point x="0.0" y="410.0" type="line"/>
      <point x="0.0" y="377.96748450981397"/>
      <point x="25.96748450981397" y="352.0"/>
      <point x="57.99999999999999" y="352.0" type="curve"/>
      <point x="355.0" y="352.0" type="line"/>
      <point x="387.03251549018603" y="352.0"/>
      <point x="413.0" y="377.96748450981397"/>
      <point x="413.0" y="410.0" type="curve"/>
      <point x="413.0" y="459.0" type="line"/>
      <point x="413.0" y="491.03251549018603"/>
      <point x="387.03251549018603" y="517.0"/>
      <point x="355.0" y="517.0" type="curve"/>
      <point x="57.99999999999999" y="517.0" type="line"/>
      <point x="25.96748450981397" y="517.0"/>
      <point x="0.0" y="491.03251549018603"/>
      <point x="0.0" y="459.0" type="curve"/>
    </contour>
  </outline>
</glyph>
<glyph name="u" format="2">
  <advance width="698"/>
  <unicode hex="0075"/>
  <anchor x="348" y="0" name="bottom"/>
  <anchor x="648" y="0" name="ogonek"/>
  <anchor x="348" y="547" name="top"/>
  <anchor x="535" y="547" name="topright"/>
  <outline>
    <contour>
      <point x="278" y="-10" type="curve" smooth="yes"/>
      <point x="361" y="-10"/>
      <point x="437" y="30"/>
      <point x="476" y="115" type="curve"/>
      <point x="452.35" y="138.65" type="line"/>
      <point x="445.2093687290148" y="145.79063127098522"/>
      <point x="433.0" y="140.73334515541333"/>
      <point x="433.0" y="130.6349675680806" type="curve"/>
      <point x="433.0" y="57.99999999999999" type="line"/>
      <point x="433.0" y="25.96748450981397"/>
      <point x="458.96748450981397" y="0.0"/>
      <point x="491.0" y="0.0" type="curve"/>
      <point x="590.0" y="0.0" type="line"/>
      <point x="622.032515490186" y="0.0"/>
      <point x="648.0" y="25.96748450981397"/>
      <point x="648.0" y="57.99999999999999" type="curve"/>
      <point x="648.0" y="489.0" type="line"/>
      <point x="648.0" y="521.032515490186"/>
      <point x="622.032515490186" y="547.0"/>
      <point x="590.0" y="547.0" type="curve"/>
      <point x="480.0" y="547.0" type="line"/>
      <point x="447.96748450981397" y="547.0"/>
      <point x="422.0" y="521.032515490186"/>
      <point x="422.0" y="489.0" type="curve"/>
      <point x="422" y="290" type="line" smooth="yes"/>
      <point x="422" y="209"/>
      <point x="384" y="180"/>
      <point x="345" y="180" type="curve" smooth="yes"/>
      <point x="301" y="180"/>
      <point x="274" y="206"/>
      <point x="274" y="284" type="curve" smooth="yes"/>
      <point x="274.0" y="489.0" type="line"/>
      <point x="274.0" y="521.032515490186"/>
      <point x="248.03251549018603" y="547.0"/>
      <point x="216.0" y="547.0" type="curve"/>
      <point x="106.0" y="547.0" type="line"/>
      <point x="73.96748450981397" y="547.0"/>
      <point x="48.0" y="521.032515490186"/>
      <point x="48.0" y="489.0" type="curve"/>
      <point x="48" y="245" type="line" smooth="yes"/>
      <point x="48" y="67"/>
      <point x="147" y="-10"/>
    </contour>
  </outline>
</glyph>
<glyph name="v" format="2">
  <advance width="644"/>
  <unicode hex="0076"/>
  <anchor x="322" y="0" name="bottom"/>
  <anchor x="322" y="547" name="top"/>
  <outline>
    <contour>
      <point x="190.37719423240415" y="36.35761252215876" type="line"/>
      <point x="199.21195275449404" y="14.391190196780698"/>
      <point x="220.51153913047077" y="0.0"/>
      <point x="244.18803946140034" y="0.0" type="curve"/>
      <point x="399.8119605385997" y="0.0" type="line"/>
      <point x="423.48846086952926" y="0.0"/>
      <point x="444.78804724550594" y="14.391190196780698"/>
      <point x="453.6228057675958" y="36.35761252215876" type="curve"/>
      <point x="626.9683267913618" y="467.3576125221588" type="line"/>
      <point x="642.2970253750615" y="505.4703312734483"/>
      <point x="614.2372616358375" y="547.0"/>
      <point x="573.1574815623657" y="547.0" type="curve"/>
      <point x="484.2350843432722" y="547.0" type="line"/>
      <point x="460.5350393160577" y="547.0"/>
      <point x="439.2192342863994" y="532.5805619278726"/>
      <point x="430.4001766118881" y="510.58246300942875" type="curve"/>
      <point x="267" y="103" type="line"/>
      <point x="384" y="103" type="line"/>
      <point x="231.13529125594593" y="509.4187466009581" type="line"/>
      <point x="222.63122101459211" y="532.0283704761742"/>
      <point x="201.0043649480905" y="547.0"/>
      <point x="176.8483242450154" y="547.0" type="curve"/>
      <point x="70.84251843763433" y="547.0" type="line"/>
      <point x="29.762738364162495" y="547.0"/>
      <point x="1.7029746249385234" y="505.4703312734483"/>
      <point x="17.03167320863816" y="467.3576125221588" type="curve"/>
    </contour>
  </outline>
</glyph>
<glyph name="w" format="2">
  <advance width="977"/>
  <unicode hex="0077"/>
  <anchor x="489" y="0" name="bottom"/>
  <anchor x="489" y="547" name="top"/>
  <outline>
    <contour>
      <point x="170.4641100301908" y="38.96911480781911" type="line"/>
      <point x="178.5676856815136" y="15.639347011642347"/>
      <point x="200.55594194859952" y="0.0"/>
      <point x="225.2530268729431" y="0.0" type="curve"/>
      <point x="362.4949927861974" y="0.0" type="line"/>
      <point x="387.3148127417774" y="0.0"/>
      <point x="409.3838749084913" y="15.792699731574409"/>
      <point x="417.39258370055273" y="39.284912188287954" type="curve"/>
      <point x="524" y="352" type="line"/>
      <point x="458" y="352" type="line"/>
      <point x="559.9357283539825" y="39.98803147302722" type="line"/>
      <point x="567.7282769584189" y="16.13605661423077"/>
      <point x="589.9753758981884" y="0.0"/>
      <point x="615.068014627847" y="0.0" type="curve"/>
      <point x="751.7469731270569" y="0.0" type="line"/>
      <point x="776.4440580514005" y="0.0"/>
      <point x="798.4323143184864" y="15.639347011642347"/>
      <point x="806.5358899698092" y="38.96911480781911" type="curve"/>
      <point x="956.2433853994253" y="469.9691148078191" type="line"/>
      <point x="969.3337874909372" y="507.6556934607508"/>
      <point x="941.3497920605759" y="547.0"/>
      <point x="901.454468556673" y="547.0" type="curve"/>
      <point x="826.7148386819729" y="547.0" type="line"/>
      <point x="801.7931119443043" y="547.0"/>
      <point x="779.6572912252237" y="531.0794449932841"/>
      <point x="771.728473233328" y="507.45263164830646" type="curve"/>
      <point x="636" y="103" type="line"/>
      <point x="736" y="103" type="line"/>
      <point x="605.0075873017822" y="506.8932724861713" type="line"/>
      <point x="597.252199926895" y="530.8057168920736"/>
      <point x="574.975300018745" y="547.0"/>
      <point x="549.8366638027541" y="547.0" type="curve"/>
      <point x="441.5371980878128" y="547.0" type="line"/>
      <point x="416.70172671021123" y="547.0"/>
      <point x="394.62239161964453" y="531.1876945637231"/>
      <point x="386.6258867475696" y="507.6747928206683" type="curve"/>
      <point x="249" y="103" type="line"/>
      <point x="352" y="103" type="line"/>
      <point x="221.00758730178228" y="506.8932724861713" type="line"/>
      <point x="213.25219992689503" y="530.8057168920736"/>
      <point x="190.97530001874497" y="547.0"/>
      <point x="165.83666380275406" y="547.0" type="curve"/>
      <point x="75.54553144332705" y="547.0" type="line"/>
      <point x="35.65020793942415" y="547.0"/>
      <point x="7.666212509062788" y="507.6556934607508"/>
      <point x="20.756614600574714" y="469.9691148078191" type="curve"/>
    </contour>
  </outline>
</glyph>
<glyph name="x" format="2">
  <advance width="645"/>
  <unicode hex="0078"/>
  <outline>
    <contour>
      <point x="57.89435690456568" y="87.6367931540434" type="line"/>
      <point x="30.494201596134047" y="51.740465656950796"/>
      <point x="56.09122633745796" y="0.0"/>
      <point x="101.25" y="0.0" type="curve"/>
      <point x="206.2099026020191" y="0.0" type="line"/>
      <point x="224.90883729988258" y="0.0"/>
      <point x="242.4608123552782" y="9.015087007364944"/>
      <point x="253.3532960013091" y="24.2139013971755" type="curve"/>
      <point x="365" y="180" type="line"/>
      <point x="270" y="193" type="line"/>
      <point x="377.85588623716507" y="26.47051164981718" type="line"/>
      <point x="388.5462106769863" y="9.96465071473326"/>
      <point x="406.8720537605117" y="0.0"/>
      <point x="426.5374162498473" y="0.0" type="curve"/>
      <point x="539.6140496228982" y="0.0" type="line"/>
      <point x="587.1084465840888" y="0.0"/>
      <point x="614.4699729914971" y="53.961624170337274"/>
      <point x="586.4028300002889" y="92.2755019043676" type="curve"/>
      <point x="402" y="344" type="line"/>
      <point x="402" y="219" type="line"/>
      <point x="584.8438869942664" y="461.804837789957" type="line"/>
      <point x="611.2420417044518" y="496.8598772431587"/>
      <point x="586.2330076814296" y="547.0"/>
      <point x="542.35" y="547.0" type="curve"/>
      <point x="442.0146757342029" y="547.0" type="line"/>
      <point x="423.19049932108135" y="547.0"/>
      <point x="405.5370914817707" y="537.8644601396458"/>
      <point x="394.66546488153256" y="522.497048103219" type="curve"/>
      <point x="279" y="359" type="line"/>
      <point x="373" y="366" type="line"/>
      <point x="269.22474338096356" y="521.2340615540958" type="line"/>
      <point x="258.4617291829583" y="537.3341075858226"/>
      <point x="240.37315949209125" y="547.0"/>
      <point x="221.00684965128306" y="547.0" type="curve"/>
      <point x="110.7504901036002" y="547.0" type="line"/>
      <point x="63.37586381929599" y="547.0"/>
      <point x="35.98384728258723" y="493.27835679350784"/>
      <point x="63.80789490876765" y="454.9354618940153" type="curve"/>
      <point x="243" y="208" type="line"/>
      <point x="249" y="338" type="line"/>
    </contour>
  </outline>
</glyph>
<glyph name="y" format="2">
  <advance width="644"/>
  <unicode hex="0079"/>
  <guideline x="346" y="325" angle="68.1541"/>
  <anchor x="527" y="0" name="bottom"/>
  <anchor x="313" y="547" name="top"/>
  <outline>
    <contour>
      <point x="170" y="-204" type="curve" smooth="yes"/>
      <point x="286" y="-204"/>
      <point x="374" y="-161"/>
      <point x="434" y="-11" type="curve" smooth="yes"/>
      <point x="626.8668695730554" y="467.30983654117745" type="line"/>
      <point x="642.2376395560295" y="505.4293460989533"/>
      <point x="614.177059518432" y="547.0"/>
      <point x="573.0752641951756" y="547.0" type="curve"/>
      <point x="484.5472054264933" y="547.0" type="line"/>
      <point x="460.6912992881325" y="547.0"/>
      <point x="439.26851948858064" y="532.3929125251826"/>
      <point x="430.55479485663284" y="510.18536289176143" type="curve"/>
      <point x="270" y="101" type="line"/>
      <point x="254" y="79" type="line"/>
      <point x="231" y="21" type="line" smooth="yes"/>
      <point x="218" y="-12"/>
      <point x="199" y="-29"/>
      <point x="159" y="-29" type="curve" smooth="yes"/>
      <point x="135.97473292840505" y="-29.0"/>
      <point x="110.04047862104453" y="-20.273038292703294"/>
      <point x="89.25966952373065" y="-7.160424656624151" type="curve"/>
      <point x="83.8059597212065" y="-3.7191539539814755"/>
      <point x="76.35935578082899" y="-5.457331386286762"/>
      <point x="73.55056878287108" y="-11.26215784873311" type="curve"/>
      <point x="13.336383367476168" y="-135.7048077072159" type="line"/>
      <point x="7.86662847811649" y="-147.00896781189257"/>
      <point x="10.846756972739032" y="-160.76454577983733"/>
      <point x="21.665030275111018" y="-167.14163108403574" type="curve"/>
      <point x="60.498959216450224" y="-190.03320265320664"/>
      <point x="118.55740529562354" y="-204.0"/>
    </contour>
    <contour>
      <point x="223" y="-25" type="line"/>
      <point x="381" y="121" type="line"/>
      <point x="231.30656917794232" y="509.8378142085156" type="line"/>
      <point x="222.68686572055634" y="532.22801953075"/>
      <point x="201.1711703304526" y="547.0"/>
      <point x="177.1790761728956" y="547.0" type="curve"/>
      <point x="71.95320839310396" y="547.0" type="line"/>
      <point x="30.578015614794047" y="547.0"/>
      <point x="2.509108880116596" y="504.91928454022394"/>
      <point x="18.40367439639364" y="466.71890019017997" type="curve"/>
    </contour>
  </outline>
</glyph>
<glyph name="z" format="2">
  <advance width="570"/>
  <unicode hex="007A"/>
  <anchor x="290" y="0" name="bottom"/>
  <anchor x="290" y="547" name="top"/>
  <outline>
    <contour>
      <point x="30.0" y="57.99999999999999" type="line"/>
      <point x="30.0" y="25.96748450981397"/>
      <point x="55.96748450981397" y="0.0"/>
      <point x="88.0" y="0.0" type="curve"/>
      <point x="494.0" y="0.0" type="line"/>
      <point x="526.032515490186" y="0.0"/>
      <point x="552.0" y="25.96748450981397"/>
      <point x="552.0" y="57.99999999999999" type="curve"/>
      <point x="552.0" y="107.0" type="line"/>
      <point x="552.0" y="139.03251549018603"/>
      <point x="526.032515490186" y="165.0"/>
      <point x="494.0" y="165.0" type="curve"/>
      <point x="249.4277709996096" y="165.0" type="line"/>
      <point x="232.79009111839764" y="165.0"/>
      <point x="222.0454345154649" y="147.39807337531153"/>
      <point x="229.65" y="132.6" type="curve"/>
      <point x="233.35" y="125.4" type="line"/>
      <point x="241.38566561377465" y="109.76302907589798"/>
      <point x="262.5935635060463" y="107.02169957374227"/>
      <point x="274.3411531262313" y="120.10149007869052" type="curve"/>
      <point x="526.1507715523109" y="400.46683842937705" type="line"/>
      <point x="535.711386701593" y="411.1116470491963"/>
      <point x="541.0" y="424.91467820529215"/>
      <point x="541.0" y="439.22262399024885" type="curve"/>
      <point x="541.0" y="489.0" type="line"/>
      <point x="541.0" y="521.032515490186"/>
      <point x="515.032515490186" y="547.0"/>
      <point x="483.0" y="547.0" type="curve"/>
      <point x="96.0" y="547.0" type="line"/>
      <point x="63.96748450981397" y="547.0"/>
      <point x="38.0" y="521.032515490186"/>
      <point x="38.0" y="489.0" type="curve"/>
      <point x="38.0" y="440.0" type="line"/>
      <point x="38.0" y="407.96748450981397"/>
      <point x="63.96748450981397" y="382.0"/>
      <point x="96.0" y="382.0" type="curve"/>
      <point x="321.5722290003904" y="382.0" type="line"/>
      <point x="338.20990888160236" y="382.0"/>
      <point x="348.95456548453507" y="399.6019266246885"/>
      <point x="341.35" y="414.4" type="curve"/>
      <point x="337.65" y="421.6" type="line"/>
      <point x="329.6143343862253" y="437.236970924102"/>
      <point x="308.4064364939537" y="439.9783004262577"/>
      <point x="296.6588468737687" y="426.8985099213095" type="curve"/>
      <point x="44.84922844768913" y="146.53316157062295" type="line"/>
      <point x="35.28861329840702" y="135.8883529508037"/>
      <point x="30.0" y="122.08532179470787"/>
      <point x="30.0" y="107.77737600975115" type="curve"/>
    </contour>
  </outline>
</glyph>
<glyph name="braceleft" format="2">
  <advance width="438"/>
  <unicode hex="007B"/>
  <outline>
    <contour>
      <point x="354" y="-194" type="curve" smooth="yes"/>
      <point x="394.7" y="-194.0" type="line"/>
      <point x="413.09108216936545" y="-194.0"/>
      <point x="428.0" y="-179.09108216936542"/>
      <point x="428.0" y="-160.7" type="curve"/>
      <point x="428.0" y="-28.5" type="line"/>
      <point x="428.0" y="-26.01471862576143"/>
      <point x="425.9852813742386" y="-24.0"/>
      <point x="423.5" y="-24.0" type="curve"/>
      <point x="418" y="-24" type="line" smooth="yes"/>
      <point x="371" y="-24"/>
      <point x="347" y="1"/>
      <point x="347" y="45" type="curve" smooth="yes"/>
      <point x="347" y="140" type="line" smooth="yes"/>
      <point x="347" y="250"/>
      <point x="300" y="278"/>
      <point x="192" y="286" type="curve"/>
      <point x="192" y="262" type="line"/>
      <point x="300" y="270"/>
      <point x="347" y="298"/>
      <point x="347" y="408" type="curve" smooth="yes"/>
      <point x="347" y="503" type="line" smooth="yes"/>
      <point x="347" y="547"/>
      <point x="371" y="572"/>
      <point x="418" y="572" type="curve" smooth="yes"/>
      <point x="423.5" y="572.0" type="line"/>
      <point x="425.9852813742386" y="572.0"/>
      <point x="428.0" y="574.0147186257615"/>
      <point x="428.0" y="576.5" type="curve"/>
      <point x="428.0" y="708.7" type="line"/>
      <point x="428.0" y="727.0910821693654"/>
      <point x="413.09108216936545" y="742.0"/>
      <point x="394.7" y="742.0" type="curve"/>
      <point x="354" y="742" type="line" smooth="yes"/>
      <point x="199" y="742"/>
      <point x="121" y="664"/>
      <point x="121" y="529" type="curve" smooth="yes"/>
      <point x="121" y="403" type="line" smooth="yes"/>
      <point x="121" y="373"/>
      <point x="103" y="359"/>
      <point x="78" y="359" type="curve" smooth="yes"/>
      <point x="59.85" y="359.0" type="line"/>
      <point x="51.648571465012715" y="359.0"/>
      <point x="45.0" y="352.3514285349873"/>
      <point x="45.0" y="344.15" type="curve"/>
      <point x="45.0" y="203.85" type="line"/>
      <point x="45.0" y="195.6485714650127"/>
      <point x="51.648571465012715" y="189.0"/>
      <point x="59.85" y="189.0" type="curve"/>
      <point x="78" y="189" type="line" smooth="yes"/>
      <point x="103" y="189"/>
      <point x="121" y="175"/>
      <point x="121" y="145" type="curve" smooth="yes"/>
      <point x="121" y="19" type="line" smooth="yes"/>
      <point x="121" y="-116"/>
      <point x="199" y="-194"/>
    </contour>
  </outline>
</glyph>
<glyph name="braceright" format="2">
  <advance width="438"/>
  <unicode hex="007D"/>
  <outline>
    <contour>
      <point x="84" y="-194" type="line" smooth="yes"/>
      <point x="239" y="-194"/>
      <point x="317" y="-116"/>
      <point x="317" y="19" type="curve" smooth="yes"/>
      <point x="317" y="145" type="line" smooth="yes"/>
      <point x="317" y="175"/>
      <point x="335" y="189"/>
      <point x="360" y="189" type="curve" smooth="yes"/>
      <point x="378.15" y="189.0" type="line"/>
      <point x="386.3514285349873" y="189.0"/>
      <point x="393.0" y="195.6485714650127"/>
      <point x="393.0" y="203.85" type="curve"/>
      <point x="393.0" y="344.15" type="line"/>
      <point x="393.0" y="352.3514285349873"/>
      <point x="386.3514285349873" y="359.0"/>
      <point x="378.15" y="359.0" type="curve"/>
      <point x="360" y="359" type="line" smooth="yes"/>
      <point x="335" y="359"/>
      <point x="317" y="373"/>
      <point x="317" y="403" type="curve" smooth="yes"/>
      <point x="317" y="529" type="line" smooth="yes"/>
      <point x="317" y="664"/>
      <point x="239" y="742"/>
      <point x="84" y="742" type="curve" smooth="yes"/>
      <point x="43.300000000000004" y="742.0" type="line"/>
      <point x="24.90891783063458" y="742.0"/>
      <point x="10.0" y="727.0910821693654"/>
      <point x="10.0" y="708.7" type="curve"/>
      <point x="10.0" y="576.5" type="line"/>
      <point x="10.0" y="574.0147186257615"/>
      <point x="12.014718625761429" y="572.0"/>
      <point x="14.5" y="572.0" type="curve"/>
      <point x="20" y="572" type="line" smooth="yes"/>
      <point x="67" y="572"/>
      <point x="91" y="547"/>
      <point x="91" y="503" type="curve" smooth="yes"/>
      <point x="91" y="408" type="line" smooth="yes"/>
      <point x="91" y="298"/>
      <point x="138" y="270"/>
      <point x="246" y="262" type="curve"/>
      <point x="246" y="286" type="line"/>
      <point x="138" y="278"/>
      <point x="91" y="250"/>
      <point x="91" y="140" type="curve" smooth="yes"/>
      <point x="91" y="45" type="line" smooth="yes"/>
      <point x="91" y="1"/>
      <point x="67" y="-24"/>
      <point x="20" y="-24" type="curve" smooth="yes"/>
      <point x="14.5" y="-24.0" type="line"/>
      <point x="12.014718625761429" y="-24.0"/>
      <point x="10.0" y="-26.01471862576143"/>
      <point x="10.0" y="-28.5" type="curve"/>
      <point x="10.0" y="-160.7" type="line"/>
      <point x="10.0" y="-179.09108216936542"/>
      <point x="24.90891783063458" y="-194.0"/>
      <point x="43.300000000000004" y="-194.0" type="curve"/>
    </contour>
  </outline>
</glyph>
<glyph name="asciitilde" format="2">
  <advance width="620"/>
  <unicode hex="007E"/>
  <outline>
    <contour>
      <point x="409" y="235" type="curve" smooth="yes"/>
      <point x="493.1559091135182" y="235.0"/>
      <point x="556.3563755045633" y="294.2533208014758"/>
      <point x="574.645478241664" y="397.4036028329715" type="curve"/>
      <point x="580.2947717954136" y="429.26553896644185"/>
      <point x="553.5183499314921" y="456.0"/>
      <point x="521.1594641065788" y="456.0" type="curve"/>
      <point x="442" y="456" type="line"/>
      <point x="440" y="416"/>
      <point x="420" y="393"/>
      <point x="391" y="393" type="curve" smooth="yes"/>
      <point x="346" y="393"/>
      <point x="302" y="468"/>
      <point x="211" y="468" type="curve" smooth="yes"/>
      <point x="126.84409088648181" y="468.0"/>
      <point x="63.64362449543676" y="408.7466791985242"/>
      <point x="45.354521758335935" y="305.5963971670285" type="curve"/>
      <point x="39.705228204586305" y="273.73446103355815"/>
      <point x="66.4816500685078" y="247.0"/>
      <point x="98.84053589342122" y="247.0" type="curve"/>
      <point x="178" y="247" type="line"/>
      <point x="180" y="287"/>
      <point x="200" y="310"/>
      <point x="229" y="310" type="curve" smooth="yes"/>
      <point x="274" y="310"/>
      <point x="318" y="235"/>
    </contour>
  </outline>
</glyph>
<glyph name="exclamdown" format="2">
  <advance width="314"/>
  <unicode hex="00A1"/>
  <outline>
    <contour>
      <point x="252.4046326726112" y="226.99542339465216" type="line"/>
      <point x="249.33339026023256" y="256.54760038487325"/>
      <point x="224.42667595182553" y="279.0"/>
      <point x="194.71533645295833" y="279.0" type="curve"/>
      <point x="119.28466354704167" y="279.0" type="line"/>
      <point x="89.57332404817447" y="279.0"/>
      <point x="64.66660973976742" y="256.54760038487325"/>
      <point x="61.59536732738879" y="226.99542339465216" type="curve"/>
      <point x="28.650794579120895" y="-90.00457660534785" type="line"/>
      <point x="25.094472302561336" y="-124.22429984424315"/>
      <point x="51.936066518446566" y="-154.0"/>
      <point x="86.34009079877379" y="-154.0" type="curve"/>
      <point x="227.6599092012262" y="-154.0" type="line"/>
      <point x="262.0639334815534" y="-154.0"/>
      <point x="288.9055276974387" y="-124.22429984424315"/>
      <point x="285.3492054208791" y="-90.00457660534785" type="curve"/>
    </contour>
    <contour>
      <point x="157" y="557" type="curve" smooth="yes"/>
      <point x="79" y="557"/>
      <point x="25" y="503"/>
      <point x="25" y="437" type="curve" smooth="yes"/>
      <point x="25" y="370"/>
      <point x="79" y="319"/>
      <point x="157" y="319" type="curve" smooth="yes"/>
      <point x="235" y="319"/>
      <point x="289" y="370"/>
      <point x="289" y="437" type="curve" smooth="yes"/>
      <point x="289" y="503"/>
      <point x="235" y="557"/>
    </contour>
  </outline>
</glyph>
<glyph name="cent" format="2">
  <advance width="615"/>
  <unicode hex="00A2"/>
  <outline>
    <contour>
      <point x="263.0" y="-62.00000000000001" type="line"/>
      <point x="263.0" y="-94.03251549018603"/>
      <point x="288.96748450981397" y="-120.0"/>
      <point x="321.0" y="-120.0" type="curve"/>
      <point x="346.0" y="-120.0" type="line"/>
      <point x="378.03251549018603" y="-120.0"/>
      <point x="404.0" y="-94.03251549018603"/>
      <point x="404.0" y="-62.00000000000001" type="curve"/>
      <point x="404.0" y="609.0" type="line"/>
      <point x="404.0" y="641.032515490186"/>
      <point x="378.03251549018603" y="667.0"/>
      <point x="346.0" y="667.0" type="curve"/>
      <point x="321.0" y="667.0" type="line"/>
      <point x="288.96748450981397" y="667.0"/>
      <point x="263.0" y="641.032515490186"/>
      <point x="263.0" y="609.0" type="curve"/>
    </contour>
    <contour>
      <point x="344" y="-10" type="curve" smooth="yes"/>
      <point x="456.6466917864477" y="-10.0"/>
      <point x="545.6206973484497" y="33.758601808824004"/>
      <point x="592.0871696923045" y="108.51671552751301" type="curve"/>
      <point x="606.6018407352731" y="131.86880949302582"/>
      <point x="594.372335970265" y="161.15416632318403"/>
      <point x="569.6956962314861" y="173.2809721376697" type="curve"/>
      <point x="460.59492809803794" y="226.89620676324995" type="line"/>
      <point x="448.23891043074593" y="232.96830687403346"/>
      <point x="433.5084458492413" y="227.42754307397112"/>
      <point x="426.19386930372684" y="215.76398691345048" type="curve"/>
      <point x="404.2738089472429" y="180.81106059994644"/>
      <point x="375.7527702736138" y="166.0"/>
      <point x="343" y="166" type="curve" smooth="yes"/>
      <point x="292" y="166"/>
      <point x="250" y="202"/>
      <point x="250" y="274" type="curve" smooth="yes"/>
      <point x="250" y="345"/>
      <point x="292" y="381"/>
      <point x="343" y="381" type="curve" smooth="yes"/>
      <point x="375.7527702736138" y="381.0"/>
      <point x="404.2738089472429" y="366.1889394000536"/>
      <point x="426.19386930372684" y="331.2360130865495" type="curve"/>
      <point x="433.5084458492413" y="319.57245692602885"/>
      <point x="448.23891043074593" y="314.03169312596657"/>
      <point x="460.59492809803794" y="320.10379323675005" type="curve"/>
      <point x="569.6956962314861" y="373.71902786233034" type="line"/>
      <point x="594.372335970265" y="385.84583367681597"/>
      <point x="606.6018407352731" y="415.1311905069741"/>
      <point x="592.0871696923045" y="438.48328447248696" type="curve"/>
      <point x="545.6206973484497" y="513.241398191176"/>
      <point x="456.6466917864477" y="557.0"/>
      <point x="344" y="557" type="curve" smooth="yes"/>
      <point x="155" y="557"/>
      <point x="21" y="440"/>
      <point x="21" y="274" type="curve" smooth="yes"/>
      <point x="21" y="107"/>
      <point x="155" y="-10"/>
    </contour>
  </outline>
</glyph>
<glyph name="sterling" format="2">
  <advance width="694"/>
  <unicode hex="00A3"/>
  <outline>
    <contour>
      <point x="120.0" y="78.0" type="line"/>
      <point x="120.0" y="45.96748450981397"/>
      <point x="145.96748450981397" y="20.0"/>
      <point x="178.0" y="20.0" type="curve"/>
      <point x="298.0" y="20.0" type="line"/>
      <point x="330.03251549018603" y="20.0"/>
      <point x="356.0" y="45.96748450981397"/>
      <point x="356.0" y="78.0" type="curve"/>
      <point x="356" y="405" type="line" smooth="yes"/>
      <point x="356" y="488"/>
      <point x="408" y="525"/>
      <point x="497" y="525" type="curve" smooth="yes"/>
      <point x="533" y="525"/>
      <point x="578" y="516"/>
      <point x="617" y="495" type="curve"/>
      <point x="685" y="673" type="line"/>
      <point x="634" y="700"/>
      <point x="559" y="716"/>
      <point x="477" y="716" type="curve" smooth="yes"/>
      <point x="250" y="716"/>
      <point x="120" y="603"/>
      <point x="120" y="400" type="curve" smooth="yes"/>
    </contour>
    <contour>
      <point x="30.0" y="57.99999999999999" type="line"/>
      <point x="30.0" y="25.96748450981397"/>
      <point x="55.96748450981397" y="0.0"/>
      <point x="88.0" y="0.0" type="curve"/>
      <point x="602.0" y="0.0" type="line"/>
      <point x="634.032515490186" y="0.0"/>
      <point x="660.0" y="25.96748450981397"/>
      <point x="660.0" y="57.99999999999999" type="curve"/>
      <point x="660.0" y="120.0" type="line"/>
      <point x="660.0" y="152.03251549018603"/>
      <point x="634.032515490186" y="178.0"/>
      <point x="602.0" y="178.0" type="curve"/>
      <point x="88.0" y="178.0" type="line"/>
      <point x="55.96748450981397" y="178.0"/>
      <point x="30.0" y="152.03251549018603"/>
      <point x="30.0" y="120.0" type="curve"/>
    </contour>
    <contour>
      <point x="30.0" y="342.0" type="line"/>
      <point x="30.0" y="309.96748450981397"/>
      <point x="55.96748450981397" y="284.0"/>
      <point x="88.0" y="284.0" type="curve"/>
      <point x="508.0" y="284.0" type="line"/>
      <point x="540.032515490186" y="284.0"/>
      <point x="566.0" y="309.96748450981397"/>
      <point x="566.0" y="342.0" type="curve"/>
      <point x="566.0" y="358.0" type="line"/>
      <point x="566.0" y="390.03251549018603"/>
      <point x="540.032515490186" y="416.0"/>
      <point x="508.0" y="416.0" type="curve"/>
      <point x="88.0" y="416.0" type="line"/>
      <point x="55.96748450981397" y="416.0"/>
      <point x="30.0" y="390.03251549018603"/>
      <point x="30.0" y="358.0" type="curve"/>
    </contour>
  </outline>
</glyph>
<glyph name="currency" format="2">
  <advance width="700"/>
  <unicode hex="00A4"/>
  <outline>
    <contour>
      <point x="125" y="417" type="line"/>
      <point x="250" y="542" type="line"/>
      <point x="184.01219330881975" y="607.9878066911803" type="line"/>
      <point x="161.36178438724608" y="630.6382156127539"/>
      <point x="124.63821561275391" y="630.6382156127539"/>
      <point x="101.98780669118025" y="607.9878066911803" type="curve"/>
      <point x="59.01219330881975" y="565.0121933088197" type="line"/>
      <point x="36.36178438724609" y="542.3617843872461"/>
      <point x="36.36178438724609" y="505.6382156127539"/>
      <point x="59.012193308819754" y="482.98780669118025" type="curve"/>
    </contour>
    <contour>
      <point x="101.98780669118025" y="27.012193308819747" type="line"/>
      <point x="124.63821561275391" y="4.361784387246086"/>
      <point x="161.36178438724608" y="4.3617843872460895"/>
      <point x="184.01219330881975" y="27.012193308819754" type="curve"/>
      <point x="208.98780669118025" y="51.987806691180246" type="line"/>
      <point x="231.63821561275392" y="74.63821561275391"/>
      <point x="231.63821561275392" y="111.36178438724609"/>
      <point x="208.98780669118025" y="134.01219330881975" type="curve"/>
      <point x="125" y="218" type="line"/>
      <point x="59.012193308819754" y="152.01219330881975" type="line"/>
      <point x="36.36178438724609" y="129.36178438724608"/>
      <point x="36.36178438724609" y="92.63821561275391"/>
      <point x="59.01219330881975" y="69.98780669118025" type="curve"/>
    </contour>
    <contour>
      <point x="514.9878066911803" y="27.012193308819754" type="line"/>
      <point x="537.6382156127539" y="4.3617843872460895"/>
      <point x="574.3617843872461" y="4.361784387246086"/>
      <point x="597.0121933088197" y="27.012193308819747" type="curve"/>
      <point x="639.9878066911803" y="69.98780669118025" type="line"/>
      <point x="662.6382156127539" y="92.63821561275391"/>
      <point x="662.6382156127539" y="129.36178438724608"/>
      <point x="639.9878066911803" y="152.01219330881975" type="curve"/>
      <point x="574" y="218" type="line"/>
      <point x="449" y="93" type="line"/>
    </contour>
    <contour>
      <point x="574" y="417" type="line"/>
      <point x="639.9878066911803" y="482.98780669118025" type="line"/>
      <point x="662.6382156127539" y="505.6382156127539"/>
      <point x="662.6382156127539" y="542.3617843872461"/>
      <point x="639.9878066911803" y="565.0121933088197" type="curve"/>
      <point x="597.0121933088197" y="607.9878066911803" type="line"/>
      <point x="574.3617843872461" y="630.6382156127539"/>
      <point x="537.6382156127539" y="630.6382156127539"/>
      <point x="514.9878066911803" y="607.9878066911803" type="curve"/>
      <point x="449" y="542" type="line"/>
    </contour>
    <contour>
      <point x="349" y="69" type="curve" smooth="yes"/>
      <point x="489" y="69"/>
      <point x="603" y="183"/>
      <point x="603" y="323" type="curve" smooth="yes"/>
      <point x="603" y="463"/>
      <point x="490" y="577"/>
      <point x="349" y="577" type="curve" smooth="yes"/>
      <point x="209" y="577"/>
      <point x="95" y="463"/>
      <point x="95" y="323" type="curve" smooth="yes"/>
      <point x="95" y="183"/>
      <point x="209" y="69"/>
    </contour>
    <contour>
      <point x="349" y="244" type="curve" smooth="yes"/>
      <point x="305" y="244"/>
      <point x="270" y="279"/>
      <point x="270" y="323" type="curve" smooth="yes"/>
      <point x="270" y="367"/>
      <point x="305" y="403"/>
      <point x="349" y="403" type="curve" smooth="yes"/>
      <point x="393" y="403"/>
      <point x="429" y="367"/>
      <point x="429" y="323" type="curve" smooth="yes"/>
      <point x="429" y="279"/>
      <point x="393" y="244"/>
    </contour>
  </outline>
</glyph>
<glyph name="yen" format="2">
  <advance width="770"/>
  <unicode hex="00A5"/>
  <outline>
    <contour>
      <point x="267.0" y="57.99999999999999" type="line"/>
      <point x="267.0" y="25.96748450981397"/>
      <point x="292.96748450981397" y="0.0"/>
      <point x="325.0" y="0.0" type="curve"/>
      <point x="445.0" y="0.0" type="line"/>
      <point x="477.03251549018603" y="0.0"/>
      <point x="503.0" y="25.96748450981397"/>
      <point x="503.0" y="57.99999999999999" type="curve"/>
      <point x="503" y="307" type="line"/>
      <point x="451" y="166" type="line"/>
      <point x="740.4748503316747" y="612.761763228654" type="line"/>
      <point x="764.8358790143956" y="650.359420212969"/>
      <point x="737.8500393882701" y="700.0"/>
      <point x="693.05" y="700.0" type="curve"/>
      <point x="597.0638766839817" y="700.0" type="line"/>
      <point x="577.6586040619811" y="700.0"/>
      <point x="559.5390077212513" y="690.2954326501388"/>
      <point x="548.7849486665644" y="674.1425747177952" type="curve"/>
      <point x="319" y="329" type="line"/>
      <point x="470" y="329" type="line"/>
      <point x="242.19519027310054" y="673.9615690150192" type="line"/>
      <point x="231.45927561434868" y="690.2188112125577"/>
      <point x="213.27848578221625" y="700.0"/>
      <point x="193.79624290750007" y="700.0" type="curve"/>
      <point x="80.0268660303021" y="700.0" type="line"/>
      <point x="33.97646308081856" y="700.0"/>
      <point x="6.291965929525258" y="648.914052280556"/>
      <point x="31.43459258537318" y="610.3331251707205" type="curve"/>
      <point x="321" y="166" type="line"/>
      <point x="267" y="307" type="line"/>
    </contour>
    <contour>
      <point x="107.0" y="110.4" type="line"/>
      <point x="107.0" y="82.56484860852801"/>
      <point x="129.564848608528" y="60.0"/>
      <point x="157.4" y="60.0" type="curve"/>
      <point x="612.6" y="60.0" type="line"/>
      <point x="640.435151391472" y="60.0"/>
      <point x="663.0" y="82.56484860852801"/>
      <point x="663.0" y="110.4" type="curve"/>
      <point x="663.0" y="121.6" type="line"/>
      <point x="663.0" y="149.435151391472"/>
      <point x="640.435151391472" y="172.0"/>
      <point x="612.6" y="172.0" type="curve"/>
      <point x="157.4" y="172.0" type="line"/>
      <point x="129.564848608528" y="172.0"/>
      <point x="107.0" y="149.435151391472"/>
      <point x="107.0" y="121.6" type="curve"/>
    </contour>
    <contour>
      <point x="107.0" y="248.4" type="line"/>
      <point x="107.0" y="220.564848608528"/>
      <point x="129.564848608528" y="198.0"/>
      <point x="157.4" y="198.0" type="curve"/>
      <point x="612.6" y="198.0" type="line"/>
      <point x="640.435151391472" y="198.0"/>
      <point x="663.0" y="220.564848608528"/>
      <point x="663.0" y="248.4" type="curve"/>
      <point x="663.0" y="259.6" type="line"/>
      <point x="663.0" y="287.435151391472"/>
      <point x="640.435151391472" y="310.0"/>
      <point x="612.6" y="310.0" type="curve"/>
      <point x="157.4" y="310.0" type="line"/>
      <point x="129.564848608528" y="310.0"/>
      <point x="107.0" y="287.435151391472"/>
      <point x="107.0" y="259.6" type="curve"/>
    </contour>
  </outline>
</glyph>
<glyph name="brokenbar" format="2">
  <advance width="320"/>
  <unicode hex="00A6"/>
  <outline>
    <contour>
      <point x="57.0" y="450.0" type="line"/>
      <point x="57.0" y="417.96748450981397"/>
      <point x="82.96748450981397" y="392.0"/>
      <point x="115.0" y="392.0" type="curve"/>
      <point x="205.0" y="392.0" type="line"/>
      <point x="237.03251549018603" y="392.0"/>
      <point x="263.0" y="417.96748450981397"/>
      <point x="263.0" y="450.0" type="curve"/>
      <point x="263.0" y="684.0" type="line"/>
      <point x="263.0" y="716.032515490186"/>
      <point x="237.03251549018603" y="742.0"/>
      <point x="205.0" y="742.0" type="curve"/>
      <point x="115.0" y="742.0" type="line"/>
      <point x="82.96748450981397" y="742.0"/>
      <point x="57.0" y="716.032515490186"/>
      <point x="57.0" y="684.0" type="curve"/>
    </contour>
    <contour>
      <point x="57.0" y="-136.0" type="line"/>
      <point x="57.0" y="-168.03251549018603"/>
      <point x="82.96748450981397" y="-194.0"/>
      <point x="115.0" y="-194.0" type="curve"/>
      <point x="205.0" y="-194.0" type="line"/>
      <point x="237.03251549018603" y="-194.0"/>
      <point x="263.0" y="-168.03251549018603"/>
      <point x="263.0" y="-136.0" type="curve"/>
      <point x="263.0" y="98.0" type="line"/>
      <point x="263.0" y="130.03251549018603"/>
      <point x="237.03251549018603" y="156.0"/>
      <point x="205.0" y="156.0" type="curve"/>
      <point x="115.0" y="156.0" type="line"/>
      <point x="82.96748450981397" y="156.0"/>
      <point x="57.0" y="130.03251549018603"/>
      <point x="57.0" y="98.0" type="curve"/>
    </contour>
  </outline>
</glyph>
<glyph name="section" format="2">
  <advance width="549"/>
  <unicode hex="00A7"/>
  <outline>
    <contour>
      <point x="394" y="145" type="line"/>
      <point x="484" y="177"/>
      <point x="526" y="241"/>
      <point x="526" y="308" type="curve" smooth="yes"/>
      <point x="526" y="521"/>
      <point x="236" y="461"/>
      <point x="236" y="523" type="curve" smooth="yes"/>
      <point x="236" y="541"/>
      <point x="250" y="556"/>
      <point x="308" y="556" type="curve" smooth="yes"/>
      <point x="353.70081752468377" y="556.0"/>
      <point x="400.8341211415654" y="549.5538125851098"/>
      <point x="448.18758148941924" y="528.7812969073631" type="curve"/>
      <point x="462.2557790988983" y="522.6100086159936"/>
      <point x="479.1637997710258" y="528.4097768690782"/>
      <point x="485.0656009454928" y="542.5931377561037" type="curve"/>
      <point x="524.8496451739343" y="638.2031795309065" type="line"/>
      <point x="531.2204796796166" y="653.5137334235945"/>
      <point x="525.1762793325288" y="671.2974009536595"/>
      <point x="509.7506797694734" y="677.3843928971371" type="curve"/>
      <point x="451.43043320172643" y="700.3977525755333"/>
      <point x="366.9879905864632" y="710.0"/>
      <point x="318" y="710" type="curve" smooth="yes"/>
      <point x="125" y="710"/>
      <point x="38" y="624"/>
      <point x="38" y="515" type="curve" smooth="yes"/>
      <point x="38" y="304"/>
      <point x="331" y="373"/>
      <point x="331" y="299" type="curve" smooth="yes"/>
      <point x="331" y="278"/>
      <point x="315" y="257"/>
      <point x="287" y="247" type="curve"/>
    </contour>
    <contour>
      <point x="257" y="-110" type="curve" smooth="yes"/>
      <point x="425" y="-110"/>
      <point x="508" y="-24"/>
      <point x="508" y="85" type="curve" smooth="yes"/>
      <point x="508" y="297"/>
      <point x="214" y="228"/>
      <point x="214" y="302" type="curve" smooth="yes"/>
      <point x="214" y="323"/>
      <point x="230" y="344"/>
      <point x="258" y="354" type="curve"/>
      <point x="151" y="456" type="line"/>
      <point x="61" y="424"/>
      <point x="19" y="360"/>
      <point x="19" y="283" type="curve" smooth="yes"/>
      <point x="19" y="80"/>
      <point x="310" y="150"/>
      <point x="310" y="77" type="curve" smooth="yes"/>
      <point x="310" y="59"/>
      <point x="295" y="44"/>
      <point x="255" y="44" type="curve" smooth="yes"/>
      <point x="211.45595951830046" y="44.0"/>
      <point x="151.14532172254732" y="57.12168485447673"/>
      <point x="102.07647761722285" y="80.25301111848773" type="curve"/>
      <point x="89.0769101596262" y="86.3810795830159"/>
      <point x="73.05524388541569" y="81.11663449882157"/>
      <point x="67.53404141442394" y="67.84793823788978" type="curve"/>
      <point x="27.150354826065776" y="-29.20317953090644" type="line"/>
      <point x="20.779520320383494" y="-44.51373342359451"/>
      <point x="26.79010602220435" y="-62.29358236116994"/>
      <point x="42.00528127718319" y="-68.8889621652432" type="curve"/>
      <point x="99.37961102717378" y="-93.7592307861388"/>
      <point x="182.2499978170522" y="-110.0"/>
    </contour>
  </outline>
</glyph>
<glyph name="copyright" format="2">
  <advance width="764"/>
  <unicode hex="00A9"/>
  <outline>
    <contour>
      <point x="381" y="-3" type="curve" smooth="yes"/>
      <point x="580" y="-3"/>
      <point x="735" y="153"/>
      <point x="735" y="352" type="curve" smooth="yes"/>
      <point x="735" y="551"/>
      <point x="584" y="703"/>
      <point x="383" y="703" type="curve" smooth="yes"/>
      <point x="182" y="703"/>
      <point x="29" y="547"/>
      <point x="29" y="350" type="curve" smooth="yes"/>
      <point x="29" y="153"/>
      <point x="182" y="-3"/>
    </contour>
    <contour>
      <point x="381" y="85" type="curve" smooth="yes"/>
      <point x="231" y="85"/>
      <point x="123" y="200"/>
      <point x="123" y="350" type="curve" smooth="yes"/>
      <point x="123" y="500"/>
      <point x="231" y="615"/>
      <point x="383" y="615" type="curve" smooth="yes"/>
      <point x="535" y="615"/>
      <point x="641" y="503"/>
      <point x="641" y="352" type="curve" smooth="yes"/>
      <point x="641" y="201"/>
      <point x="531" y="85"/>
    </contour>
    <contour>
      <point x="397" y="152" type="curve" smooth="yes"/>
      <point x="486" y="152"/>
      <point x="553" y="195"/>
      <point x="577" y="265" type="curve"/>
      <point x="461.75130725731066" y="323.52472678339694" type="line"/>
      <point x="454.8111477463891" y="327.04902653503683"/>
      <point x="446.44825766525565" y="323.9543203338566"/>
      <point x="442.3281858276509" y="317.35041915126607" type="curve"/>
      <point x="430.0933512895563" y="297.7396838389678"/>
      <point x="414.45389088822685" y="290.0"/>
      <point x="396" y="290" type="curve" smooth="yes"/>
      <point x="370" y="290"/>
      <point x="345" y="310"/>
      <point x="345" y="350" type="curve" smooth="yes"/>
      <point x="345" y="390"/>
      <point x="370" y="410"/>
      <point x="396" y="410" type="curve" smooth="yes"/>
      <point x="414.45389088822685" y="410.0"/>
      <point x="430.0933512895563" y="402.2603161610322"/>
      <point x="442.3281858276509" y="382.64958084873393" type="curve"/>
      <point x="446.44825766525565" y="376.0456796661434"/>
      <point x="454.8111477463891" y="372.95097346496317"/>
      <point x="461.75130725731066" y="376.47527321660306" type="curve"/>
      <point x="577" y="435" type="line"/>
      <point x="553" y="505"/>
      <point x="486" y="548"/>
      <point x="397" y="548" type="curve" smooth="yes"/>
      <point x="271" y="548"/>
      <point x="181" y="466"/>
      <point x="181" y="350" type="curve" smooth="yes"/>
      <point x="181" y="234"/>
      <point x="271" y="152"/>
    </contour>
  </outline>
</glyph>
<glyph name="ordfeminine" format="2">
  <advance width="422"/>
  <unicode hex="00AA"/>
  <outline>
    <contour>
      <point x="244.0" y="445.65" type="line"/>
      <point x="244.0" y="431.48389616684017"/>
      <point x="255.48389616684014" y="420.0"/>
      <point x="269.65" y="420.0" type="curve"/>
      <point x="328.0" y="420.0" type="line"/>
      <point x="360.03251549018603" y="420.0"/>
      <point x="386.0" y="445.96748450981397"/>
      <point x="386.0" y="478.0" type="curve"/>
      <point x="386" y="593" type="line" smooth="yes"/>
      <point x="386" y="703"/>
      <point x="315" y="752"/>
      <point x="192" y="752" type="curve" smooth="yes"/>
      <point x="138" y="752"/>
      <point x="75" y="739"/>
      <point x="33" y="715" type="curve"/>
      <point x="81" y="622" type="line"/>
      <point x="104" y="638"/>
      <point x="139" y="647"/>
      <point x="166" y="647" type="curve" smooth="yes"/>
      <point x="214" y="647"/>
      <point x="233" y="630"/>
      <point x="233" y="601" type="curve" smooth="yes"/>
      <point x="233.0" y="500.3704838569822" type="line"/>
      <point x="233.0" y="494.9321616921936"/>
      <point x="234.73397388064387" y="489.63549016275834"/>
      <point x="237.95" y="485.25" type="curve"/>
      <point x="239.05" y="483.75" type="line"/>
      <point x="242.26602611935613" y="479.36450983724166"/>
      <point x="244.0" y="474.0678383078064"/>
      <point x="244.0" y="468.6295161430178" type="curve"/>
    </contour>
    <contour>
      <point x="146" y="414" type="curve" smooth="yes"/>
      <point x="206" y="414"/>
      <point x="241" y="437"/>
      <point x="252" y="485" type="curve"/>
      <point x="233" y="527" type="line"/>
      <point x="226" y="507"/>
      <point x="209" y="499"/>
      <point x="192" y="499" type="curve" smooth="yes"/>
      <point x="173" y="499"/>
      <point x="161" y="509"/>
      <point x="161" y="522" type="curve" smooth="yes"/>
      <point x="161" y="538"/>
      <point x="174" y="546"/>
      <point x="202" y="546" type="curve" smooth="yes"/>
      <point x="226.75" y="546.0" type="line"/>
      <point x="237.93376618407356" y="546.0"/>
      <point x="247.0" y="555.0662338159265"/>
      <point x="247.0" y="566.25" type="curve"/>
      <point x="247.0" y="583.4" type="line"/>
      <point x="247.0" y="600.2999133448222"/>
      <point x="233.29991334482227" y="614.0"/>
      <point x="216.4" y="614.0" type="curve"/>
      <point x="178" y="614" type="line" smooth="yes"/>
      <point x="68" y="614"/>
      <point x="17" y="580"/>
      <point x="17" y="516" type="curve" smooth="yes"/>
      <point x="17" y="460"/>
      <point x="60" y="414"/>
    </contour>
  </outline>
</glyph>
<glyph name="logicalnot" format="2">
  <advance width="620"/>
  <unicode hex="00AC"/>
  <outline>
    <contour>
      <point x="565.0" y="377.0" type="line"/>
      <point x="565.0" y="409.03251549018603"/>
      <point x="539.032515490186" y="435.0"/>
      <point x="507.0" y="435.0" type="curve"/>
      <point x="113.0" y="435.0" type="line"/>
      <point x="80.96748450981397" y="435.0"/>
      <point x="55.0" y="409.03251549018603"/>
      <point x="55.0" y="377.0" type="curve"/>
      <point x="55.0" y="323.0" type="line"/>
      <point x="55.0" y="290.96748450981397"/>
      <point x="80.96748450981397" y="265.0"/>
      <point x="113.0" y="265.0" type="curve"/>
      <point x="327.0" y="265.0" type="line"/>
      <point x="359.03251549018603" y="265.0"/>
      <point x="385.0" y="239.03251549018603"/>
      <point x="385.0" y="207.0" type="curve"/>
      <point x="385.0" y="153.0" type="line"/>
      <point x="385.0" y="120.96748450981397"/>
      <point x="410.96748450981397" y="95.0"/>
      <point x="443.0" y="95.0" type="curve"/>
      <point x="507.0" y="95.0" type="line"/>
      <point x="539.032515490186" y="95.0"/>
      <point x="565.0" y="120.96748450981397"/>
      <point x="565.0" y="153.0" type="curve"/>
    </contour>
  </outline>
</glyph>
<glyph name="registered" format="2">
  <advance width="764"/>
  <unicode hex="00AE"/>
  <outline>
    <contour>
      <point x="381" y="-3" type="curve" smooth="yes"/>
      <point x="580" y="-3"/>
      <point x="735" y="153"/>
      <point x="735" y="352" type="curve" smooth="yes"/>
      <point x="735" y="551"/>
      <point x="584" y="703"/>
      <point x="383" y="703" type="curve" smooth="yes"/>
      <point x="182" y="703"/>
      <point x="29" y="547"/>
      <point x="29" y="350" type="curve" smooth="yes"/>
      <point x="29" y="153"/>
      <point x="182" y="-3"/>
    </contour>
    <contour>
      <point x="427.8549548546091" y="188.46300446353814" type="line"/>
      <point x="438.54609865894196" y="171.96145641772006"/>
      <point x="456.8694337052046" y="162.0"/>
      <point x="476.5316218782785" y="162.0" type="curve"/>
      <point x="525.3" y="162.0" type="line"/>
      <point x="553.6158312394047" y="162.0"/>
      <point x="570.6726833907373" y="193.37477128820967"/>
      <point x="555.2761964354216" y="217.13891419750138" type="curve"/>
      <point x="516.1450451453909" y="277.53699553646186" type="line"/>
      <point x="505.45390134105804" y="294.03854358227994"/>
      <point x="487.1305662947954" y="304.0"/>
      <point x="467.4683781217215" y="304.0" type="curve"/>
      <point x="418.7" y="304.0" type="line"/>
      <point x="390.3841687605953" y="304.0"/>
      <point x="373.3273166092626" y="272.6252287117903"/>
      <point x="388.72380356457836" y="248.86108580249862" type="curve"/>
    </contour>
    <contour>
      <point x="381" y="85" type="curve" smooth="yes"/>
      <point x="231" y="85"/>
      <point x="123" y="200"/>
      <point x="123" y="350" type="curve" smooth="yes"/>
      <point x="123" y="500"/>
      <point x="231" y="615"/>
      <point x="383" y="615" type="curve" smooth="yes"/>
      <point x="535" y="615"/>
      <point x="641" y="503"/>
      <point x="641" y="352" type="curve" smooth="yes"/>
      <point x="641" y="201"/>
      <point x="531" y="85"/>
    </contour>
    <contour>
      <point x="216.0" y="220.0" type="line"/>
      <point x="216.0" y="187.96748450981397"/>
      <point x="241.96748450981397" y="162.0"/>
      <point x="274.0" y="162.0" type="curve"/>
      <point x="316.8" y="162.0" type="line"/>
      <point x="340.6587011926903" y="162.0"/>
      <point x="360.0" y="181.34129880730973"/>
      <point x="360.0" y="205.2" type="curve"/>
      <point x="360.0" y="242.25" type="line"/>
      <point x="360.0" y="250.948484809835"/>
      <point x="367.051515190165" y="258.0"/>
      <point x="375.75" y="258.0" type="curve"/>
      <point x="395" y="258" type="line" smooth="yes"/>
      <point x="507" y="258"/>
      <point x="572" y="305"/>
      <point x="572" y="398" type="curve" smooth="yes"/>
      <point x="572" y="483"/>
      <point x="507" y="538"/>
      <point x="395" y="538" type="curve" smooth="yes"/>
      <point x="274.0" y="538.0" type="line"/>
      <point x="241.96748450981397" y="538.0"/>
      <point x="216.0" y="512.032515490186"/>
      <point x="216.0" y="480.0" type="curve"/>
    </contour>
    <contour>
      <point x="371.7" y="357.0" type="line"/>
      <point x="365.23826842697974" y="357.0"/>
      <point x="360.0" y="362.23826842697974"/>
      <point x="360.0" y="368.7" type="curve"/>
      <point x="360.0" y="427.3" type="line"/>
      <point x="360.0" y="433.76173157302026"/>
      <point x="365.23826842697974" y="439.0"/>
      <point x="371.7" y="439.0" type="curve"/>
      <point x="386" y="439" type="line" smooth="yes"/>
      <point x="413" y="439"/>
      <point x="428" y="423"/>
      <point x="428" y="398" type="curve" smooth="yes"/>
      <point x="428" y="373"/>
      <point x="413" y="357"/>
      <point x="386" y="357" type="curve" smooth="yes"/>
    </contour>
  </outline>
</glyph>
<glyph name="plusminus" format="2">
  <advance width="620"/>
  <unicode hex="00B1"/>
  <outline>
    <contour>
      <point x="55.0" y="57.99999999999999" type="line"/>
      <point x="55.0" y="25.96748450981397"/>
      <point x="80.96748450981397" y="0.0"/>
      <point x="113.0" y="0.0" type="curve"/>
      <point x="507.0" y="0.0" type="line"/>
      <point x="539.032515490186" y="0.0"/>
      <point x="565.0" y="25.96748450981397"/>
      <point x="565.0" y="57.99999999999999" type="curve"/>
      <point x="565.0" y="112.0" type="line"/>
      <point x="565.0" y="144.03251549018603"/>
      <point x="539.032515490186" y="170.0"/>
      <point x="507.0" y="170.0" type="curve"/>
      <point x="113.0" y="170.0" type="line"/>
      <point x="80.96748450981397" y="170.0"/>
      <point x="55.0" y="144.03251549018603"/>
      <point x="55.0" y="112.0" type="curve"/>
    </contour>
    <contour>
      <point x="220.0" y="293.0" type="line"/>
      <point x="220.0" y="260.96748450981397"/>
      <point x="245.96748450981397" y="235.0"/>
      <point x="278.0" y="235.0" type="curve"/>
      <point x="342.0" y="235.0" type="line"/>
      <point x="374.03251549018603" y="235.0"/>
      <point x="400.0" y="260.96748450981397"/>
      <point x="400.0" y="293.0" type="curve"/>
      <point x="400.0" y="642.0" type="line"/>
      <point x="400.0" y="674.032515490186"/>
      <point x="374.03251549018603" y="700.0"/>
      <point x="342.0" y="700.0" type="curve"/>
      <point x="278.0" y="700.0" type="line"/>
      <point x="245.96748450981397" y="700.0"/>
      <point x="220.0" y="674.032515490186"/>
      <point x="220.0" y="642.0" type="curve"/>
    </contour>
    <contour>
      <point x="55.0" y="445.0" type="line"/>
      <point x="55.0" y="412.96748450981397"/>
      <point x="80.96748450981397" y="387.0"/>
      <point x="113.0" y="387.0" type="curve"/>
      <point x="507.0" y="387.0" type="line"/>
      <point x="539.032515490186" y="387.0"/>
      <point x="565.0" y="412.96748450981397"/>
      <point x="565.0" y="445.0" type="curve"/>
      <point x="565.0" y="490.0" type="line"/>
      <point x="565.0" y="522.032515490186"/>
      <point x="539.032515490186" y="548.0"/>
      <point x="507.0" y="548.0" type="curve"/>
      <point x="113.0" y="548.0" type="line"/>
      <point x="80.96748450981397" y="548.0"/>
      <point x="55.0" y="522.032515490186"/>
      <point x="55.0" y="490.0" type="curve"/>
    </contour>
  </outline>
</glyph>
<glyph name="paragraph" format="2">
  <advance width="730"/>
  <unicode hex="00B6"/>
  <outline>
    <contour>
      <point x="229.0" y="-42.00000000000001" type="line"/>
      <point x="229.0" y="-74.03251549018603"/>
      <point x="254.96748450981397" y="-100.0"/>
      <point x="287.0" y="-100.0" type="curve"/>
      <point x="353.0" y="-100.0" type="line"/>
      <point x="385.03251549018603" y="-100.0"/>
      <point x="411.0" y="-74.03251549018603"/>
      <point x="411.0" y="-42.00000000000001" type="curve"/>
      <point x="411.0" y="551.0" type="line"/>
      <point x="411.0" y="570.8822509939085"/>
      <point x="427.11774900609146" y="587.0"/>
      <point x="447.0" y="587.0" type="curve"/>
      <point x="455.0" y="587.0" type="line"/>
      <point x="474.88225099390854" y="587.0"/>
      <point x="491.0" y="570.8822509939085"/>
      <point x="491.0" y="551.0" type="curve"/>
      <point x="491.0" y="-42.00000000000001" type="line"/>
      <point x="491.0" y="-74.03251549018603"/>
      <point x="516.967484509814" y="-100.0"/>
      <point x="549.0" y="-100.0" type="curve"/>
      <point x="615.0" y="-100.0" type="line"/>
      <point x="647.032515490186" y="-100.0"/>
      <point x="673.0" y="-74.03251549018603"/>
      <point x="673.0" y="-42.00000000000001" type="curve"/>
      <point x="673.0" y="684.0" type="line"/>
      <point x="673.0" y="716.032515490186"/>
      <point x="647.032515490186" y="742.0"/>
      <point x="615.0" y="742.0" type="curve"/>
      <point x="268" y="742" type="line" smooth="yes"/>
      <point x="111" y="742"/>
      <point x="8" y="663"/>
      <point x="8" y="537" type="curve" smooth="yes"/>
      <point x="8" y="414"/>
      <point x="106" y="337"/>
      <point x="229" y="333" type="curve"/>
    </contour>
  </outline>
</glyph>
<glyph name="questiondown" format="2">
  <advance width="606"/>
  <unicode hex="00BF"/>
  <outline>
    <contour>
      <point x="307" y="-169" type="curve" smooth="yes"/>
      <point x="442.9347401648847" y="-169.0"/>
      <point x="536.282880273598" y="-121.36075247953704"/>
      <point x="592.5635925420587" y="-48.15894630228645" type="curve"/>
      <point x="608.9102161677928" y="-26.897623798128713"/>
      <point x="599.2342644691928" y="2.882867765403624"/>
      <point x="575.246668698258" y="14.876665650871018" type="curve"/>
      <point x="459.9" y="72.55" type="line"/>
      <point x="449.46181822819796" y="77.769090885901"/>
      <point x="436.8960879729311" y="73.38432322021741"/>
      <point x="430.0968303871507" y="63.899353812850734" type="curve"/>
      <point x="407.70287131403705" y="32.65976419022518"/>
      <point x="373.4279605141469" y="14.0"/>
      <point x="337" y="14" type="curve" smooth="yes"/>
      <point x="300" y="14"/>
      <point x="270" y="30"/>
      <point x="270" y="61" type="curve" smooth="yes"/>
      <point x="270.0" y="111.8972344804829"/>
      <point x="359.80870025025587" y="145.38968209076117"/>
      <point x="389.55677370077825" y="225.37511792966748" type="curve"/>
      <point x="400.0395428219436" y="253.5607702997141"/>
      <point x="374.6219046282867" y="279.0"/>
      <point x="344.55" y="279.0" type="curve"/>
      <point x="227.65" y="279.0" type="line"/>
      <point x="208.513333418363" y="279.0"/>
      <point x="192.87365609874848" y="262.07505082955277"/>
      <point x="182.54547220845646" y="245.964786232562" type="curve"/>
      <point x="146.99919307868" y="190.51844946105453"/>
      <point x="33.0" y="151.14640700525752"/>
      <point x="33" y="22" type="curve" smooth="yes"/>
      <point x="33" y="-103"/>
      <point x="150" y="-169"/>
    </contour>
    <contour>
      <point x="296" y="319" type="curve" smooth="yes"/>
      <point x="374" y="319"/>
      <point x="428" y="370"/>
      <point x="428" y="437" type="curve" smooth="yes"/>
      <point x="428" y="503"/>
      <point x="374" y="557"/>
      <point x="296" y="557" type="curve" smooth="yes"/>
      <point x="218" y="557"/>
      <point x="164" y="503"/>
      <point x="164" y="437" type="curve" smooth="yes"/>
      <point x="164" y="370"/>
      <point x="218" y="319"/>
    </contour>
  </outline>
</glyph>
